<?xml version="1.0" encoding="utf-8"?>
<!-- Generator: Adobe Illustrator 16.0.0, SVG Export Plug-In . SVG Version: 6.00 Build 0)  -->
<!DOCTYPE svg PUBLIC "-//W3C//DTD SVG 1.1//EN" "http://www.w3.org/Graphics/SVG/1.1/DTD/svg11.dtd">
<svg version="1.1" id="Ebene_1" xmlns="http://www.w3.org/2000/svg" xmlns:xlink="http://www.w3.org/1999/xlink" x="0px" y="0px"
	 width="60px" height="60px" viewBox="0 0 60 60" style="enable-background:new 0 0 60 60;" xml:space="preserve">
<style type="text/css">
<![CDATA[
	.st0{clip-path:url(#SVGID_2_);fill:#FFFFFF;}
]]>
</style>
<g>
	<defs>
		<rect id="SVGID_1_" width="60" height="60"/>
	</defs>
	<clipPath id="SVGID_2_">
		<use xlink:href="#SVGID_1_"  style="overflow:visible;"/>
	</clipPath>
	<path class="st0" d="M40.34,17.02L30,27.33L19.66,17.02l-2.64,2.64L27.33,30L17.02,40.34l2.64,2.64L30,32.67l10.34,10.31l2.64-2.64
		L32.67,30l10.31-10.34L40.34,17.02z M23.01,55.31c-2.24-0.63-4.33-1.51-6.27-2.65c-1.94-1.14-3.71-2.51-5.3-4.1
		c-1.59-1.59-2.96-3.36-4.1-5.3c-1.14-1.94-2.03-4.03-2.65-6.27C4.06,34.75,3.75,32.42,3.75,30s0.31-4.75,0.94-6.99
		s1.51-4.33,2.65-6.27c1.14-1.94,2.51-3.71,4.1-5.3c1.59-1.59,3.36-2.96,5.3-4.1c1.94-1.14,4.03-2.03,6.27-2.65
		c2.24-0.63,4.57-0.94,6.99-0.94s4.75,0.31,6.99,0.94c2.24,0.63,4.33,1.51,6.27,2.65c1.94,1.14,3.71,2.51,5.3,4.1
		c1.59,1.59,2.96,3.36,4.1,5.3c1.14,1.94,2.03,4.03,2.65,6.27s0.94,4.57,0.94,6.99s-0.31,4.75-0.94,6.99
		c-0.63,2.24-1.51,4.33-2.65,6.27c-1.14,1.94-2.51,3.71-4.1,5.3c-1.59,1.59-3.36,2.96-5.3,4.1c-1.94,1.14-4.04,2.03-6.27,2.65
		c-2.24,0.63-4.57,0.94-6.99,0.94S25.25,55.94,23.01,55.31 M22.03,1.07c-2.56,0.71-4.95,1.72-7.16,3.03
		c-2.22,1.31-4.24,2.88-6.07,4.7c-1.83,1.83-3.39,3.85-4.7,6.06c-1.31,2.22-2.32,4.6-3.03,7.16S0,27.25,0,30s0.36,5.41,1.07,7.97
		s1.72,4.95,3.03,7.16c1.31,2.22,2.88,4.24,4.7,6.06c1.83,1.83,3.85,3.39,6.07,4.7c2.22,1.31,4.6,2.32,7.16,3.03
		C24.59,59.64,27.25,60,30,60s5.41-0.36,7.97-1.07c2.56-0.71,4.95-1.72,7.16-3.03c2.21-1.31,4.24-2.88,6.06-4.7s3.39-3.85,4.7-6.06
		c1.31-2.22,2.32-4.6,3.03-7.16S60,32.75,60,30s-0.36-5.41-1.07-7.97s-1.72-4.95-3.03-7.16c-1.31-2.22-2.88-4.24-4.7-6.06
		s-3.85-3.39-6.06-4.7c-2.22-1.31-4.61-2.32-7.16-3.03S32.75,0,30,0S24.59,0.36,22.03,1.07"/>
</g>
</svg>
