<?xml version="1.0" encoding="UTF-8" standalone="no"?>
<!DOCTYPE svg PUBLIC "-//W3C//DTD SVG 1.1//EN" "http://www.w3.org/Graphics/SVG/1.1/DTD/svg11.dtd">
<svg width="100%" height="100%" viewBox="0 0 60 60" version="1.1" xmlns="http://www.w3.org/2000/svg" xmlns:xlink="http://www.w3.org/1999/xlink" xml:space="preserve" xmlns:serif="http://www.serif.com/" style="fill-rule:evenodd;clip-rule:evenodd;stroke-linejoin:round;stroke-miterlimit:2;">
    <g transform="matrix(1,0,0,1,-930,-510)">
        <g transform="matrix(1,0,0,1,952.031,568.931)">
            <path d="M0,-57.862C-2.559,-57.149 -4.947,-56.138 -7.163,-54.83C-9.38,-53.521 -11.402,-51.954 -13.228,-50.128C-15.054,-48.301 -16.621,-46.28 -17.93,-44.063C-19.238,-41.846 -20.249,-39.459 -20.962,-36.9C-21.675,-34.341 -22.031,-31.685 -22.031,-28.931C-22.031,-26.177 -21.675,-23.521 -20.962,-20.963C-20.249,-18.404 -19.238,-16.016 -17.93,-13.799C-16.621,-11.583 -15.054,-9.561 -13.228,-7.735C-11.402,-5.909 -9.38,-4.341 -7.163,-3.033C-4.947,-1.724 -2.559,-0.713 0,-0.001C2.558,0.713 5.215,1.069 7.969,1.069C10.723,1.069 13.379,0.713 15.938,-0.001C18.496,-0.713 20.884,-1.724 23.101,-3.033C25.317,-4.341 27.339,-5.909 29.165,-7.735C30.991,-9.561 32.558,-11.583 33.867,-13.799C35.175,-16.016 36.186,-18.404 36.899,-20.963C37.612,-23.521 37.969,-26.177 37.969,-28.931C37.969,-31.685 37.612,-34.341 36.899,-36.9C36.186,-39.459 35.175,-41.846 33.867,-44.063C32.558,-46.28 30.991,-48.301 29.165,-50.128C27.339,-51.954 25.317,-53.521 23.101,-54.83C20.884,-56.138 18.496,-57.149 15.938,-57.862C13.379,-58.575 10.723,-58.931 7.969,-58.931C5.215,-58.931 2.558,-58.575 0,-57.862M0.981,-3.619C-1.255,-4.244 -3.345,-5.128 -5.288,-6.27C-7.232,-7.413 -8.999,-8.78 -10.591,-10.372C-12.183,-11.963 -13.55,-13.731 -14.692,-15.674C-15.835,-17.618 -16.719,-19.707 -17.344,-21.944C-17.969,-24.18 -18.281,-26.509 -18.281,-28.931C-18.281,-31.353 -17.969,-33.682 -17.344,-35.919C-16.719,-38.155 -15.835,-40.245 -14.692,-42.188C-13.55,-44.131 -12.183,-45.899 -10.591,-47.491C-8.999,-49.083 -7.232,-50.45 -5.288,-51.592C-3.345,-52.735 -1.255,-53.619 0.981,-54.244C3.218,-54.869 5.547,-55.181 7.969,-55.181C10.39,-55.181 12.719,-54.869 14.956,-54.244C17.192,-53.619 19.282,-52.735 21.226,-51.592C23.169,-50.45 24.936,-49.083 26.528,-47.491C28.12,-45.899 29.487,-44.131 30.63,-42.188C31.772,-40.245 32.656,-38.155 33.281,-35.919C33.906,-33.682 34.219,-31.353 34.219,-28.931C34.219,-26.509 33.906,-24.18 33.281,-21.944C32.656,-19.707 31.772,-17.618 30.63,-15.674C29.487,-13.731 28.12,-11.963 26.528,-10.372C24.936,-8.78 23.169,-7.413 21.226,-6.27C19.282,-5.128 17.192,-4.244 14.956,-3.619C12.719,-2.994 10.39,-2.681 7.969,-2.681C5.547,-2.681 3.218,-2.994 0.981,-3.619M18.311,-41.91L7.969,-31.597L-2.373,-41.91L-5.01,-39.273L5.303,-28.931L-5.01,-18.59L-2.373,-15.953L7.969,-26.265L18.311,-15.953L20.947,-18.59L10.635,-28.931L20.947,-39.273L18.311,-41.91Z" style="fill:rgb(0,118,192);fill-rule:nonzero;"/>
        </g>
    </g>
</svg>
