<?xml version="1.0" encoding="utf-8"?>
<!-- Generator: Adobe Illustrator 16.0.0, SVG Export Plug-In . SVG Version: 6.00 Build 0)  -->
<!DOCTYPE svg PUBLIC "-//W3C//DTD SVG 1.1//EN" "http://www.w3.org/Graphics/SVG/1.1/DTD/svg11.dtd">
<svg version="1.1" id="Ebene_1" xmlns="http://www.w3.org/2000/svg" xmlns:xlink="http://www.w3.org/1999/xlink" x="0px" y="0px"
	 width="118px" height="118px" viewBox="0 0 118 118" style="enable-background:new 0 0 118 118;" xml:space="preserve">
<style type="text/css">
<![CDATA[
	.st0{clip-path:url(#SVGID_2_);fill:none;stroke:#006EB8;stroke-width:3;}
	.st1{clip-path:url(#SVGID_2_);fill:#FFFFFF;}
]]>
</style>
<g>
	<defs>
		<rect id="SVGID_1_" width="118" height="118"/>
	</defs>
	<clipPath id="SVGID_2_">
		<use xlink:href="#SVGID_1_"  style="overflow:visible;"/>
	</clipPath>
	<circle class="st0" cx="59" cy="59" r="57.5"/>
	<path class="st1" d="M58.95,63.82c-0.41-0.42-0.9-0.62-1.46-0.62c-0.56,0-1.05,0.21-1.46,0.62c-0.41,0.41-0.62,0.9-0.62,1.48
		c0,2.03-0.38,3.94-1.16,5.72c-0.76,1.79-1.81,3.34-3.12,4.66c-1.31,1.33-2.85,2.37-4.61,3.15C44.75,79.61,42.87,80,40.85,80
		c-0.56,0-1.05,0.21-1.46,0.62c-0.42,0.42-0.62,0.9-0.62,1.48c0,0.56,0.2,1.06,0.62,1.47c0.41,0.42,0.9,0.63,1.46,0.63
		c2.58,0,5.01-0.5,7.28-1.49c2.27-1,4.25-2.35,5.94-4.05c1.69-1.7,3.03-3.71,4.01-6c0.98-2.29,1.48-4.74,1.48-7.34
		C59.57,64.73,59.36,64.24,58.95,63.82 M65.56,34.8c2.57,0.67,5.09,1.64,7.59,2.94c0.17,0.11,0.32,0.18,0.45,0.21
		c0.13,0.04,0.3,0.05,0.52,0.05c0.59,0,1.08-0.21,1.48-0.63c0.4-0.41,0.6-0.92,0.6-1.51c0-0.79-0.36-1.39-1.1-1.8
		c-1.28-0.75-2.64-1.39-4.07-1.96c-1.45-0.56-2.93-1.03-4.45-1.39c-1.52-0.37-3.06-0.65-4.6-0.84c-1.53-0.19-3.03-0.27-4.48-0.27
		c-1.43,0-2.92,0.09-4.46,0.27c-1.56,0.19-3.09,0.47-4.61,0.84c-1.53,0.37-3.01,0.83-4.47,1.39c-1.45,0.56-2.81,1.21-4.06,1.96
		c-0.74,0.42-1.11,1.02-1.11,1.84c0,0.56,0.2,1.06,0.62,1.47c0.41,0.42,0.9,0.63,1.46,0.63c0.3,0,0.63-0.09,0.98-0.27
		c2.54-1.25,5.07-2.22,7.6-2.91c2.53-0.68,5.22-1.03,8.05-1.03C60.3,33.81,62.99,34.14,65.56,34.8 M51.74,38.61
		c-1.88,0.4-3.7,1.03-5.45,1.85c-0.79,0.38-1.58,0.8-2.41,1.28c-0.82,0.48-1.63,1.01-2.42,1.57c-0.79,0.57-1.54,1.17-2.26,1.8
		c-0.71,0.64-1.33,1.29-1.84,1.97c-0.18,0.22-0.31,0.44-0.39,0.65c-0.08,0.22-0.13,0.47-0.13,0.76c0,0.57,0.2,1.06,0.6,1.47
		c0.4,0.42,0.89,0.62,1.48,0.62c0.32,0,0.6-0.05,0.83-0.17c0.22-0.11,0.46-0.28,0.69-0.52c0.45-0.44,0.9-0.89,1.33-1.33
		c0.43-0.45,0.9-0.87,1.4-1.26c2.04-1.64,4.28-2.9,6.73-3.79c2.45-0.89,4.98-1.33,7.6-1.33c1.63,0,3.22,0.17,4.79,0.52
		c1.57,0.36,3.08,0.86,4.54,1.51c1.46,0.66,2.85,1.47,4.14,2.43c1.3,0.96,2.49,2.06,3.58,3.27c0.54,0.59,1.03,1.2,1.46,1.84
		c0.43,0.63,0.87,1.29,1.3,1.96c0.22,0.33,0.47,0.59,0.74,0.78c0.28,0.18,0.63,0.28,1.04,0.28c0.56,0,1.05-0.21,1.46-0.63
		c0.41-0.42,0.62-0.92,0.62-1.51c0-0.33-0.09-0.66-0.26-1.02c-0.52-0.98-1.14-1.94-1.87-2.88c-0.73-0.94-1.51-1.84-2.36-2.7
		c-0.84-0.85-1.74-1.64-2.68-2.36c-0.95-0.72-1.88-1.37-2.81-1.94c-2.08-1.24-4.28-2.19-6.59-2.82c-2.32-0.64-4.69-0.95-7.12-0.95
		C55.54,38.01,53.62,38.21,51.74,38.61 M50.21,47.89c-2.27,1-4.26,2.34-5.94,4.05c-1.69,1.71-3.03,3.71-4.01,6s-1.48,4.75-1.48,7.35
		c0,0.57,0.2,1.06,0.62,1.47c0.41,0.42,0.9,0.63,1.46,0.63c0.57,0,1.05-0.21,1.47-0.63c0.41-0.42,0.61-0.91,0.61-1.47
		c0-2.04,0.39-3.94,1.15-5.73c0.77-1.78,1.81-3.33,3.13-4.66c1.31-1.32,2.84-2.37,4.61-3.14c1.76-0.78,3.65-1.17,5.67-1.17
		s3.9,0.39,5.67,1.17c1.76,0.77,3.3,1.83,4.61,3.14c1.31,1.33,2.35,2.88,3.11,4.66c0.77,1.78,1.15,3.69,1.15,5.73
		c0,2.88-0.37,5.7-1.12,8.44c-0.75,2.75-1.87,5.36-3.36,7.83c-0.37,0.61-0.75,1.19-1.13,1.74c-0.4,0.55-0.8,1.11-1.21,1.67
		c-0.3,0.42-0.45,0.85-0.45,1.32c0,0.59,0.2,1.09,0.61,1.49c0.41,0.41,0.9,0.61,1.47,0.61c0.34,0,0.64-0.07,0.89-0.21
		c0.25-0.14,0.49-0.33,0.73-0.58c0.54-0.61,1.1-1.34,1.66-2.2c0.56-0.85,1.09-1.74,1.59-2.67c0.5-0.93,0.96-1.87,1.38-2.81
		c0.42-0.94,0.77-1.8,1.05-2.59c0.69-1.93,1.21-3.89,1.55-5.92c0.33-2.02,0.5-4.06,0.5-6.12c0-2.6-0.49-5.05-1.47-7.35
		c-0.99-2.3-2.32-4.29-4.01-6c-1.69-1.71-3.67-3.05-5.94-4.05c-2.28-0.99-4.7-1.49-7.28-1.49C54.91,46.4,52.48,46.9,50.21,47.89
		 M53.45,55.64c-1.28,0.56-2.38,1.31-3.32,2.26c-0.94,0.96-1.68,2.07-2.22,3.33c-0.54,1.27-0.81,2.63-0.81,4.07
		c0,0.87-0.16,1.69-0.49,2.46c-0.32,0.77-0.76,1.43-1.33,2c-0.56,0.57-1.22,1.02-1.98,1.34c-0.76,0.33-1.57,0.49-2.44,0.49
		c-0.56,0-1.05,0.21-1.46,0.62c-0.42,0.42-0.62,0.91-0.62,1.48c0,0.57,0.2,1.06,0.62,1.47c0.41,0.42,0.9,0.62,1.46,0.62
		c1.43,0,2.78-0.27,4.05-0.82c1.27-0.54,2.37-1.29,3.31-2.24c0.95-0.96,1.69-2.07,2.23-3.35c0.54-1.27,0.81-2.64,0.81-4.08
		c0-0.88,0.17-1.7,0.49-2.46c0.32-0.76,0.77-1.43,1.33-2c0.57-0.57,1.23-1.02,1.98-1.34c0.76-0.33,1.57-0.49,2.44-0.49
		c0.87,0,1.68,0.16,2.44,0.49c0.75,0.33,1.42,0.77,1.98,1.34c0.57,0.57,1.01,1.24,1.33,2c0.33,0.77,0.49,1.58,0.49,2.46
		c0,3.1-0.59,6.08-1.77,8.9c-1.18,2.83-2.87,5.35-5.05,7.53c-0.54,0.55-1.1,1.04-1.68,1.46c-0.57,0.43-1.16,0.88-1.74,1.36
		c-0.31,0.24-0.53,0.49-0.68,0.76c-0.16,0.26-0.23,0.59-0.23,0.98c0,0.57,0.2,1.06,0.6,1.47c0.4,0.42,0.89,0.63,1.48,0.63
		c0.24,0,0.44-0.03,0.62-0.1c0.17-0.07,0.34-0.15,0.52-0.26c1.88-1.22,3.57-2.68,5.07-4.36c1.49-1.69,2.76-3.51,3.8-5.48
		c1.04-1.96,1.83-4.04,2.39-6.23c0.55-2.18,0.83-4.4,0.83-6.66c0-1.45-0.27-2.8-0.83-4.07c-0.56-1.27-1.3-2.38-2.24-3.33
		c-0.94-0.95-2.04-1.7-3.3-2.26c-1.26-0.56-2.6-0.83-4.03-0.83C56.06,54.8,54.71,55.08,53.45,55.64"/>
</g>
</svg>
