<?xml version="1.0" encoding="utf-8"?>
<!-- Generator: Adobe Illustrator 16.0.0, SVG Export Plug-In . SVG Version: 6.00 Build 0)  -->
<!DOCTYPE svg PUBLIC "-//W3C//DTD SVG 1.1//EN" "http://www.w3.org/Graphics/SVG/1.1/DTD/svg11.dtd">
<svg version="1.1" id="Ebene_1" xmlns="http://www.w3.org/2000/svg" xmlns:xlink="http://www.w3.org/1999/xlink" x="0px" y="0px"
	 width="271.88px" height="156px" viewBox="0 0 271.88 156" style="enable-background:new 0 0 271.88 156;" xml:space="preserve">
<style type="text/css">
<![CDATA[
	.st0{clip-path:url(#SVGID_6_);fill:#FFFFFF;}
	.st1{clip-path:url(#SVGID_8_);fill:#FFFFFF;}
	.st2{fill:#FFFFFF;}
	.st3{clip-path:url(#SVGID_2_);fill:#FFFFFF;}
	.st4{fill:#006EB8;}
	.st5{clip-path:url(#SVGID_4_);fill:#FFFFFF;}
]]>
</style>
<rect class="st4" width="271.88" height="156"/>
<g>
	<defs>
		<rect id="SVGID_1_" width="271.88" height="156"/>
	</defs>
	<clipPath id="SVGID_2_">
		<use xlink:href="#SVGID_1_"  style="overflow:visible;"/>
	</clipPath>
	<path class="st3" d="M104.5,65.77c3.17,0,5.94,0.99,8.4,2.82l-1.53,2.21c-1.8-1.48-4.85-2.27-7.13-2.27
		c-6.43,0-10.22,4.54-10.22,10.95c0,6.9,4.54,11.24,10.22,11.24c2.47,0,4.89-0.59,6.91-1.97l1.45,2.19
		c-2.42,1.65-5.65,2.55-8.56,2.55c-9.56,0-14.42-6.55-14.42-13.93C89.63,72.81,94.92,65.77,104.5,65.77"/>
</g>
<polygon class="st2" points="132.52,66.22 136.65,66.22 136.65,93.03 132.52,93.03 132.52,79.76 119.54,79.76 119.54,93.03 
	115.41,93.03 115.41,66.22 119.54,66.22 119.54,77 132.52,77 "/>
<g>
	<defs>
		<rect id="SVGID_3_" width="271.88" height="156"/>
	</defs>
	<clipPath id="SVGID_4_">
		<use xlink:href="#SVGID_3_"  style="overflow:visible;"/>
	</clipPath>
	<path class="st5" d="M158.43,65.04c5.81,1.92,10,7.4,10,13.85c0,8.06-6.53,14.59-14.59,14.59c-6.52,0-12.04-4.27-13.91-10.17
		c2.3,4.16,6.74,6.98,11.83,6.98c7.46,0,13.51-6.05,13.51-13.51C165.26,71.75,162.51,67.36,158.43,65.04"/>
	<path class="st5" d="M151.76,65.78c5.04,0,9.29,3.39,10.59,8.01c-1.73-2.88-4.89-4.82-8.51-4.82c-5.48,0-9.92,4.44-9.92,9.92
		c0,3.57,1.88,6.7,4.71,8.44c-4.55-1.34-7.88-5.56-7.88-10.55C140.76,70.71,145.68,65.78,151.76,65.78"/>
</g>
<polygon class="st2" points="178.25,68.99 178.25,93.03 174.12,93.03 174.12,68.99 167.69,68.99 167.69,66.22 184.72,66.22 
	184.72,68.99 "/>
<polygon class="st2" points="197.21,68.99 197.21,93.03 193.08,93.03 193.08,68.99 186.65,68.99 186.65,66.22 203.68,66.22 
	203.68,68.99 "/>
<g>
	<defs>
		<rect id="SVGID_5_" width="271.88" height="156"/>
	</defs>
	<clipPath id="SVGID_6_">
		<use xlink:href="#SVGID_5_"  style="overflow:visible;"/>
	</clipPath>
	<path class="st0" d="M78.49,65.77c2.98,0,6.1,1.01,8.46,2.84l-1.39,2.29c-1.93-1.35-4.42-2.31-6.84-2.31
		c-4.38,0-6.28,1.74-6.28,3.94c0,2.03,2.47,3.26,7.36,4.94c4.24,1.46,8.53,3.39,8.19,8.58c-0.28,4.32-4.74,7.44-10.36,7.44
		c-3.15,0-6.88-1.2-9.43-3.13l1.65-2.42c2.22,1.62,4.84,2.73,7.71,2.73c3.41,0,6.3-1.7,6.3-4.7c0-3.21-5.9-4.58-8.18-5.45
		c-4.77-1.81-7.44-3.9-7.25-7.75C68.64,68.47,72.66,65.77,78.49,65.77"/>
	<path class="st0" d="M66.47,109.71c0-1.35-0.84-2.61-2.46-2.61c-1.72,0-2.43,1.18-2.43,2.7c0,1.54,0.76,2.99,2.33,2.99
		C65.71,112.78,66.47,111.31,66.47,109.71 M67.95,113.27c0,2.74-1.97,3.85-4.2,3.85c-1.22,0-2.44-0.2-3.4-0.72l0.41-0.85
		c1.01,0.5,1.93,0.65,2.96,0.65c1.7,0,2.74-0.95,2.74-2.83v-0.98h-0.03c-0.58,0.7-1.45,1.31-2.76,1.31c-2.28,0-3.7-1.55-3.7-3.85
		c0-1.87,1.59-3.68,3.95-3.68c0.99,0,2.05,0.43,2.51,1.17h0.03v-0.99h1.49V113.27z"/>
</g>
<rect x="70.98" y="102.97" class="st2" width="1.49" height="10.56"/>
<g>
	<defs>
		<rect id="SVGID_7_" width="271.88" height="156"/>
	</defs>
	<clipPath id="SVGID_8_">
		<use xlink:href="#SVGID_7_"  style="overflow:visible;"/>
	</clipPath>
	<path class="st1" d="M78.44,109.68c-1.3,0.34-1.98,0.89-1.98,1.79c0,0.75,0.59,1.22,1.19,1.22c1.06,0,2.41-1.14,2.21-3.38
		L78.44,109.68z M79.33,112.76c-0.58,0.5-1.31,0.95-2.07,0.95c-1.39,0-2.35-0.86-2.35-2.21c0-1.25,1.22-2.04,2.94-2.49l2-0.54
		c-0.07-0.88-0.84-1.44-1.65-1.44c-0.96,0-1.57,0.34-2.16,0.78l-0.58-0.64c0.83-0.69,1.67-0.98,2.82-0.98
		c1.24,0,3.06,0.35,3.06,2.44v3.16c0,0.54,0.08,1.24,0.36,1.75h-1.62c-0.2-0.3-0.23-0.76-0.23-1.22L79.33,112.76z"/>
	<path class="st1" d="M88.28,107.5c-0.59-0.34-1.07-0.46-1.52-0.46c-0.53,0-1.21,0.22-1.21,0.82c0,0.6,0.76,0.9,1.7,1.52
		c1.06,0.7,1.75,1.29,1.75,2.3c0,1.2-1.37,2.02-2.89,2.02c-0.94,0-2-0.36-2.54-0.9l0.73-0.73c0.48,0.38,1.12,0.71,1.78,0.71
		c0.69,0,1.41-0.31,1.41-1.02c0-0.83-0.86-1.19-1.63-1.68c-0.94-0.59-1.77-1.08-1.77-2.05c0-1.14,1.29-1.85,2.74-1.85
		c0.81,0,1.6,0.29,2.03,0.66L88.28,107.5z"/>
	<path class="st1" d="M95.37,107.5c-0.6-0.34-1.08-0.46-1.52-0.46c-0.53,0-1.21,0.22-1.21,0.82c0,0.6,0.76,0.9,1.7,1.52
		c1.06,0.7,1.75,1.29,1.75,2.3c0,1.2-1.37,2.02-2.89,2.02c-0.94,0-2-0.36-2.54-0.9l0.73-0.73c0.48,0.38,1.12,0.71,1.79,0.71
		c0.69,0,1.4-0.31,1.4-1.02c0-0.83-0.86-1.19-1.64-1.68c-0.94-0.59-1.77-1.08-1.77-2.05c0-1.14,1.29-1.85,2.74-1.85
		c0.81,0,1.6,0.29,2.03,0.66L95.37,107.5z"/>
	<path class="st1" d="M105.44,107.24c0.68-0.69,1.67-1.06,2.58-1.06c1.3,0,2.11,0.48,2.63,1.06c0.79-0.63,1.92-1.06,2.84-1.06
		c1.83,0,2.76,1.04,2.81,2.56v4.8h-1.48v-4.28c0-1.04-0.3-2.07-1.82-2.07c-1.26,0-2.12,0.58-2.12,2.03v4.32h-1.49v-4.28
		c0-1.35-0.66-2.07-1.87-2.07c-1.26,0-2.07,0.7-2.07,2.08v4.26h-1.48v-7.18h1.47V107.24z"/>
	<path class="st1" d="M122.35,109.68c-1.3,0.34-1.98,0.89-1.98,1.79c0,0.75,0.59,1.22,1.19,1.22c1.06,0,2.41-1.14,2.21-3.38
		L122.35,109.68z M123.25,112.76c-0.58,0.5-1.31,0.95-2.07,0.95c-1.39,0-2.34-0.86-2.34-2.21c0-1.25,1.22-2.04,2.94-2.49l2-0.54
		c-0.06-0.88-0.84-1.44-1.65-1.44c-0.96,0-1.57,0.34-2.16,0.78l-0.58-0.64c0.83-0.69,1.67-0.98,2.82-0.98
		c1.24,0,3.06,0.35,3.06,2.44v3.16c0,0.54,0.08,1.24,0.36,1.75h-1.62c-0.2-0.3-0.23-0.76-0.23-1.22L123.25,112.76z"/>
	<path class="st1" d="M134.25,109.71c0-1.35-0.84-2.61-2.46-2.61c-1.72,0-2.43,1.18-2.43,2.7c0,1.54,0.76,2.99,2.33,2.99
		C133.49,112.78,134.25,111.31,134.25,109.71 M134.25,112.4h-0.03c-0.58,0.7-1.45,1.31-2.81,1.31c-2.23,0-3.65-1.55-3.65-3.85
		c0-1.87,1.55-3.68,3.82-3.68c1.12,0,2.13,0.38,2.64,1.06h0.03v-4.27h1.49v10.56h-1.49V112.4z"/>
	<path class="st1" d="M144,109.17c0-1.12-0.54-2.07-1.85-2.07c-1.59,0-2.21,1.15-2.26,2.07H144z M139.79,110.03
		c-0.02,1.44,1.16,2.76,2.79,2.76c0.76,0,1.68-0.24,2.26-0.62l0.43,0.7c-0.86,0.53-1.88,0.83-2.74,0.83c-2.58,0-4.28-1.38-4.28-3.91
		c0-2.49,2.05-3.62,3.91-3.62c2.51,0,3.35,1.97,3.19,3.85H139.79z"/>
	<path class="st1" d="M154.28,109.85c0,1.35,0.53,2.93,2.46,2.93c1.95,0,2.48-1.58,2.48-2.93c0-1.29-0.61-2.76-2.48-2.76
		C154.9,107.1,154.28,108.56,154.28,109.85 M152.68,109.85c0-2.32,1.98-3.68,4.07-3.68c2.08,0,4.08,1.35,4.08,3.68
		c0,2.23-1.63,3.85-4.08,3.85C154.32,113.71,152.68,112.08,152.68,109.85"/>
	<path class="st1" d="M163.5,113.53v-6.44h-1.32v-0.75h1.32v-0.87c0-1.93,1.49-2.5,2.41-2.5c0.43,0,0.94,0.07,1.3,0.3l-0.33,0.66
		c-0.25-0.06-0.48-0.1-0.81-0.1c-0.25,0-1.09,0.06-1.09,1.22v1.29h1.98v0.75h-1.98v6.44H163.5z"/>
	<path class="st1" d="M174.17,103.98c0-0.36,0.34-0.76,0.94-0.76c0.6,0,0.94,0.4,0.94,0.76c0,0.39-0.21,0.88-0.94,0.88
		C174.38,104.86,174.17,104.37,174.17,103.98 M175.85,113.53h-1.49v-7.18h1.49V113.53z"/>
	<path class="st1" d="M184.72,109.71c0-1.35-0.84-2.61-2.46-2.61c-1.72,0-2.43,1.18-2.43,2.7c0,1.54,0.76,2.99,2.33,2.99
		C183.96,112.78,184.72,111.31,184.72,109.71 M184.72,112.4h-0.03c-0.58,0.7-1.46,1.31-2.81,1.31c-2.23,0-3.65-1.55-3.65-3.85
		c0-1.87,1.55-3.68,3.81-3.68c1.12,0,2.13,0.38,2.65,1.06h0.03v-4.27h1.49v10.56h-1.49V112.4z"/>
	<path class="st1" d="M194.48,109.17c0-1.12-0.54-2.07-1.85-2.07c-1.58,0-2.21,1.15-2.26,2.07H194.48z M190.27,110.03
		c-0.01,1.44,1.16,2.76,2.79,2.76c0.76,0,1.69-0.24,2.27-0.62l0.43,0.7c-0.86,0.53-1.88,0.83-2.74,0.83c-2.58,0-4.28-1.38-4.28-3.91
		c0-2.49,2.05-3.62,3.92-3.62c2.51,0,3.35,1.97,3.19,3.85H190.27z"/>
	<path class="st1" d="M201.34,109.68c-1.31,0.34-1.99,0.89-1.99,1.79c0,0.75,0.6,1.22,1.19,1.22c1.05,0,2.41-1.14,2.21-3.38
		L201.34,109.68z M202.23,112.76c-0.58,0.5-1.3,0.95-2.06,0.95c-1.39,0-2.35-0.86-2.35-2.21c0-1.25,1.22-2.04,2.94-2.49l2-0.54
		c-0.07-0.88-0.84-1.44-1.65-1.44c-0.96,0-1.57,0.34-2.16,0.78l-0.58-0.64c0.82-0.69,1.67-0.98,2.83-0.98
		c1.24,0,3.06,0.35,3.06,2.44v3.16c0,0.54,0.08,1.24,0.36,1.75h-1.62c-0.2-0.3-0.23-0.76-0.23-1.22L202.23,112.76z"/>
	<path class="st1" d="M211.18,107.5c-0.59-0.34-1.07-0.46-1.52-0.46c-0.53,0-1.21,0.22-1.21,0.82c0,0.6,0.76,0.9,1.7,1.52
		c1.06,0.7,1.75,1.29,1.75,2.3c0,1.2-1.37,2.02-2.89,2.02c-0.94,0-2-0.36-2.55-0.9l0.73-0.73c0.48,0.38,1.12,0.71,1.78,0.71
		c0.69,0,1.4-0.31,1.4-1.02c0-0.83-0.86-1.19-1.64-1.68c-0.94-0.59-1.77-1.08-1.77-2.05c0-1.14,1.29-1.85,2.74-1.85
		c0.81,0,1.6,0.29,2.03,0.66L211.18,107.5z"/>
</g>
</svg>
