<?xml version="1.0" encoding="UTF-8" standalone="no"?>
<!DOCTYPE svg PUBLIC "-//W3C//DTD SVG 1.1//EN" "http://www.w3.org/Graphics/SVG/1.1/DTD/svg11.dtd">
<svg width="100%" height="100%" viewBox="0 0 242 242" version="1.1" xmlns="http://www.w3.org/2000/svg" xmlns:xlink="http://www.w3.org/1999/xlink" xml:space="preserve" xmlns:serif="http://www.serif.com/" style="fill-rule:evenodd;clip-rule:evenodd;">
    <g transform="matrix(0.24,0,0,0.24,-175.215,-162.595)">
        <g transform="matrix(1,0,0,1,1233.69,681.602)">
            <path d="M0,999C275.866,999 499.5,775.366 499.5,499.5C499.5,223.634 275.866,0 0,0C-275.866,0 -499.5,223.634 -499.5,499.5C-499.5,775.366 -275.866,999 0,999" style="fill:white;fill-rule:nonzero;"/>
        </g>
        <g transform="matrix(1,0,0,1,1233.69,681.602)">
            <path d="M0,999C275.866,999 499.5,775.366 499.5,499.5C499.5,223.634 275.866,0 0,0C-275.866,0 -499.5,223.634 -499.5,499.5C-499.5,775.366 -275.866,999 0,999Z" style="fill:none;fill-rule:nonzero;stroke:white;stroke-width:2px;"/>
        </g>
        <g transform="matrix(1,0,0,1,898.697,1437.52)">
            <path d="M0,219.02C60.384,219.02 109.51,169.894 109.51,109.51C109.51,49.126 60.384,0 0,0C-60.384,0 -109.51,49.126 -109.51,109.51C-109.51,169.894 -60.384,219.02 0,219.02" style="fill:rgb(0,118,192);fill-rule:nonzero;"/>
        </g>
        <g transform="matrix(1,0,0,1,898.697,1437.52)">
            <path d="M0,219.02C60.384,219.02 109.51,169.894 109.51,109.51C109.51,49.126 60.384,0 0,0C-60.384,0 -109.51,49.126 -109.51,109.51C-109.51,169.894 -60.384,219.02 0,219.02Z" style="fill:none;fill-rule:nonzero;stroke:white;stroke-width:7px;"/>
        </g>
        <g transform="matrix(1,0,0,1,946.858,1531.09)">
            <path d="M0,0.306C-1.737,0.306 -3.18,-1.225 -3.18,-3.004C-3.18,-4.773 -1.737,-6.293 0,-6.293C1.736,-6.293 3.168,-4.773 3.168,-3.004C3.168,-1.225 1.736,0.306 0,0.306M0,0.935C2.116,0.935 3.841,-0.835 3.841,-3.004C3.841,-5.152 2.116,-6.921 0,-6.921C-2.127,-6.921 -3.853,-5.152 -3.853,-3.004C-3.853,-0.835 -2.127,0.935 0,0.935M-1.53,-1.04L-0.771,-1.04L-0.771,-2.777L0.065,-2.777L1.367,-0.965L2.137,-1.148L0.76,-2.939C1.291,-3.189 1.692,-3.547 1.692,-4.155C1.692,-4.881 0.976,-5.239 0.065,-5.239L-1.53,-5.239L-1.53,-1.04ZM-0.771,-4.816L-0.087,-4.816C0.423,-4.816 0.879,-4.621 0.879,-4.111C0.879,-3.753 0.672,-3.2 -0.315,-3.2L-0.771,-3.2L-0.771,-4.816ZM-5.967,-6.027L-7.456,-6.027L-7.456,4.36L-7.493,4.36C-8.368,3.056 -13.17,-2.638 -16.037,-6.027L-17.377,-6.027L-17.377,7.002L-15.888,7.002L-15.888,-3.364L-15.85,-3.364C-15.069,-2.229 -10.21,3.615 -7.381,7.002L-5.967,7.002L-5.967,-6.027ZM-26.627,5.923C-29.997,5.923 -31.15,2.815 -31.15,0.265C-31.15,-2.174 -29.848,-4.947 -26.627,-4.947C-23.408,-4.947 -22.104,-2.174 -22.104,0.265C-22.104,2.815 -23.259,5.923 -26.627,5.923M-26.627,7.227C-22.607,7.227 -20.113,4.156 -20.113,0.265C-20.113,-3.383 -22.867,-6.25 -26.627,-6.25C-30.387,-6.25 -33.142,-3.383 -33.142,0.265C-33.142,4.156 -30.649,7.227 -26.627,7.227M-37.312,7.002L-35.506,7.002L-35.506,-6.027L-37.312,-6.027L-37.312,7.002ZM-48.312,7.002L-46.507,7.002L-46.507,1.606L-44.59,1.606L-41.574,7.227L-39.75,6.668L-42.989,1.121C-41.742,0.321 -40.811,-0.759 -40.811,-2.676C-40.811,-4.928 -42.468,-6.027 -44.59,-6.027L-48.312,-6.027L-48.312,7.002ZM-46.507,-4.724L-44.962,-4.724C-43.753,-4.724 -42.747,-4.109 -42.747,-2.508C-42.747,-1.41 -43.175,0.303 -45.483,0.303L-46.507,0.303L-46.507,-4.724ZM-51.793,-6.027L-58.215,-6.027L-58.215,7.002L-50.992,7.002L-50.992,5.701L-56.409,5.701L-56.409,0.786L-51.887,0.786L-51.887,-0.516L-56.409,-0.516L-56.409,-4.724L-51.793,-4.724L-51.793,-6.027ZM-64.339,7.002L-64.339,-4.724L-60.151,-4.724L-60.151,-6.027L-70.314,-6.027L-70.314,-4.724L-66.144,-4.724L-66.144,7.002L-64.339,7.002ZM-70.835,6.817L-75.6,-0.275L-72.026,-5.99L-73.701,-6.212L-76.474,-1.485L-79.509,-6.212L-81.426,-5.803L-77.554,-0.088L-81.798,6.855L-80.142,7.189L-76.642,1.121L-72.79,7.189L-70.835,6.817ZM-83.864,-6.027L-90.286,-6.027L-90.286,7.002L-83.064,7.002L-83.064,5.701L-88.48,5.701L-88.48,0.786L-83.957,0.786L-83.957,-0.516L-88.48,-0.516L-88.48,-4.724L-83.864,-4.724L-83.864,-6.027ZM-94.064,-6.027L-95.553,-6.027L-95.553,4.36L-95.59,4.36C-96.465,3.056 -101.268,-2.638 -104.135,-6.027L-105.475,-6.027L-105.475,7.002L-103.985,7.002L-103.985,-3.364L-103.949,-3.364C-103.167,-2.229 -98.308,3.615 -95.479,7.002L-94.064,7.002L-94.064,-6.027Z" style="fill:white;fill-rule:nonzero;"/>
        </g>
        <g transform="matrix(1,0,0,1,976.293,1556.72)">
            <path d="M0,6.429C0,7.018 0.505,7.508 1.096,7.508C1.654,7.508 2.159,6.986 2.159,6.429C2.159,5.855 1.654,5.348 1.081,5.348C0.505,5.348 0,5.838 0,6.429M-2.513,-0.555C-2.952,-0.993 -3.762,-1.331 -4.588,-1.331C-6.073,-1.331 -7.388,-0.488 -7.388,0.844C-7.388,1.992 -6.545,2.565 -5.584,3.257C-4.791,3.831 -3.914,4.252 -3.914,5.23C-3.914,6.057 -4.638,6.429 -5.347,6.429C-6.022,6.429 -6.68,6.04 -7.169,5.585L-7.911,6.444C-7.355,7.087 -6.275,7.508 -5.313,7.508C-3.762,7.508 -2.363,6.547 -2.363,5.129C-2.363,3.949 -3.071,3.257 -4.15,2.43C-5.112,1.706 -5.887,1.351 -5.887,0.642C-5.887,-0.067 -5.196,-0.319 -4.656,-0.319C-4.2,-0.319 -3.711,-0.183 -3.104,0.221L-2.513,-0.555ZM-11.471,7.306L-9.952,7.306L-9.952,-5.093L-11.471,-5.093L-11.471,-0.082L-11.504,-0.082C-12.027,-0.892 -13.056,-1.331 -14.203,-1.331C-16.515,-1.331 -18.1,0.795 -18.1,2.987C-18.1,5.686 -16.65,7.508 -14.371,7.508C-12.987,7.508 -12.095,6.799 -11.504,5.973L-11.471,5.973L-11.471,7.306ZM-14.086,6.429C-15.686,6.429 -16.464,4.725 -16.464,2.92C-16.464,1.132 -15.738,-0.252 -13.984,-0.252C-12.33,-0.252 -11.471,1.233 -11.471,2.819C-11.471,4.691 -12.246,6.429 -14.086,6.429M-26.315,-1.129L-27.816,-1.129L-27.816,7.306L-26.298,7.306L-26.298,2.228C-26.298,0.609 -25.202,-0.218 -24.003,-0.218C-22.637,-0.218 -21.963,0.609 -21.963,2.194L-21.963,7.306L-20.445,7.306L-20.445,1.874C-20.445,-0.252 -21.49,-1.331 -23.429,-1.331C-24.308,-1.331 -25.522,-0.927 -26.315,-0.082L-26.315,-1.129ZM-32.202,2.363C-31.999,4.994 -33.383,6.328 -34.463,6.328C-35.07,6.328 -35.677,5.771 -35.677,4.893C-35.677,3.831 -34.985,3.19 -33.652,2.785L-32.202,2.363ZM-32.202,5.872C-32.202,6.412 -32.168,6.951 -31.966,7.306L-30.312,7.306C-30.599,6.698 -30.684,5.888 -30.684,5.247L-30.684,1.536C-30.684,-0.927 -32.539,-1.331 -33.804,-1.331C-34.985,-1.331 -35.845,-0.993 -36.689,-0.183L-36.098,0.575C-35.491,0.069 -34.867,-0.336 -33.889,-0.336C-33.063,-0.336 -32.27,0.322 -32.202,1.351L-34.243,1.992C-35.997,2.516 -37.246,3.442 -37.246,4.91C-37.246,6.496 -36.267,7.508 -34.851,7.508C-34.074,7.508 -33.332,6.986 -32.741,6.395L-32.202,5.872ZM-45.46,-5.093L-46.962,-5.093L-46.962,7.306L-45.444,7.306L-45.444,2.228C-45.444,0.609 -44.347,-0.218 -43.15,-0.218C-41.783,-0.218 -41.108,0.609 -41.108,2.194L-41.108,7.306L-39.59,7.306L-39.59,1.874C-39.59,-0.252 -40.636,-1.331 -42.576,-1.331C-43.453,-1.331 -44.668,-0.927 -45.46,-0.082L-45.46,-5.093ZM-57.032,-1.129L-58.516,-1.129L-58.516,7.306L-56.998,7.306L-56.998,2.767C-56.998,0.896 -56.357,0.12 -55.581,0.12C-55.194,0.12 -54.822,0.288 -54.451,0.474L-53.759,-0.505C-54.232,-1.062 -54.789,-1.331 -55.159,-1.331C-55.514,-1.331 -56.071,-1.077 -56.425,-0.725L-57.032,-0.082L-57.032,-1.129ZM-62.936,7.306L-61.435,7.306L-61.435,-1.129L-62.953,-1.129L-62.953,3.797C-62.953,5.434 -63.914,6.395 -65.079,6.395C-66.445,6.395 -67.119,5.55 -67.119,3.966L-67.119,-1.129L-68.638,-1.129L-68.638,4.304C-68.638,6.429 -67.592,7.508 -65.651,7.508C-64.555,7.508 -63.796,7.07 -62.936,6.328L-62.936,7.306ZM-75.081,-0.252C-73.175,-0.252 -72.551,1.469 -72.551,2.987C-72.551,4.573 -73.091,6.429 -75.081,6.429C-77.055,6.429 -77.595,4.573 -77.595,2.987C-77.595,1.469 -76.971,-0.252 -75.081,-0.252M-75.081,7.508C-72.585,7.508 -70.915,5.602 -70.915,2.987C-70.915,0.255 -72.956,-1.331 -75.081,-1.331C-77.206,-1.331 -79.231,0.255 -79.231,2.987C-79.231,5.602 -77.561,7.508 -75.081,7.508M-88.526,-0.875L-85.22,6.833C-86.417,10.173 -87.159,10.443 -88.205,10.443L-88.796,10.443L-88.796,11.522L-88.036,11.522C-86.585,11.522 -85.54,10.579 -84.747,8.791L-80.412,-0.976L-81.745,-1.297C-82.639,0.844 -83.516,3.004 -84.393,5.55L-84.427,5.55C-85.27,3.004 -86.147,0.844 -87.008,-1.297L-88.526,-0.875ZM-101.481,-1.129L-102.982,-1.129L-102.982,7.306L-101.464,7.306L-101.464,2.228C-101.464,0.609 -100.367,-0.218 -99.17,-0.218C-97.803,-0.218 -97.128,0.609 -97.128,2.194L-97.128,7.306L-95.61,7.306L-95.61,1.874C-95.61,-0.252 -96.656,-1.331 -98.596,-1.331C-99.473,-1.331 -100.688,-0.927 -101.481,-0.082L-101.481,-1.129ZM-106.659,-2.882C-105.916,-2.882 -105.697,-3.456 -105.697,-3.912C-105.697,-4.333 -106.052,-4.806 -106.659,-4.806C-107.266,-4.806 -107.621,-4.333 -107.621,-3.912C-107.621,-3.456 -107.401,-2.882 -106.659,-2.882M-107.418,7.306L-105.9,7.306L-105.9,-1.129L-107.418,-1.129L-107.418,7.306ZM-120.558,2.178C-120.508,1.098 -119.866,-0.252 -118.247,-0.252C-116.915,-0.252 -116.358,0.861 -116.358,2.178L-120.558,2.178ZM-114.974,3.19C-114.806,0.98 -115.666,-1.331 -118.23,-1.331C-120.136,-1.331 -122.228,0.002 -122.228,2.92C-122.228,5.888 -120.491,7.508 -117.859,7.508C-116.982,7.508 -115.936,7.153 -115.059,6.53L-115.498,5.703C-116.088,6.141 -117.033,6.429 -117.809,6.429C-119.479,6.429 -120.676,4.877 -120.659,3.19L-114.974,3.19ZM-126.462,-1.129L-127.946,-1.129L-127.946,7.306L-126.428,7.306L-126.428,2.767C-126.428,0.896 -125.788,0.12 -125.011,0.12C-124.623,0.12 -124.252,0.288 -123.882,0.474L-123.19,-0.505C-123.662,-1.062 -124.219,-1.331 -124.59,-1.331C-124.944,-1.331 -125.501,-1.077 -125.855,-0.725L-126.462,-0.082L-126.462,-1.129ZM-132.366,7.306L-130.865,7.306L-130.865,-1.129L-132.383,-1.129L-132.383,3.797C-132.383,5.434 -133.344,6.395 -134.508,6.395C-135.875,6.395 -136.55,5.55 -136.55,3.966L-136.55,-1.129L-138.068,-1.129L-138.068,4.304C-138.068,6.429 -137.022,7.508 -135.082,7.508C-133.986,7.508 -133.226,7.07 -132.366,6.328L-132.366,7.306ZM-142.369,-3.658L-143.887,-3.153L-143.887,-1.129L-145.068,-1.129L-145.068,-0.252L-143.887,-0.252L-143.887,4.809C-143.887,6.53 -143.077,7.508 -141.39,7.508C-140.818,7.508 -140.193,7.306 -139.67,6.968L-140.041,6.124C-140.328,6.277 -140.649,6.412 -141.205,6.412C-142.133,6.412 -142.369,5.703 -142.369,4.523L-142.369,-0.252L-140.159,-0.252L-140.159,-1.129L-142.369,-1.129L-142.369,-3.658ZM-148.661,7.306L-147.16,7.306L-147.16,-1.129L-148.678,-1.129L-148.678,3.797C-148.678,5.434 -149.64,6.395 -150.804,6.395C-152.169,6.395 -152.844,5.55 -152.844,3.966L-152.844,-1.129L-154.362,-1.129L-154.362,4.304C-154.362,6.429 -153.317,7.508 -151.377,7.508C-150.281,7.508 -149.522,7.07 -148.661,6.328L-148.661,7.306ZM-156.842,-4.503L-162.662,-4.503L-162.662,7.306L-161.025,7.306L-161.025,2.346L-156.926,2.346L-156.926,1.166L-161.025,1.166L-161.025,-3.321L-156.842,-3.321L-156.842,-4.503Z" style="fill:white;fill-rule:nonzero;"/>
        </g>
        <g transform="matrix(1,0,0,1,1107.49,1520.22)">
            <path d="M0,15.749L0,0L5.633,0C8.26,0 10.108,1.215 10.108,3.352C10.108,5.872 8.082,6.906 6.991,7.2L6.991,7.244C8.928,7.334 11.087,8.684 11.087,11.092C11.087,13.813 8.839,15.749 5.165,15.749L0,15.749ZM3.139,6.57L4.119,6.57C5.923,6.57 7.147,5.399 7.147,3.937C7.147,2.542 6.123,1.934 4.765,1.934L3.139,1.934L3.139,6.57ZM3.139,13.813L4.742,13.813C6.479,13.813 7.792,12.891 7.792,11.137C7.792,9.292 6.435,8.504 4.72,8.504L3.139,8.504L3.139,13.813Z" style="fill-rule:nonzero;"/>
        </g>
        <g transform="matrix(1,0,0,1,1121.26,1534.24)">
            <path d="M0,-12.893C0,-13.748 0.712,-14.625 1.715,-14.625C2.739,-14.625 3.54,-13.77 3.54,-12.893C3.54,-11.925 2.85,-11.003 1.759,-11.003C0.712,-11.003 0,-11.925 0,-12.893M3.251,1.732L0.29,1.732L0.29,-9.517L3.251,-9.517L3.251,1.732Z" style="fill-rule:nonzero;"/>
        </g>
        <g transform="matrix(1,0,0,1,1127.34,1530.48)">
            <path d="M0,-0.27C0,-3.915 2.85,-6.03 5.833,-6.03C8.839,-6.03 11.689,-3.915 11.689,-0.27C11.689,3.218 9.329,5.76 5.833,5.76C2.36,5.76 0,3.218 0,-0.27M8.549,-0.27C8.549,-2.137 7.904,-4.365 5.833,-4.365C3.807,-4.365 3.139,-2.137 3.139,-0.27C3.139,1.709 3.719,4.095 5.833,4.095C7.993,4.095 8.549,1.709 8.549,-0.27" style="fill-rule:nonzero;"/>
        </g>
        <g transform="matrix(1,0,0,1,733.187,1379.63)">
            <rect x="408.113" y="150.019" width="5.544" height="1.936"/>
        </g>
        <g transform="matrix(1,0,0,1,1152.66,1533.72)">
            <path d="M0,-7.02L0.044,-7.02L0.645,-7.897C1.001,-8.369 1.647,-9.27 2.56,-9.27C3.228,-9.27 3.94,-8.91 4.564,-8.257L3.45,-6.187C2.961,-6.435 2.649,-6.57 2.048,-6.57C1.024,-6.57 0.022,-5.738 0.022,-3.307L0.022,2.25L-2.939,2.25L-2.939,-8.999L0,-8.999L0,-7.02Z" style="fill-rule:nonzero;"/>
        </g>
        <g transform="matrix(1,0,0,1,1161.63,1530.07)">
            <path d="M0,0.54C-0.067,2.655 1.402,4.23 3.251,4.23C4.341,4.23 5.499,3.847 6.233,3.329L7.08,4.905C5.565,5.804 3.985,6.165 2.716,6.165C-0.646,6.165 -3.161,3.758 -3.161,0.044C-3.161,-3.42 -0.669,-5.625 2.515,-5.625C5.988,-5.625 7.436,-2.812 7.213,0.54L0,0.54ZM4.43,-1.08C4.541,-2.79 3.94,-3.96 2.471,-3.96C0.779,-3.96 0.022,-2.587 0.044,-1.08L4.43,-1.08Z" style="fill-rule:nonzero;"/>
        </g>
        <g transform="matrix(1,0,0,1,1177.2,1525.8)">
            <path d="M0,9.088C-0.824,9.741 -1.826,10.439 -2.85,10.439C-4.586,10.439 -6.033,9.088 -6.033,7.018C-6.033,4.881 -4.497,3.666 -1.914,2.923L0.712,2.137C0.557,1.102 -0.356,0.448 -1.313,0.448C-2.582,0.448 -3.473,0.92 -4.252,1.596L-5.209,0.179C-3.829,-0.968 -2.471,-1.351 -0.935,-1.351C1.113,-1.351 3.629,-0.676 3.629,2.834L3.629,7.423C3.629,8.323 3.741,9.38 4.097,10.168L0.957,10.168C0.735,9.785 0.669,9.133 0.669,8.525L0,9.088ZM-0.935,4.183C-2.382,4.634 -3.117,5.489 -3.117,6.771C-3.117,7.761 -2.493,8.436 -1.781,8.436C-0.6,8.436 0.935,6.951 0.712,3.644L-0.935,4.183Z" style="fill-rule:nonzero;"/>
        </g>
        <g transform="matrix(1,0,0,1,1192.03,1521.32)">
            <path d="M0,13.027L-0.045,13.027C-0.779,13.971 -1.937,14.917 -3.673,14.917C-6.59,14.917 -8.527,12.486 -8.527,8.887C-8.527,5.962 -6.434,3.127 -3.451,3.127C-2.003,3.127 -0.712,3.712 -0.045,4.702L0,4.702L0,-1.89L2.961,-1.89L2.961,14.647L0,14.647L0,13.027ZM-5.388,8.82C-5.388,11.002 -4.542,13.116 -2.828,13.116C-0.846,13.116 0,10.957 0,8.707C0,6.75 -0.913,4.927 -2.694,4.927C-4.608,4.927 -5.388,6.637 -5.388,8.82" style="fill-rule:nonzero;"/>
        </g>
        <g transform="matrix(1,0,0,1,1199.96,1541.6)">
            <path d="M0,-17.1C0.957,-14.512 1.937,-11.903 2.872,-8.776L2.916,-8.776C3.918,-11.903 4.942,-14.512 5.966,-17.1L8.482,-16.628L2.983,-4.118C2.382,-2.746 1.002,0 -1.892,0L-3.139,0L-3.139,-2.003L-2.36,-2.003C-1.002,-2.003 0.089,-2.588 1.269,-6.323L-2.961,-16.561L0,-17.1Z" style="fill-rule:nonzero;"/>
        </g>
        <g transform="matrix(1,0,0,1,1225.99,1525.33)">
            <path d="M0,10.033C-0.935,10.596 -2.159,10.912 -3.161,10.912C-7.792,10.912 -9.306,7.356 -9.306,5.061C-9.306,1.911 -6.946,-0.879 -3.006,-0.879C-2.115,-0.879 -1.024,-0.653 -0.111,-0.114L-0.824,1.618C-1.135,1.484 -1.469,1.371 -1.803,1.282C-2.137,1.191 -2.471,1.146 -2.805,1.146C-4.475,1.146 -6.167,2.294 -6.167,4.903C-6.167,7.153 -4.898,8.887 -2.783,8.887C-2.093,8.887 -1.336,8.729 -0.6,8.324L0,10.033Z" style="fill-rule:nonzero;"/>
        </g>
        <g transform="matrix(1,0,0,1,1227.75,1530.48)">
            <path d="M0,-0.27C0,-3.915 2.85,-6.03 5.833,-6.03C8.838,-6.03 11.688,-3.915 11.688,-0.27C11.688,3.218 9.328,5.76 5.833,5.76C2.36,5.76 0,3.218 0,-0.27M8.549,-0.27C8.549,-2.137 7.903,-4.365 5.833,-4.365C3.806,-4.365 3.139,-2.137 3.139,-0.27C3.139,1.709 3.718,4.095 5.833,4.095C7.992,4.095 8.549,1.709 8.549,-0.27" style="fill-rule:nonzero;"/>
        </g>
        <g transform="matrix(1,0,0,1,1245.21,1534.37)">
            <path d="M0,-8.324C1.002,-9.404 2.405,-9.922 3.807,-9.922C6.412,-9.922 7.793,-8.482 7.793,-5.647L7.793,1.598L4.831,1.598L4.831,-5.31C4.831,-6.884 4.141,-7.919 2.605,-7.919C1.158,-7.919 0.023,-6.951 0.023,-5.106L0.023,1.598L-2.938,1.598L-2.938,-9.651L0,-9.651L0,-8.324Z" style="fill-rule:nonzero;"/>
        </g>
        <g transform="matrix(1,0,0,1,1262.51,1533.86)">
            <path d="M0,-7.022C-0.668,-7.516 -1.358,-7.741 -1.892,-7.741C-2.56,-7.741 -3.228,-7.358 -3.228,-6.594C-3.228,-5.695 -2.159,-5.177 -0.913,-4.255C0.668,-3.062 1.136,-1.892 1.136,-0.857C1.136,0.719 -0.578,2.384 -3.027,2.384C-4.564,2.384 -5.699,1.843 -6.745,1.1L-5.811,-0.452C-5.143,0.089 -4.185,0.628 -3.384,0.628C-2.538,0.628 -1.781,0.178 -1.781,-0.767C-1.781,-1.824 -2.938,-2.41 -4.007,-3.174C-5.276,-4.051 -6.144,-4.907 -6.144,-6.301C-6.144,-8.079 -4.452,-9.406 -2.27,-9.406C-1.046,-9.406 0.156,-9.092 0.958,-8.371L0,-7.022Z" style="fill-rule:nonzero;"/>
        </g>
        <g transform="matrix(1,0,0,1,1273.58,1526.39)">
            <path d="M0,8.19C-1.046,9.247 -2.137,9.855 -3.54,9.855C-5.922,9.855 -7.302,8.415 -7.302,5.579L-7.302,-1.665L-4.341,-1.665L-4.341,5.152C-4.341,6.727 -3.651,7.762 -2.248,7.762C-1.224,7.762 -0.022,6.885 -0.022,4.838L-0.022,-1.665L2.939,-1.665L2.939,9.585L0,9.585L0,8.19Z" style="fill-rule:nonzero;"/>
        </g>
        <g transform="matrix(1,0,0,1,1282.94,1534.35)">
            <path d="M0,-8.302L0.045,-8.302C0.802,-9.315 2.249,-9.9 3.562,-9.9C4.965,-9.9 6.168,-9.337 6.835,-8.302C7.77,-9.202 9.218,-9.878 10.531,-9.9C13.047,-9.922 14.36,-8.369 14.405,-5.783L14.405,1.598L11.443,1.598L11.443,-5.242C11.443,-6.548 10.999,-7.897 9.529,-7.897C8.104,-7.897 7.214,-7.042 7.214,-5.084L7.214,1.62L4.253,1.62L4.253,-5.242C4.253,-6.817 3.562,-7.897 2.294,-7.897C0.891,-7.897 0.023,-6.929 0.023,-5.017L0.023,1.62L-2.938,1.62L-2.938,-9.629L0,-9.629L0,-8.302Z" style="fill-rule:nonzero;"/>
        </g>
        <g transform="matrix(1,0,0,1,1306.3,1525.8)">
            <path d="M0,9.088C-0.824,9.741 -1.826,10.439 -2.85,10.439C-4.586,10.439 -6.033,9.088 -6.033,7.018C-6.033,4.881 -4.497,3.666 -1.915,2.923L0.713,2.137C0.556,1.102 -0.357,0.448 -1.314,0.448C-2.582,0.448 -3.473,0.92 -4.253,1.596L-5.209,0.179C-3.83,-0.968 -2.471,-1.351 -0.935,-1.351C1.113,-1.351 3.63,-0.676 3.63,2.834L3.63,7.423C3.63,8.323 3.741,9.38 4.096,10.168L0.957,10.168C0.734,9.785 0.669,9.133 0.669,8.525L0,9.088ZM-0.935,4.183C-2.382,4.634 -3.117,5.489 -3.117,6.771C-3.117,7.761 -2.494,8.436 -1.782,8.436C-0.601,8.436 0.935,6.951 0.713,3.644L-0.935,4.183Z" style="fill-rule:nonzero;"/>
        </g>
        <g transform="matrix(1,0,0,1,1313.25,1536.24)">
            <path d="M0,-16.807L2.961,-16.807L2.961,-9.967L3.005,-9.967C3.784,-11.114 5.209,-11.79 6.545,-11.79C10.063,-11.79 11.465,-8.617 11.465,-6.143C11.465,-2.925 9.462,0 6.301,0C4.92,0 3.784,-0.675 2.961,-1.665L2.961,-0.27L0,-0.27L0,-16.807ZM2.961,-5.759C2.961,-3.713 3.762,-1.801 5.765,-1.801C7.658,-1.801 8.325,-4.14 8.325,-6.121C8.325,-8.055 7.48,-9.99 5.811,-9.99C3.94,-9.99 2.961,-8.347 2.961,-5.759" style="fill-rule:nonzero;"/>
        </g>
        <g transform="matrix(1,0,0,1,733.187,1373.8)">
            <rect x="594.381" y="145.632" width="2.961" height="16.537"/>
        </g>
        <g transform="matrix(1,0,0,1,1336.54,1530.07)">
            <path d="M0,0.54C-0.067,2.655 1.403,4.23 3.251,4.23C4.342,4.23 5.499,3.847 6.233,3.329L7.08,4.905C5.566,5.804 3.985,6.165 2.717,6.165C-0.645,6.165 -3.161,3.758 -3.161,0.044C-3.161,-3.42 -0.667,-5.625 2.516,-5.625C5.989,-5.625 7.436,-2.812 7.214,0.54L0,0.54ZM4.431,-1.08C4.542,-2.79 3.941,-3.96 2.471,-3.96C0.78,-3.96 0.022,-2.587 0.045,-1.08L4.431,-1.08Z" style="fill-rule:nonzero;"/>
        </g>
        <g transform="matrix(1,0,0,1,1352.66,1533.86)">
            <path d="M0,-7.022C-0.667,-7.516 -1.358,-7.741 -1.892,-7.741C-2.56,-7.741 -3.227,-7.358 -3.227,-6.594C-3.227,-5.695 -2.159,-5.177 -0.913,-4.255C0.669,-3.062 1.137,-1.892 1.137,-0.857C1.137,0.719 -0.578,2.384 -3.027,2.384C-4.563,2.384 -5.699,1.843 -6.745,1.1L-5.811,-0.452C-5.142,0.089 -4.185,0.628 -3.384,0.628C-2.538,0.628 -1.78,0.178 -1.78,-0.767C-1.78,-1.824 -2.938,-2.41 -4.007,-3.174C-5.275,-4.051 -6.144,-4.907 -6.144,-6.301C-6.144,-8.079 -4.452,-9.406 -2.27,-9.406C-1.046,-9.406 0.156,-9.092 0.958,-8.371L0,-7.022Z" style="fill-rule:nonzero;"/>
        </g>
        <g transform="matrix(-0.999979,0.00651838,0.00651838,0.999979,1358.2,1536.24)">
            <path d="M-0.055,-3.375C-0.924,-3.369 -1.697,-2.576 -1.691,-1.677C-1.685,-0.798 -0.902,0.006 -0.055,0C0.88,-0.006 1.653,-0.777 1.647,-1.699C1.641,-2.621 0.858,-3.381 -0.055,-3.375" style="fill-rule:nonzero;"/>
        </g>
        <g transform="matrix(1,0,0,1,1114.51,1562.21)">
            <path d="M0,-10.396C-0.734,-11.004 -2.404,-11.769 -4.074,-11.769C-7.926,-11.769 -10.196,-8.978 -10.196,-5.288C-10.196,-1.306 -7.481,1.371 -4.074,1.371C-2.382,1.371 -1.046,0.831 -0.133,0.201L0.712,1.507C-0.334,2.226 -2.182,2.947 -4.185,2.947C-9.751,2.947 -12.579,-0.901 -12.579,-5.244C-12.579,-9.203 -9.507,-13.343 -3.918,-13.343C-1.692,-13.343 -0.133,-12.555 0.891,-11.745L0,-10.396Z" style="fill-rule:nonzero;"/>
        </g>
        <g transform="matrix(1,0,0,1,1125.62,1555.22)">
            <path d="M0,8.368C-1.135,9.359 -2.137,9.944 -3.584,9.944C-6.144,9.944 -7.524,8.504 -7.524,5.668L-7.524,-1.576L-5.521,-1.576L-5.521,5.219C-5.521,7.333 -4.63,8.459 -2.827,8.459C-1.291,8.459 -0.022,7.177 -0.022,4.994L-0.022,-1.576L1.982,-1.576L1.982,9.673L0,9.673L0,8.368Z" style="fill-rule:nonzero;"/>
        </g>
        <g transform="matrix(1,0,0,1,1136.55,1563.09)">
            <path d="M0,-7.65C-0.802,-8.189 -1.447,-8.371 -2.048,-8.371C-2.761,-8.371 -3.673,-8.033 -3.673,-7.087C-3.673,-6.143 -2.649,-5.671 -1.38,-4.703C0.045,-3.601 0.979,-2.678 0.979,-1.102C0.979,0.787 -0.868,2.07 -2.916,2.07C-4.185,2.07 -5.61,1.507 -6.345,0.652L-5.365,-0.496C-4.72,0.113 -3.851,0.63 -2.961,0.63C-2.026,0.63 -1.069,0.135 -1.069,-0.968C-1.069,-2.273 -2.227,-2.835 -3.272,-3.601C-4.542,-4.523 -5.655,-5.288 -5.655,-6.818C-5.655,-8.594 -3.918,-9.72 -1.959,-9.72C-0.868,-9.72 0.2,-9.27 0.779,-8.685L0,-7.65Z" style="fill-rule:nonzero;"/>
        </g>
        <g transform="matrix(1,0,0,1,1142.9,1561.78)">
            <path d="M0,-8.145L2.916,-8.145L2.916,-6.975L0,-6.975L0,-0.608C0,0.967 0.312,1.911 1.536,1.911C2.271,1.911 2.694,1.732 3.072,1.53L3.562,2.654C2.872,3.104 2.048,3.375 1.291,3.375C-0.935,3.375 -2.003,2.069 -2.003,-0.226L-2.003,-6.975L-3.562,-6.975L-3.562,-8.145L-2.003,-8.145L-2.003,-10.845L0,-11.52L0,-8.145Z" style="fill-rule:nonzero;"/>
        </g>
        <g transform="matrix(1,0,0,1,1147.8,1559.4)">
            <path d="M0,-0.27C0,-3.915 2.671,-6.03 5.476,-6.03C8.281,-6.03 10.975,-3.915 10.975,-0.27C10.975,3.218 8.772,5.76 5.476,5.76C2.204,5.76 0,3.218 0,-0.27M2.159,-0.27C2.159,1.845 2.872,4.32 5.476,4.32C8.104,4.32 8.816,1.845 8.816,-0.27C8.816,-2.295 7.993,-4.59 5.476,-4.59C2.983,-4.59 2.159,-2.295 2.159,-0.27" style="fill-rule:nonzero;"/>
        </g>
        <g transform="matrix(1,0,0,1,1163.73,1563.22)">
            <path d="M0,-8.19C0.913,-9.27 2.248,-9.855 3.474,-9.855C5.232,-9.855 6.323,-9.112 7.013,-8.19C8.082,-9.18 9.596,-9.855 10.842,-9.855C13.314,-9.855 14.56,-8.235 14.627,-5.85L14.627,1.665L12.623,1.665L12.623,-5.04C12.623,-6.661 12.222,-8.281 10.174,-8.281C8.482,-8.281 7.325,-7.38 7.325,-5.108L7.325,1.665L5.321,1.665L5.321,-5.04C5.321,-7.155 4.43,-8.281 2.805,-8.281C1.113,-8.281 0.023,-7.178 0.023,-5.018L0.023,1.665L-1.982,1.665L-1.982,-9.585L0,-9.585L0,-8.19Z" style="fill-rule:nonzero;"/>
        </g>
        <g transform="matrix(1,0,0,1,1181.81,1563.7)">
            <path d="M0,-13.77C0,-14.333 0.467,-14.962 1.269,-14.962C2.071,-14.962 2.538,-14.333 2.538,-13.77C2.538,-13.162 2.248,-12.397 1.269,-12.397C0.29,-12.397 0,-13.162 0,-13.77M2.271,1.192L0.267,1.192L0.267,-10.057L2.271,-10.057L2.271,1.192Z" style="fill-rule:nonzero;"/>
        </g>
        <g transform="matrix(1,0,0,1,1195.75,1564.01)">
            <path d="M0,-9.495L-6.568,-0.45L0,-0.45L0,0.877L-9.351,0.877L-9.351,0.225L-2.449,-9.068L-8.059,-9.068L-8.059,-10.372L0,-10.372L0,-9.495Z" style="fill-rule:nonzero;"/>
        </g>
        <g transform="matrix(1,0,0,1,1199.58,1559.13)">
            <path d="M0,0.27C-0.022,2.52 1.559,4.59 3.762,4.59C4.787,4.59 6.034,4.207 6.813,3.622L7.391,4.724C6.234,5.556 4.854,6.03 3.696,6.03C0.223,6.03 -2.07,3.869 -2.07,-0.091C-2.07,-3.983 0.69,-5.76 3.206,-5.76C6.59,-5.76 7.726,-2.677 7.503,0.27L0,0.27ZM5.678,-1.081C5.678,-2.835 4.942,-4.32 3.184,-4.32C1.047,-4.32 0.2,-2.521 0.134,-1.081L5.678,-1.081Z" style="fill-rule:nonzero;"/>
        </g>
        <g transform="matrix(1,0,0,1,1217.4,1570.51)">
            <path d="M0,-17.1C1.136,-14.243 2.293,-11.364 3.406,-7.966L3.451,-7.966C4.609,-11.364 5.767,-14.243 6.947,-17.1L8.705,-16.673L2.984,-3.646C1.937,-1.26 0.557,0 -1.358,0L-2.36,0L-2.36,-1.44L-1.581,-1.44C-0.2,-1.44 0.78,-1.801 2.36,-6.256L-2.003,-16.537L0,-17.1Z" style="fill-rule:nonzero;"/>
        </g>
        <g transform="matrix(1,0,0,1,1227.55,1559.4)">
            <path d="M0,-0.27C0,-3.915 2.671,-6.03 5.476,-6.03C8.281,-6.03 10.975,-3.915 10.975,-0.27C10.975,3.218 8.771,5.76 5.476,5.76C2.204,5.76 0,3.218 0,-0.27M2.159,-0.27C2.159,1.845 2.872,4.32 5.476,4.32C8.104,4.32 8.816,1.845 8.816,-0.27C8.816,-2.295 7.992,-4.59 5.476,-4.59C2.983,-4.59 2.159,-2.295 2.159,-0.27" style="fill-rule:nonzero;"/>
        </g>
        <g transform="matrix(1,0,0,1,1248.93,1555.22)">
            <path d="M0,8.368C-1.136,9.359 -2.137,9.944 -3.585,9.944C-6.145,9.944 -7.525,8.504 -7.525,5.668L-7.525,-1.576L-5.522,-1.576L-5.522,5.219C-5.522,7.333 -4.631,8.459 -2.828,8.459C-1.292,8.459 -0.023,7.177 -0.023,4.994L-0.023,-1.576L1.981,-1.576L1.981,9.673L0,9.673L0,8.368Z" style="fill-rule:nonzero;"/>
        </g>
        <g transform="matrix(1,0,0,1,1256.61,1563.22)">
            <path d="M0,-8.19L0.802,-9.045C1.269,-9.517 2.003,-9.855 2.471,-9.855C2.961,-9.855 3.695,-9.495 4.319,-8.753L3.406,-7.447C2.916,-7.694 2.427,-7.92 1.915,-7.92C0.89,-7.92 0.045,-6.885 0.045,-4.388L0.045,1.665L-1.96,1.665L-1.96,-9.585L0,-9.585L0,-8.19Z" style="fill-rule:nonzero;"/>
        </g>
        <g transform="matrix(1,0,0,1,1274.92,1563.09)">
            <path d="M0,-7.65C-0.802,-8.189 -1.447,-8.371 -2.048,-8.371C-2.76,-8.371 -3.673,-8.033 -3.673,-7.087C-3.673,-6.143 -2.649,-5.671 -1.38,-4.703C0.045,-3.601 0.979,-2.678 0.979,-1.102C0.979,0.787 -0.868,2.07 -2.916,2.07C-4.185,2.07 -5.61,1.507 -6.345,0.652L-5.365,-0.496C-4.72,0.113 -3.852,0.63 -2.961,0.63C-2.026,0.63 -1.069,0.135 -1.069,-0.968C-1.069,-2.273 -2.226,-2.835 -3.273,-3.601C-4.542,-4.523 -5.655,-5.288 -5.655,-6.818C-5.655,-8.594 -3.918,-9.72 -1.959,-9.72C-0.868,-9.72 0.2,-9.27 0.78,-8.685L0,-7.65Z" style="fill-rule:nonzero;"/>
        </g>
        <g transform="matrix(1,0,0,1,1286.23,1555.22)">
            <path d="M0,8.368C-1.135,9.359 -2.137,9.944 -3.584,9.944C-6.144,9.944 -7.524,8.504 -7.524,5.668L-7.524,-1.576L-5.521,-1.576L-5.521,5.219C-5.521,7.333 -4.63,8.459 -2.827,8.459C-1.291,8.459 -0.022,7.177 -0.022,4.994L-0.022,-1.576L1.982,-1.576L1.982,9.673L0,9.673L0,8.368Z" style="fill-rule:nonzero;"/>
        </g>
        <g transform="matrix(1,0,0,1,1291.89,1565.16)">
            <path d="M0,-16.807L2.003,-16.807L2.003,-9.765L2.048,-9.765C2.872,-11.115 4.452,-11.79 5.699,-11.79C10.04,-11.79 10.752,-7.853 10.752,-6.233C10.752,-2.812 8.748,0 5.476,0C4.074,0 2.872,-0.675 2.048,-1.755L2.003,-1.755L2.003,-0.27L0,-0.27L0,-16.807ZM8.593,-6.21C8.593,-8.258 7.569,-10.35 5.499,-10.35C3.227,-10.35 2.003,-8.572 2.003,-5.67C2.003,-3.51 2.983,-1.44 5.476,-1.44C7.881,-1.44 8.593,-4.163 8.593,-6.21" style="fill-rule:nonzero;"/>
        </g>
        <g transform="matrix(1,0,0,1,1310.86,1563.09)">
            <path d="M0,-7.65C-0.802,-8.189 -1.447,-8.371 -2.048,-8.371C-2.76,-8.371 -3.673,-8.033 -3.673,-7.087C-3.673,-6.143 -2.649,-5.671 -1.381,-4.703C0.044,-3.601 0.979,-2.678 0.979,-1.102C0.979,0.787 -0.869,2.07 -2.917,2.07C-4.185,2.07 -5.61,1.507 -6.345,0.652L-5.366,-0.496C-4.721,0.113 -3.852,0.63 -2.961,0.63C-2.026,0.63 -1.069,0.135 -1.069,-0.968C-1.069,-2.273 -2.226,-2.835 -3.272,-3.601C-4.542,-4.523 -5.655,-5.288 -5.655,-6.818C-5.655,-8.594 -3.919,-9.72 -1.959,-9.72C-0.869,-9.72 0.2,-9.27 0.78,-8.685L0,-7.65Z" style="fill-rule:nonzero;"/>
        </g>
        <g transform="matrix(1,0,0,1,1317.21,1561.78)">
            <path d="M0,-8.145L2.917,-8.145L2.917,-6.975L0,-6.975L0,-0.608C0,0.967 0.312,1.911 1.536,1.911C2.272,1.911 2.695,1.732 3.072,1.53L3.562,2.654C2.872,3.104 2.048,3.375 1.292,3.375C-0.935,3.375 -2.003,2.069 -2.003,-0.226L-2.003,-6.975L-3.562,-6.975L-3.562,-8.145L-2.003,-8.145L-2.003,-10.845L0,-11.52L0,-8.145Z" style="fill-rule:nonzero;"/>
        </g>
        <g transform="matrix(1,0,0,1,1324.83,1563.22)">
            <path d="M0,-8.19L0.802,-9.045C1.268,-9.517 2.003,-9.855 2.471,-9.855C2.961,-9.855 3.695,-9.495 4.319,-8.753L3.406,-7.447C2.916,-7.694 2.427,-7.92 1.915,-7.92C0.889,-7.92 0.044,-6.885 0.044,-4.388L0.044,1.665L-1.96,1.665L-1.96,-9.585L0,-9.585L0,-8.19Z" style="fill-rule:nonzero;"/>
        </g>
        <g transform="matrix(1,0,0,1,1336.25,1554.85)">
            <path d="M0,8.82C-0.778,9.608 -1.758,10.305 -2.782,10.305C-4.652,10.305 -5.944,8.955 -5.944,6.841C-5.944,4.883 -4.297,3.645 -1.981,2.948L0.712,2.092C0.625,0.72 -0.423,-0.157 -1.513,-0.157C-2.804,-0.157 -3.628,0.382 -4.43,1.057L-5.209,0.046C-4.096,-1.035 -2.961,-1.485 -1.402,-1.485C0.268,-1.485 2.717,-0.945 2.717,2.34L2.717,7.289C2.717,8.145 2.828,9.225 3.207,10.035L1.024,10.035C0.758,9.563 0.712,8.842 0.712,8.123L0,8.82ZM-1.201,4.005C-2.961,4.545 -3.874,5.401 -3.874,6.817C-3.874,7.987 -3.072,8.729 -2.271,8.729C-0.846,8.729 0.98,6.952 0.712,3.443L-1.201,4.005Z" style="fill-rule:nonzero;"/>
        </g>
        <g transform="matrix(1,0,0,1,1345.09,1561.78)">
            <path d="M0,-8.145L2.917,-8.145L2.917,-6.975L0,-6.975L0,-0.608C0,0.967 0.312,1.911 1.536,1.911C2.272,1.911 2.695,1.732 3.072,1.53L3.562,2.654C2.872,3.104 2.048,3.375 1.292,3.375C-0.935,3.375 -2.003,2.069 -2.003,-0.226L-2.003,-6.975L-3.562,-6.975L-3.562,-8.145L-2.003,-8.145L-2.003,-10.845L0,-11.52L0,-8.145Z" style="fill-rule:nonzero;"/>
        </g>
        <g transform="matrix(1,0,0,1,1352.06,1559.13)">
            <path d="M0,0.27C-0.022,2.52 1.558,4.59 3.762,4.59C4.787,4.59 6.033,4.207 6.813,3.622L7.391,4.724C6.233,5.556 4.854,6.03 3.695,6.03C0.222,6.03 -2.07,3.869 -2.07,-0.091C-2.07,-3.983 0.69,-5.76 3.205,-5.76C6.59,-5.76 7.726,-2.677 7.503,0.27L0,0.27ZM5.677,-1.081C5.677,-2.835 4.942,-4.32 3.183,-4.32C1.046,-4.32 0.2,-2.521 0.133,-1.081L5.677,-1.081Z" style="fill-rule:nonzero;"/>
        </g>
        <g transform="matrix(-0.999971,0.00763867,0.00763867,0.999971,1364.03,1565.16)">
            <path d="M-0.011,-2.88C-0.767,-2.874 -1.431,-2.195 -1.425,-1.429C-1.419,-0.687 -0.745,0.006 -0.011,0C0.767,-0.006 1.431,-0.665 1.425,-1.451C1.419,-2.239 0.745,-2.886 -0.011,-2.88" style="fill-rule:nonzero;"/>
        </g>
    </g>
</svg>
