<?xml version="1.0" encoding="utf-8"?>
<!-- Generator: Adobe Illustrator 16.0.0, SVG Export Plug-In . SVG Version: 6.00 Build 0)  -->
<!DOCTYPE svg PUBLIC "-//W3C//DTD SVG 1.1//EN" "http://www.w3.org/Graphics/SVG/1.1/DTD/svg11.dtd">
<svg version="1.1" id="Ebene_1" xmlns="http://www.w3.org/2000/svg" xmlns:xlink="http://www.w3.org/1999/xlink" x="0px" y="0px"
	 width="1695.55px" height="538.88px" viewBox="0 0 1695.55 538.88" style="enable-background:new 0 0 1695.55 538.88;"
	 xml:space="preserve">
<style type="text/css">
<![CDATA[
	.st0{fill:none;stroke:#FFFFFF;stroke-width:2;}
	.st1{fill:#FFFFFF;}
	.st2{fill:#009FE3;}
]]>
</style>
<g>
	<circle class="st0" cx="166.85" cy="269.44" r="41.5"/>
	<circle class="st0" cx="206.86" cy="496.37" r="41.5"/>
	<path class="st1" d="M359.56,439.73L246.46,480.9l0.68,1.88l113.1-41.17C360.01,440.98,359.79,440.36,359.56,439.73z"/>
	<circle class="st0" cx="1494.53" cy="269.44" r="41.5"/>
	<circle class="st0" cx="1454.52" cy="42.51" r="41.5"/>
	<circle class="st0" cx="1454.52" cy="496.37" r="41.5"/>
	<path class="st2" d="M1693.22,497.09v5.69c-0.94,0.46-1.99,0.6-3.41,0.6c-3.65,0-6.55-2.86-6.55-7.1c0-3.94,2.45-6.91,6.82-6.91
		c1.85,0,3.38,0.65,4.39,1.34l0.96-1.39c-1.01-0.84-2.93-1.63-5.38-1.63c-6.05,0-9.36,4.39-9.36,8.64c0,4.61,3.07,8.74,9.05,8.74
		c2.14,0,4.18-0.55,5.81-1.13v-6.84H1693.22z M1676.93,487.97h-1.92v13.39h-0.05c-1.13-1.68-7.32-9.02-11.02-13.39h-1.73v16.8h1.92
		V491.4h0.05c1.01,1.46,7.27,9,10.92,13.37h1.82V487.97z M1657.58,487.97h-2.33v16.8h2.33V487.97z M1651.97,504.53l-6.14-9.14
		l4.61-7.37l-2.16-0.29l-3.58,6.1l-3.91-6.1l-2.47,0.53l4.99,7.37l-5.47,8.95l2.14,0.43l4.51-7.82l4.97,7.82L1651.97,504.53z
		 M1634.93,487.97h-8.28v16.8h9.31v-1.68h-6.98v-6.34h5.83v-1.68h-5.83v-5.42h5.95V487.97z M1614.5,504.77h9.31v-1.68h-6.98v-15.12
		h-2.33V504.77z M1603.34,489.65h1.61c2.5,0,3.53,1.34,3.53,3.19c0,2.5-1.42,3.7-3.67,3.82l-0.77,0.02v1.54h0.74
		c3.77,0,6.19-2.57,6.19-5.4c0-3.26-2.18-4.85-5.74-4.85h-4.22v16.8h2.33V489.65z M1596.38,487.97h-2.33v16.8h2.33V487.97z
		 M1585.92,504.77v-15.12h5.4v-1.68h-13.1v1.68h5.38v15.12H1585.92z M1568.93,504.77h9.31v-1.68h-6.98v-15.12h-2.33V504.77z
		 M1551.53,487.97v10.27c0,4.32,1.9,6.82,6.62,6.82c4.06,0,6.38-2.69,6.38-6.46v-10.63h-2.18v10.58c0,2.4-1.06,4.9-4.2,4.9
		c-3,0-4.3-1.82-4.3-5.3v-10.18H1551.53z M1547.14,487.97h-2.18c-2.35,4.46-4.73,8.95-7.1,13.68c-2.14-4.73-4.3-9.22-6.46-13.68
		h-2.5v16.8h1.92v-13.68h0.05c0.65,2.21,4.13,9.38,6.22,13.68h0.94c2.26-4.3,6.07-11.71,6.74-13.68h0.05v13.68h2.33V487.97z"/>
	<path class="st2" d="M1674.43,270.16v5.69c-0.94,0.46-1.99,0.6-3.41,0.6c-3.65,0-6.55-2.86-6.55-7.1c0-3.94,2.45-6.91,6.82-6.91
		c1.85,0,3.38,0.65,4.39,1.34l0.96-1.39c-1.01-0.84-2.93-1.63-5.38-1.63c-6.05,0-9.36,4.39-9.36,8.64c0,4.61,3.07,8.74,9.05,8.74
		c2.14,0,4.18-0.55,5.81-1.13v-6.84H1674.43z M1658.14,261.04h-1.92v13.39h-0.05c-1.13-1.68-7.32-9.02-11.02-13.39h-1.73v16.8h1.92
		v-13.37h0.05c1.01,1.46,7.27,9,10.92,13.37h1.82V261.04z M1638.79,261.04h-2.33v16.8h2.33V261.04z M1623.96,261.04h-2.33v16.8h2.33
		v-8.71h0.05l7.39,8.95l2.28-0.89l-7.37-8.52l6.5-6.84l-1.58-1.03l-7.27,7.75V261.04z M1607.69,277.84h2.33v-6.96h2.47l3.89,7.25
		l2.35-0.72l-4.18-7.15c1.61-1.03,2.81-2.42,2.81-4.9c0-2.9-2.14-4.32-4.87-4.32h-4.8V277.84z M1610.02,262.72h1.99
		c1.56,0,2.86,0.79,2.86,2.86c0,1.42-0.55,3.62-3.53,3.62h-1.32V262.72z M1594.99,271.22c0.91-2.33,1.8-4.66,2.66-7.68h0.05
		c0.84,3.02,1.66,5.35,2.5,7.68H1594.99z M1597.13,261.04l-6.84,16.8h2.26l1.8-4.94h6.41l1.73,4.94h2.69l-6.26-16.8H1597.13z
		 M1587.77,261.04h-2.18c-2.35,4.46-4.73,8.95-7.1,13.68c-2.14-4.73-4.3-9.22-6.46-13.68h-2.5v16.8h1.92v-13.68h0.05
		c0.65,2.21,4.13,9.38,6.22,13.68h0.94c2.26-4.3,6.07-11.71,6.74-13.68h0.05v13.68h2.33V261.04z"/>
	<path class="st2" d="M88.44,277.84v-15.12h5.4v-1.68h-13.1v1.68h5.38v15.12H88.44z M71.25,271.22c0.91-2.33,1.8-4.66,2.66-7.68
		h0.05c0.84,3.02,1.66,5.35,2.5,7.68H71.25z M73.39,261.04l-6.84,16.8h2.26l1.8-4.94h6.41l1.73,4.94h2.69l-6.26-16.8H73.39z
		 M64.03,261.04h-2.18c-2.35,4.46-4.73,8.95-7.1,13.68c-2.14-4.73-4.3-9.22-6.46-13.68h-2.5v16.8h1.92v-13.68h0.05
		c0.65,2.21,4.13,9.38,6.22,13.68h0.94c2.26-4.3,6.07-11.71,6.74-13.68h0.05v13.68h2.33V261.04z M31.85,277.84h2.33v-6.96h2.47
		l3.89,7.25l2.35-0.72l-4.18-7.15c1.61-1.03,2.81-2.42,2.81-4.9c0-2.9-2.14-4.32-4.87-4.32h-4.8V277.84z M34.17,262.72h1.99
		c1.56,0,2.86,0.79,2.86,2.86c0,1.42-0.55,3.62-3.53,3.62h-1.32V262.72z M19.68,276.45c-4.34,0-5.83-4.01-5.83-7.3
		c0-3.14,1.68-6.72,5.83-6.72c4.15,0,5.83,3.58,5.83,6.72C25.51,272.44,24.02,276.45,19.68,276.45 M19.68,278.13
		c5.18,0,8.4-3.96,8.4-8.98c0-4.7-3.55-8.4-8.4-8.4c-4.85,0-8.4,3.7-8.4,8.4C11.28,274.17,14.5,278.13,19.68,278.13 M8.28,261.04H0
		v16.8h2.33v-7.06h5.83v-1.68H2.33v-6.38h5.95V261.04z"/>
	<path class="st2" d="M129.67,497.09v5.69c-0.94,0.46-1.99,0.6-3.41,0.6c-3.65,0-6.55-2.86-6.55-7.1c0-3.94,2.45-6.91,6.82-6.91
		c1.85,0,3.38,0.65,4.39,1.34l0.96-1.39c-1.01-0.84-2.93-1.63-5.38-1.63c-6.05,0-9.36,4.39-9.36,8.64c0,4.61,3.07,8.74,9.05,8.74
		c2.14,0,4.18-0.55,5.81-1.13v-6.84H129.67z M113.38,487.97h-1.92v13.39h-0.05c-1.13-1.68-7.32-9.02-11.02-13.39h-1.73v16.8h1.92
		V491.4h0.05c1.01,1.46,7.27,9,10.92,13.37h1.82V487.97z M94.03,487.97H91.7v16.8h2.33V487.97z M83.57,504.77v-15.12h5.4v-1.68
		h-13.1v1.68h5.38v15.12H83.57z M66.38,498.15c0.91-2.33,1.8-4.66,2.66-7.68h0.05c0.84,3.02,1.66,5.35,2.5,7.68H66.38z
		 M68.52,487.97l-6.84,16.8h2.26l1.8-4.94h6.41l1.73,4.94h2.69l-6.26-16.8H68.52z M51.62,503.38c-4.34,0-5.83-4.01-5.83-7.3
		c0-3.14,1.68-6.72,5.83-6.72s5.83,3.58,5.83,6.72C57.46,499.37,55.97,503.38,51.62,503.38 M51.62,505.06c5.18,0,8.4-3.96,8.4-8.98
		c0-4.7-3.55-8.4-8.4-8.4s-8.4,3.7-8.4,8.4C43.22,501.1,46.44,505.06,51.62,505.06 M40.73,489.39c-1.1-0.86-2.78-1.7-5.18-1.7
		c-6.02,0-9.34,4.42-9.34,8.64c0,4.63,3.05,8.74,9.05,8.74c2.16,0,4.15-0.77,5.28-1.54l-0.91-1.39c-0.98,0.67-2.42,1.25-4.25,1.25
		c-3.67,0-6.6-2.86-6.6-7.1c0-3.94,2.45-6.91,6.6-6.91c1.8,0,3.6,0.82,4.39,1.46L40.73,489.39z"/>
	<path class="st2" d="M1685.6,43.23v5.69c-0.94,0.46-1.99,0.6-3.41,0.6c-3.65,0-6.55-2.86-6.55-7.1c0-3.94,2.45-6.91,6.82-6.91
		c1.85,0,3.38,0.65,4.39,1.34l0.96-1.39c-1.01-0.84-2.93-1.63-5.38-1.63c-6.05,0-9.36,4.39-9.36,8.64c0,4.61,3.07,8.74,9.05,8.74
		c2.14,0,4.18-0.55,5.81-1.13v-6.84H1685.6z M1669.3,34.11h-1.92V47.5h-0.05c-1.13-1.68-7.32-9.02-11.02-13.39h-1.73v16.8h1.92
		V37.54h0.05c1.01,1.46,7.27,9,10.92,13.37h1.82V34.11z M1649.96,34.11h-2.33v16.8h2.33V34.11z M1633.68,50.91h2.33v-6.96h2.47
		l3.89,7.25l2.35-0.72l-4.18-7.15c1.61-1.03,2.81-2.42,2.81-4.9c0-2.9-2.14-4.32-4.87-4.32h-4.8V50.91z M1636.01,35.79h1.99
		c1.56,0,2.86,0.79,2.86,2.86c0,1.42-0.55,3.62-3.53,3.62h-1.32V35.79z M1616.28,34.11v10.27c0,4.32,1.9,6.82,6.62,6.82
		c4.06,0,6.38-2.69,6.38-6.46V34.11h-2.18V44.7c0,2.4-1.06,4.9-4.2,4.9c-3,0-4.3-1.82-4.3-5.3V34.11H1616.28z M1608.39,50.91V35.79
		h5.4v-1.68h-13.1v1.68h5.38v15.12H1608.39z M1599.22,35.53c-1.1-0.86-2.78-1.7-5.18-1.7c-6.03,0-9.34,4.42-9.34,8.64
		c0,4.63,3.05,8.74,9.05,8.74c2.16,0,4.15-0.77,5.28-1.54l-0.91-1.39c-0.98,0.67-2.42,1.25-4.25,1.25c-3.67,0-6.6-2.86-6.6-7.1
		c0-3.94,2.45-6.91,6.6-6.91c1.8,0,3.6,0.82,4.39,1.46L1599.22,35.53z M1568.17,34.11v10.27c0,4.32,1.9,6.82,6.62,6.82
		c4.06,0,6.38-2.69,6.38-6.46V34.11h-2.18V44.7c0,2.4-1.06,4.9-4.2,4.9c-3,0-4.3-1.82-4.3-5.3V34.11H1568.17z M1554.46,50.91h2.33
		v-6.96h2.47l3.89,7.25l2.35-0.72l-4.18-7.15c1.61-1.03,2.81-2.42,2.81-4.9c0-2.9-2.14-4.32-4.87-4.32h-4.8V50.91z M1556.79,35.79
		h1.99c1.56,0,2.86,0.79,2.86,2.86c0,1.42-0.55,3.62-3.53,3.62h-1.32V35.79z M1546.33,50.91V35.79h5.4v-1.68h-13.1v1.68h5.38v15.12
		H1546.33z M1536.41,35.5c-0.94-1.06-2.4-1.68-4.15-1.68c-2.62,0-4.8,1.7-4.8,3.96c0,2.38,1.56,3.41,2.95,4.49
		c1.37,1.01,3.89,2.38,3.89,4.49c0,1.87-1.27,2.76-2.93,2.76c-1.58,0-2.66-0.77-3.65-1.46l-1.03,1.39c1.2,1.18,3.12,1.75,4.73,1.75
		c2.69,0,5.21-1.73,5.21-4.39c0-2.16-1.34-3.7-3.65-5.38c-2.16-1.56-3.19-2.45-3.19-3.65c0-1.3,0.94-2.28,2.62-2.28
		c1.01,0,2.09,0.6,2.9,1.2L1536.41,35.5z"/>
	<path class="st1" d="M1468.11,51.57c0,1.25-0.24,2.43-0.72,3.53c-0.48,1.1-1.13,2.06-1.94,2.87s-1.77,1.46-2.87,1.94
		c-1.1,0.48-2.28,0.72-3.53,0.72c-1.6,0-3.08-0.3-4.43-0.9c-1.35-0.6-2.59-1.47-3.72-2.6l-9.55-9.57c-0.28-0.28-0.43-0.62-0.43-1.01
		c0-0.4,0.15-0.75,0.44-1.03c0.29-0.28,0.63-0.42,1.02-0.42c0.39,0,0.73,0.14,1.01,0.42l2.81,2.81c0.22,0.22,0.46,0.38,0.74,0.48
		s0.56,0.16,0.86,0.16s0.58-0.06,0.85-0.17c0.27-0.11,0.5-0.27,0.7-0.47c0.2-0.2,0.35-0.44,0.47-0.7c0.11-0.26,0.17-0.55,0.17-0.86
		v-21.1c0-0.35,0.13-0.65,0.38-0.91c0.26-0.26,0.56-0.38,0.91-0.38s0.65,0.13,0.91,0.38c0.26,0.26,0.38,0.56,0.38,0.91v15.53
		c0,0.35,0.13,0.65,0.38,0.91c0.26,0.26,0.56,0.38,0.91,0.38c0.46,0,0.78-0.13,0.96-0.38c0.18-0.26,0.29-0.58,0.32-0.96
		c0.03-0.38,0.04-0.8,0.01-1.24c-0.03-0.45-0.02-0.86,0.01-1.24c0.03-0.38,0.14-0.7,0.32-0.96c0.18-0.26,0.5-0.39,0.96-0.39
		c0.5,0,0.84,0.16,1.02,0.48c0.18,0.32,0.29,0.72,0.31,1.2c0.03,0.49,0.01,1-0.04,1.56c-0.05,0.55-0.07,1.07-0.04,1.56
		c0.03,0.49,0.13,0.89,0.31,1.2c0.18,0.32,0.52,0.48,1.02,0.48c0.46,0,0.78-0.13,0.96-0.38c0.18-0.26,0.29-0.58,0.32-0.96
		c0.03-0.38,0.04-0.8,0.01-1.24c-0.03-0.45-0.02-0.86,0.01-1.24c0.03-0.38,0.14-0.71,0.32-0.96c0.18-0.26,0.5-0.38,0.96-0.38
		c0.5,0,0.84,0.16,1.02,0.48c0.18,0.32,0.29,0.72,0.31,1.2c0.03,0.48,0.01,1-0.04,1.56c-0.05,0.55-0.07,1.07-0.04,1.56
		c0.03,0.48,0.13,0.89,0.31,1.2s0.52,0.48,1.02,0.48c0.46,0,0.78-0.13,0.96-0.38c0.18-0.26,0.29-0.58,0.32-0.96
		c0.03-0.38,0.04-0.8,0.01-1.24c-0.03-0.45-0.02-0.86,0.01-1.24c0.03-0.38,0.14-0.7,0.32-0.96c0.18-0.26,0.5-0.38,0.96-0.38
		c0.35,0,0.65,0.13,0.91,0.38s0.38,0.56,0.38,0.91V51.57z M1464.91,37.84c-0.35-0.57-0.82-1.01-1.4-1.33s-1.21-0.48-1.88-0.48
		c-0.66,0-1.29,0.17-1.9,0.5c-0.35-0.57-0.82-1.01-1.4-1.32s-1.21-0.48-1.88-0.48c-0.42,0-0.85,0.08-1.29,0.22v-9.28
		c0-0.54-0.1-1.04-0.3-1.52c-0.2-0.47-0.48-0.88-0.83-1.23c-0.35-0.35-0.76-0.63-1.23-0.83c-0.47-0.2-0.98-0.3-1.52-0.3
		s-1.04,0.1-1.52,0.3c-0.47,0.2-0.88,0.48-1.23,0.83c-0.35,0.35-0.63,0.76-0.83,1.23c-0.2,0.47-0.3,0.98-0.3,1.52v20.17l-2.16-2.14
		c-0.39-0.38-0.83-0.67-1.32-0.88c-0.49-0.21-1-0.31-1.54-0.31c-0.55,0-1.08,0.1-1.57,0.31c-0.49,0.21-0.92,0.5-1.29,0.86
		c-0.36,0.36-0.65,0.79-0.87,1.28c-0.21,0.49-0.32,1.02-0.32,1.59c0,0.53,0.1,1.04,0.3,1.54c0.2,0.5,0.49,0.94,0.87,1.31l9.55,9.55
		c1.36,1.36,2.88,2.41,4.56,3.16c1.68,0.74,3.49,1.11,5.43,1.11c1.61,0,3.12-0.31,4.53-0.92c1.42-0.61,2.65-1.45,3.7-2.5
		c1.05-1.05,1.88-2.29,2.5-3.7c0.61-1.42,0.92-2.93,0.92-4.53V41.22c0-0.54-0.1-1.04-0.3-1.52c-0.2-0.47-0.48-0.88-0.83-1.23
		c-0.35-0.35-0.76-0.63-1.23-0.83c-0.47-0.2-0.98-0.3-1.52-0.3C1466.15,37.33,1465.52,37.5,1464.91,37.84"/>
	<path class="st1" d="M1508.12,278.5c0,1.25-0.24,2.43-0.72,3.53c-0.48,1.1-1.13,2.06-1.94,2.87c-0.82,0.82-1.77,1.46-2.87,1.94
		c-1.1,0.48-2.28,0.72-3.53,0.72c-1.6,0-3.08-0.3-4.43-0.9c-1.35-0.6-2.59-1.47-3.72-2.6l-9.55-9.57c-0.28-0.28-0.42-0.62-0.42-1.01
		c0-0.4,0.14-0.75,0.43-1.03c0.29-0.28,0.63-0.43,1.02-0.43c0.39,0,0.73,0.14,1.01,0.43l2.81,2.81c0.22,0.21,0.46,0.38,0.74,0.48
		c0.28,0.11,0.56,0.16,0.86,0.16c0.3,0,0.58-0.06,0.85-0.17c0.27-0.11,0.5-0.27,0.7-0.47c0.2-0.2,0.35-0.44,0.47-0.7
		c0.11-0.26,0.17-0.55,0.17-0.86v-21.1c0-0.35,0.13-0.65,0.38-0.91c0.26-0.26,0.56-0.38,0.91-0.38s0.65,0.13,0.91,0.38
		c0.26,0.26,0.38,0.56,0.38,0.91v15.53c0,0.35,0.13,0.65,0.38,0.91c0.26,0.26,0.56,0.38,0.91,0.38c0.46,0,0.78-0.13,0.96-0.38
		c0.18-0.26,0.29-0.58,0.32-0.96c0.03-0.38,0.04-0.8,0.01-1.24c-0.03-0.45-0.02-0.86,0.01-1.24c0.03-0.38,0.14-0.7,0.32-0.96
		c0.18-0.26,0.5-0.39,0.96-0.39c0.5,0,0.84,0.16,1.02,0.48c0.18,0.32,0.29,0.72,0.31,1.2c0.03,0.49,0.01,1-0.04,1.56
		c-0.05,0.55-0.07,1.07-0.04,1.56c0.03,0.49,0.13,0.89,0.31,1.2s0.52,0.48,1.02,0.48c0.46,0,0.78-0.13,0.96-0.38
		c0.18-0.26,0.29-0.58,0.32-0.96c0.03-0.38,0.04-0.8,0.01-1.24c-0.03-0.44-0.02-0.86,0.01-1.24c0.03-0.38,0.14-0.71,0.32-0.96
		c0.18-0.26,0.5-0.38,0.96-0.38c0.5,0,0.84,0.16,1.02,0.47c0.18,0.32,0.29,0.72,0.31,1.2c0.03,0.48,0.01,1-0.04,1.56
		c-0.05,0.55-0.07,1.07-0.04,1.56c0.03,0.49,0.13,0.89,0.31,1.2c0.18,0.32,0.52,0.47,1.02,0.47c0.46,0,0.78-0.13,0.96-0.38
		c0.18-0.26,0.29-0.58,0.32-0.96c0.03-0.38,0.04-0.8,0.01-1.24c-0.03-0.44-0.02-0.86,0.01-1.24c0.03-0.38,0.14-0.7,0.32-0.96
		c0.18-0.26,0.5-0.38,0.96-0.38c0.35,0,0.65,0.13,0.91,0.38c0.26,0.26,0.38,0.56,0.38,0.91V278.5z M1504.93,264.77
		c-0.35-0.57-0.82-1.01-1.4-1.33s-1.21-0.48-1.88-0.48c-0.66,0-1.29,0.17-1.9,0.51c-0.35-0.57-0.82-1.01-1.4-1.32
		s-1.21-0.48-1.88-0.48c-0.42,0-0.85,0.08-1.29,0.22v-9.28c0-0.54-0.1-1.04-0.3-1.52c-0.2-0.47-0.48-0.88-0.83-1.23
		c-0.35-0.35-0.76-0.63-1.23-0.83c-0.47-0.2-0.98-0.3-1.52-0.3s-1.04,0.1-1.52,0.3c-0.47,0.2-0.88,0.48-1.23,0.83
		c-0.35,0.35-0.63,0.76-0.83,1.23c-0.2,0.47-0.3,0.98-0.3,1.52v20.17l-2.16-2.14c-0.39-0.38-0.83-0.67-1.32-0.88
		c-0.48-0.21-1-0.31-1.54-0.31c-0.55,0-1.08,0.1-1.57,0.31c-0.49,0.21-0.92,0.5-1.29,0.86c-0.36,0.36-0.65,0.79-0.87,1.28
		c-0.21,0.49-0.32,1.02-0.32,1.59c0,0.53,0.1,1.04,0.3,1.54c0.2,0.5,0.49,0.94,0.87,1.32l9.55,9.55c1.36,1.36,2.88,2.41,4.56,3.16
		c1.68,0.74,3.49,1.11,5.43,1.11c1.61,0,3.12-0.31,4.53-0.92c1.42-0.61,2.65-1.45,3.7-2.5c1.05-1.05,1.88-2.29,2.5-3.7
		c0.61-1.42,0.92-2.93,0.92-4.53v-10.36c0-0.54-0.1-1.04-0.3-1.52c-0.2-0.47-0.48-0.88-0.83-1.23c-0.35-0.35-0.76-0.63-1.23-0.83
		c-0.47-0.2-0.98-0.3-1.52-0.3C1506.17,264.26,1505.53,264.43,1504.93,264.77"/>
	<path class="st1" d="M1468.11,505.43c0,1.25-0.24,2.43-0.72,3.53c-0.48,1.1-1.13,2.06-1.94,2.87c-0.82,0.82-1.77,1.46-2.87,1.94
		s-2.28,0.72-3.53,0.72c-1.6,0-3.08-0.3-4.43-0.9c-1.35-0.6-2.59-1.47-3.72-2.6l-9.55-9.57c-0.28-0.28-0.43-0.62-0.43-1.01
		c0-0.41,0.15-0.75,0.44-1.03c0.29-0.28,0.63-0.42,1.02-0.42c0.39,0,0.73,0.14,1.01,0.42l2.81,2.81c0.22,0.22,0.46,0.38,0.74,0.48
		c0.28,0.11,0.56,0.16,0.86,0.16s0.58-0.06,0.85-0.17c0.27-0.11,0.5-0.27,0.7-0.47c0.2-0.2,0.35-0.44,0.47-0.7
		c0.11-0.26,0.17-0.55,0.17-0.86v-21.1c0-0.35,0.13-0.65,0.38-0.91c0.26-0.26,0.56-0.38,0.91-0.38s0.65,0.13,0.91,0.38
		s0.38,0.56,0.38,0.91v15.53c0,0.35,0.13,0.65,0.38,0.91s0.56,0.38,0.91,0.38c0.46,0,0.78-0.13,0.96-0.38s0.29-0.58,0.32-0.96
		c0.03-0.38,0.04-0.8,0.01-1.24c-0.03-0.44-0.02-0.86,0.01-1.24c0.03-0.38,0.14-0.7,0.32-0.96c0.18-0.26,0.5-0.38,0.96-0.38
		c0.5,0,0.84,0.16,1.02,0.48c0.18,0.32,0.29,0.72,0.31,1.2c0.03,0.49,0.01,1-0.04,1.56c-0.05,0.55-0.07,1.07-0.04,1.56
		c0.03,0.49,0.13,0.89,0.31,1.2c0.18,0.32,0.52,0.47,1.02,0.47c0.46,0,0.78-0.13,0.96-0.38c0.18-0.26,0.29-0.58,0.32-0.96
		c0.03-0.38,0.04-0.8,0.01-1.24c-0.03-0.44-0.02-0.86,0.01-1.24c0.03-0.38,0.14-0.71,0.32-0.96c0.18-0.26,0.5-0.38,0.96-0.38
		c0.5,0,0.84,0.16,1.02,0.47c0.18,0.32,0.29,0.72,0.31,1.21c0.03,0.48,0.01,1-0.04,1.56c-0.05,0.55-0.07,1.07-0.04,1.56
		c0.03,0.49,0.13,0.89,0.31,1.2s0.52,0.48,1.02,0.48c0.46,0,0.78-0.13,0.96-0.38c0.18-0.26,0.29-0.58,0.32-0.96
		c0.03-0.38,0.04-0.8,0.01-1.24c-0.03-0.45-0.02-0.86,0.01-1.24c0.03-0.38,0.14-0.7,0.32-0.96c0.18-0.26,0.5-0.39,0.96-0.39
		c0.35,0,0.65,0.13,0.91,0.39c0.26,0.26,0.38,0.56,0.38,0.91V505.43z M1464.91,491.7c-0.35-0.57-0.82-1.01-1.4-1.32
		c-0.58-0.32-1.21-0.48-1.88-0.48c-0.66,0-1.29,0.17-1.9,0.5c-0.35-0.57-0.82-1.01-1.4-1.32c-0.58-0.32-1.21-0.48-1.88-0.48
		c-0.42,0-0.85,0.08-1.29,0.22v-9.28c0-0.54-0.1-1.04-0.3-1.52s-0.48-0.88-0.83-1.23c-0.35-0.35-0.76-0.63-1.23-0.83
		c-0.47-0.2-0.98-0.3-1.52-0.3s-1.04,0.1-1.52,0.3c-0.47,0.2-0.88,0.48-1.23,0.83c-0.35,0.35-0.63,0.76-0.83,1.23
		s-0.3,0.98-0.3,1.52v20.17l-2.16-2.14c-0.39-0.38-0.83-0.67-1.32-0.88c-0.49-0.21-1-0.31-1.54-0.31c-0.55,0-1.08,0.11-1.57,0.31
		c-0.49,0.21-0.92,0.5-1.29,0.86c-0.36,0.36-0.65,0.79-0.87,1.28c-0.21,0.49-0.32,1.02-0.32,1.59c0,0.53,0.1,1.04,0.3,1.54
		c0.2,0.5,0.49,0.94,0.87,1.32l9.55,9.55c1.36,1.36,2.88,2.41,4.56,3.15c1.68,0.74,3.49,1.11,5.43,1.11c1.61,0,3.12-0.31,4.53-0.92
		c1.42-0.61,2.65-1.45,3.7-2.5c1.05-1.05,1.88-2.29,2.5-3.7c0.61-1.42,0.92-2.93,0.92-4.53v-10.36c0-0.54-0.1-1.04-0.3-1.52
		c-0.2-0.47-0.48-0.88-0.83-1.23c-0.35-0.35-0.76-0.63-1.23-0.83s-0.98-0.3-1.52-0.3C1466.15,491.19,1465.52,491.36,1464.91,491.7"
		/>
	<path class="st1" d="M180.44,278.5c0,1.25-0.24,2.43-0.72,3.53c-0.48,1.1-1.13,2.06-1.94,2.87c-0.82,0.82-1.77,1.46-2.87,1.94
		c-1.1,0.48-2.28,0.72-3.53,0.72c-1.6,0-3.08-0.3-4.43-0.9s-2.59-1.47-3.72-2.6l-9.55-9.57c-0.28-0.28-0.42-0.62-0.42-1.01
		c0-0.4,0.15-0.75,0.44-1.03s0.63-0.43,1.02-0.43c0.39,0,0.73,0.14,1.01,0.43l2.81,2.81c0.22,0.21,0.46,0.38,0.74,0.48
		s0.56,0.16,0.86,0.16c0.3,0,0.58-0.06,0.85-0.17c0.27-0.11,0.5-0.27,0.7-0.47c0.2-0.2,0.35-0.44,0.47-0.7
		c0.11-0.26,0.17-0.55,0.17-0.86v-21.1c0-0.35,0.13-0.65,0.38-0.91c0.26-0.26,0.56-0.38,0.91-0.38c0.35,0,0.65,0.13,0.91,0.38
		c0.26,0.26,0.38,0.56,0.38,0.91v15.53c0,0.35,0.13,0.65,0.38,0.91c0.26,0.26,0.56,0.38,0.91,0.38c0.46,0,0.78-0.13,0.96-0.38
		c0.18-0.26,0.29-0.58,0.32-0.96c0.03-0.38,0.04-0.8,0.01-1.24c-0.03-0.45-0.02-0.86,0.01-1.24c0.03-0.38,0.14-0.7,0.32-0.96
		s0.5-0.39,0.96-0.39c0.5,0,0.84,0.16,1.02,0.48c0.18,0.32,0.29,0.72,0.31,1.2c0.03,0.49,0.01,1-0.04,1.56
		c-0.05,0.55-0.07,1.07-0.04,1.56c0.03,0.49,0.13,0.89,0.31,1.2c0.18,0.32,0.52,0.48,1.02,0.48c0.46,0,0.78-0.13,0.96-0.38
		c0.18-0.26,0.29-0.58,0.32-0.96c0.03-0.38,0.04-0.8,0.01-1.24c-0.03-0.44-0.02-0.86,0.01-1.24c0.03-0.38,0.14-0.71,0.32-0.96
		c0.18-0.26,0.5-0.38,0.96-0.38c0.5,0,0.84,0.16,1.02,0.47c0.18,0.32,0.29,0.72,0.31,1.2c0.03,0.48,0.01,1-0.04,1.56
		c-0.05,0.55-0.07,1.07-0.04,1.56c0.03,0.49,0.13,0.89,0.31,1.2c0.18,0.32,0.52,0.47,1.02,0.47c0.46,0,0.78-0.13,0.96-0.38
		c0.18-0.26,0.29-0.58,0.32-0.96c0.03-0.38,0.04-0.8,0.01-1.24c-0.03-0.44-0.02-0.86,0.01-1.24c0.03-0.38,0.14-0.7,0.32-0.96
		c0.18-0.26,0.5-0.38,0.96-0.38c0.35,0,0.65,0.13,0.91,0.38c0.26,0.26,0.38,0.56,0.38,0.91V278.5z M177.24,264.77
		c-0.35-0.57-0.82-1.01-1.4-1.33c-0.58-0.32-1.21-0.48-1.88-0.48c-0.66,0-1.29,0.17-1.9,0.51c-0.35-0.57-0.82-1.01-1.4-1.32
		s-1.21-0.48-1.88-0.48c-0.42,0-0.85,0.08-1.29,0.22v-9.28c0-0.54-0.1-1.04-0.3-1.52c-0.2-0.47-0.48-0.88-0.83-1.23
		c-0.35-0.35-0.76-0.63-1.23-0.83c-0.47-0.2-0.98-0.3-1.52-0.3s-1.04,0.1-1.52,0.3c-0.47,0.2-0.88,0.48-1.23,0.83
		c-0.35,0.35-0.63,0.76-0.83,1.23c-0.2,0.47-0.3,0.98-0.3,1.52v20.17l-2.16-2.14c-0.39-0.38-0.83-0.67-1.32-0.88
		c-0.49-0.21-1-0.31-1.54-0.31c-0.55,0-1.08,0.1-1.57,0.31c-0.49,0.21-0.92,0.5-1.29,0.86c-0.36,0.36-0.65,0.79-0.87,1.28
		c-0.21,0.49-0.32,1.02-0.32,1.59c0,0.53,0.1,1.04,0.3,1.54c0.2,0.5,0.49,0.94,0.87,1.32l9.55,9.55c1.36,1.36,2.88,2.41,4.56,3.16
		c1.68,0.74,3.49,1.11,5.43,1.11c1.61,0,3.12-0.31,4.53-0.92c1.42-0.61,2.65-1.45,3.7-2.5c1.05-1.05,1.88-2.29,2.5-3.7
		c0.61-1.42,0.92-2.93,0.92-4.53v-10.36c0-0.54-0.1-1.04-0.3-1.52c-0.2-0.47-0.48-0.88-0.83-1.23c-0.35-0.35-0.76-0.63-1.23-0.83
		c-0.47-0.2-0.98-0.3-1.52-0.3C178.48,264.26,177.85,264.43,177.24,264.77"/>
	<path class="st1" d="M220.45,505.43c0,1.25-0.24,2.43-0.72,3.53c-0.48,1.1-1.13,2.06-1.94,2.87c-0.82,0.82-1.77,1.46-2.87,1.94
		s-2.28,0.72-3.53,0.72c-1.6,0-3.08-0.3-4.43-0.9c-1.35-0.6-2.59-1.47-3.72-2.6l-9.55-9.57c-0.28-0.28-0.43-0.62-0.43-1.01
		c0-0.41,0.15-0.75,0.44-1.03c0.29-0.28,0.63-0.42,1.02-0.42c0.39,0,0.73,0.14,1.01,0.42l2.81,2.81c0.22,0.22,0.46,0.38,0.74,0.48
		c0.28,0.11,0.56,0.16,0.86,0.16s0.58-0.06,0.85-0.17c0.27-0.11,0.5-0.27,0.7-0.47s0.35-0.44,0.47-0.7
		c0.11-0.26,0.17-0.55,0.17-0.86v-21.1c0-0.35,0.13-0.65,0.38-0.91s0.56-0.38,0.91-0.38s0.65,0.13,0.91,0.38s0.38,0.56,0.38,0.91
		v15.53c0,0.35,0.13,0.65,0.38,0.91s0.56,0.38,0.91,0.38c0.46,0,0.78-0.13,0.96-0.38c0.18-0.26,0.29-0.58,0.32-0.96
		c0.03-0.38,0.04-0.8,0.01-1.24c-0.03-0.44-0.02-0.86,0.01-1.24c0.03-0.38,0.14-0.7,0.32-0.96c0.18-0.26,0.5-0.38,0.96-0.38
		c0.5,0,0.84,0.16,1.02,0.48c0.18,0.32,0.29,0.72,0.31,1.2c0.03,0.49,0.01,1-0.04,1.56c-0.05,0.55-0.07,1.07-0.04,1.56
		c0.03,0.49,0.13,0.89,0.31,1.2s0.52,0.47,1.02,0.47c0.46,0,0.78-0.13,0.96-0.38c0.18-0.26,0.29-0.58,0.32-0.96
		c0.03-0.38,0.04-0.8,0.01-1.24c-0.03-0.44-0.02-0.86,0.01-1.24c0.03-0.38,0.14-0.71,0.32-0.96c0.18-0.26,0.5-0.38,0.96-0.38
		c0.5,0,0.84,0.16,1.02,0.47c0.18,0.32,0.29,0.72,0.31,1.21c0.03,0.48,0.01,1-0.04,1.56c-0.05,0.55-0.07,1.07-0.04,1.56
		c0.03,0.49,0.13,0.89,0.31,1.2c0.18,0.32,0.52,0.48,1.02,0.48c0.46,0,0.78-0.13,0.96-0.38c0.18-0.26,0.29-0.58,0.32-0.96
		c0.03-0.38,0.04-0.8,0.01-1.24c-0.03-0.45-0.02-0.86,0.01-1.24c0.03-0.38,0.14-0.7,0.32-0.96c0.18-0.26,0.5-0.39,0.96-0.39
		c0.35,0,0.65,0.13,0.91,0.39c0.26,0.26,0.38,0.56,0.38,0.91V505.43z M217.26,491.7c-0.35-0.57-0.82-1.01-1.4-1.32
		c-0.58-0.32-1.21-0.48-1.88-0.48c-0.66,0-1.29,0.17-1.9,0.5c-0.35-0.57-0.82-1.01-1.4-1.32c-0.58-0.32-1.21-0.48-1.88-0.48
		c-0.42,0-0.85,0.08-1.29,0.22v-9.28c0-0.54-0.1-1.04-0.3-1.52s-0.48-0.88-0.83-1.23c-0.35-0.35-0.76-0.63-1.23-0.83
		c-0.47-0.2-0.98-0.3-1.52-0.3s-1.04,0.1-1.52,0.3c-0.47,0.2-0.88,0.48-1.23,0.83c-0.35,0.35-0.63,0.76-0.83,1.23
		s-0.3,0.98-0.3,1.52v20.17l-2.16-2.14c-0.39-0.38-0.83-0.67-1.32-0.88c-0.48-0.21-1-0.31-1.54-0.31c-0.55,0-1.07,0.11-1.57,0.31
		c-0.49,0.21-0.92,0.5-1.29,0.86c-0.36,0.36-0.65,0.79-0.87,1.28c-0.21,0.49-0.32,1.02-0.32,1.59c0,0.53,0.1,1.04,0.3,1.54
		c0.2,0.5,0.49,0.94,0.87,1.32l9.55,9.55c1.36,1.36,2.88,2.41,4.56,3.15c1.68,0.74,3.49,1.11,5.43,1.11c1.61,0,3.12-0.31,4.53-0.92
		c1.42-0.61,2.65-1.45,3.7-2.5c1.05-1.05,1.88-2.29,2.5-3.7c0.61-1.42,0.92-2.93,0.92-4.53v-10.36c0-0.54-0.1-1.04-0.3-1.52
		c-0.2-0.47-0.48-0.88-0.83-1.23c-0.35-0.35-0.76-0.63-1.23-0.83c-0.47-0.2-0.98-0.3-1.52-0.3
		C218.5,491.19,217.86,491.36,217.26,491.7"/>
	<path class="st1" d="M1301.21,99.37l113.71-41.39l-0.68-1.88l-113.71,41.39C1300.76,98.12,1300.98,98.75,1301.21,99.37z"/>
	<path class="st1" d="M1330.84,268.44c0,0.33,0.01,0.67,0.01,1s-0.01,0.67-0.01,1h121.19v-2H1330.84z"/>
	<path class="st1" d="M1301.21,439.51c-0.23,0.63-0.45,1.25-0.68,1.88l113.71,41.39l0.68-1.88L1301.21,439.51z"/>
	<g>
		<circle class="st0" cx="206.86" cy="42.51" r="41.5"/>
		<path class="st2" d="M123.5,50.77h9.31v-1.68h-6.98V33.97h-2.33V50.77z M110.81,44.14c0.91-2.33,1.8-4.66,2.66-7.68h0.05
			c0.84,3.02,1.66,5.35,2.5,7.68H110.81z M112.94,33.97l-6.84,16.8h2.26l1.8-4.94h6.41l1.73,4.94h2.69l-6.26-16.8H112.94z
			 M103.58,33.97h-2.33v16.8h2.33V33.97z M87.31,50.77h2.33v-6.96h2.47L96,51.06l2.35-0.72l-4.18-7.15c1.61-1.03,2.81-2.42,2.81-4.9
			c0-2.9-2.14-4.32-4.87-4.32h-4.8V50.77z M89.64,35.65h1.99c1.56,0,2.86,0.79,2.86,2.86c0,1.42-0.55,3.62-3.53,3.62h-1.32V35.65z
			 M83.06,33.97h-8.28v16.8h9.31v-1.68h-6.98v-6.34h5.83v-1.68h-5.83v-5.42h5.95V33.97z M66.65,50.77V35.65h5.4v-1.68h-13.1v1.68
			h5.38v15.12H66.65z M49.46,44.14c0.91-2.33,1.8-4.66,2.66-7.68h0.05c0.84,3.02,1.66,5.35,2.5,7.68H49.46z M51.6,33.97l-6.84,16.8
			h2.26l1.8-4.94h6.41l1.73,4.94h2.69l-6.26-16.8H51.6z M42.24,33.97h-2.18c-2.35,4.46-4.73,8.95-7.1,13.68
			c-2.14-4.73-4.3-9.22-6.46-13.68H24v16.8h1.92V37.09h0.05c0.65,2.21,4.13,9.38,6.22,13.68h0.94c2.26-4.3,6.07-11.71,6.74-13.68
			h0.05v13.68h2.33V33.97z"/>
		<path class="st1" d="M220.45,51.57c0,1.25-0.24,2.43-0.72,3.53c-0.48,1.1-1.13,2.06-1.94,2.87s-1.77,1.46-2.87,1.94
			c-1.1,0.48-2.28,0.72-3.53,0.72c-1.6,0-3.08-0.3-4.43-0.9c-1.35-0.6-2.59-1.47-3.72-2.6l-9.55-9.57
			c-0.28-0.28-0.43-0.62-0.43-1.01c0-0.4,0.15-0.75,0.44-1.03c0.29-0.28,0.63-0.42,1.02-0.42c0.39,0,0.73,0.14,1.01,0.42l2.81,2.81
			c0.22,0.22,0.46,0.38,0.74,0.48s0.56,0.16,0.86,0.16s0.58-0.06,0.85-0.17c0.27-0.11,0.5-0.27,0.7-0.47c0.2-0.2,0.35-0.44,0.47-0.7
			c0.11-0.26,0.17-0.55,0.17-0.86v-21.1c0-0.35,0.13-0.65,0.38-0.91c0.26-0.26,0.56-0.38,0.91-0.38s0.65,0.13,0.91,0.38
			c0.26,0.26,0.38,0.56,0.38,0.91v15.53c0,0.35,0.13,0.65,0.38,0.91c0.26,0.26,0.56,0.38,0.91,0.38c0.46,0,0.78-0.13,0.96-0.38
			c0.18-0.26,0.29-0.58,0.32-0.96c0.03-0.38,0.04-0.8,0.01-1.24c-0.03-0.45-0.02-0.86,0.01-1.24c0.03-0.38,0.14-0.7,0.32-0.96
			c0.18-0.26,0.5-0.39,0.96-0.39c0.5,0,0.84,0.16,1.02,0.48c0.18,0.32,0.29,0.72,0.31,1.2c0.03,0.49,0.01,1-0.04,1.56
			c-0.05,0.55-0.07,1.07-0.04,1.56c0.03,0.49,0.13,0.89,0.31,1.2s0.52,0.48,1.02,0.48c0.46,0,0.78-0.13,0.96-0.38
			c0.18-0.26,0.29-0.58,0.32-0.96c0.03-0.38,0.04-0.8,0.01-1.24c-0.03-0.45-0.02-0.86,0.01-1.24c0.03-0.38,0.14-0.71,0.32-0.96
			c0.18-0.26,0.5-0.38,0.96-0.38c0.5,0,0.84,0.16,1.02,0.48c0.18,0.32,0.29,0.72,0.31,1.2c0.03,0.48,0.01,1-0.04,1.56
			c-0.05,0.55-0.07,1.07-0.04,1.56c0.03,0.48,0.13,0.89,0.31,1.2c0.18,0.32,0.52,0.48,1.02,0.48c0.46,0,0.78-0.13,0.96-0.38
			c0.18-0.26,0.29-0.58,0.32-0.96c0.03-0.38,0.04-0.8,0.01-1.24c-0.03-0.45-0.02-0.86,0.01-1.24c0.03-0.38,0.14-0.7,0.32-0.96
			c0.18-0.26,0.5-0.38,0.96-0.38c0.35,0,0.65,0.13,0.91,0.38c0.26,0.26,0.38,0.56,0.38,0.91V51.57z M217.26,37.84
			c-0.35-0.57-0.82-1.01-1.4-1.33s-1.21-0.48-1.88-0.48c-0.66,0-1.29,0.17-1.9,0.5c-0.35-0.57-0.82-1.01-1.4-1.32
			s-1.21-0.48-1.88-0.48c-0.42,0-0.85,0.08-1.29,0.22v-9.28c0-0.54-0.1-1.04-0.3-1.52c-0.2-0.47-0.48-0.88-0.83-1.23
			c-0.35-0.35-0.76-0.63-1.23-0.83c-0.47-0.2-0.98-0.3-1.52-0.3s-1.04,0.1-1.52,0.3c-0.47,0.2-0.88,0.48-1.23,0.83
			s-0.63,0.76-0.83,1.23c-0.2,0.47-0.3,0.98-0.3,1.52v20.17l-2.16-2.14c-0.39-0.38-0.83-0.67-1.32-0.88c-0.48-0.21-1-0.31-1.54-0.31
			c-0.55,0-1.07,0.1-1.57,0.31c-0.49,0.21-0.92,0.5-1.29,0.86c-0.36,0.36-0.65,0.79-0.87,1.28c-0.21,0.49-0.32,1.02-0.32,1.59
			c0,0.53,0.1,1.04,0.3,1.54c0.2,0.5,0.49,0.94,0.87,1.31l9.55,9.55c1.36,1.36,2.88,2.41,4.56,3.16c1.68,0.74,3.49,1.11,5.43,1.11
			c1.61,0,3.12-0.31,4.53-0.92c1.42-0.61,2.65-1.45,3.7-2.5c1.05-1.05,1.88-2.29,2.5-3.7c0.61-1.42,0.92-2.93,0.92-4.53V41.22
			c0-0.54-0.1-1.04-0.3-1.52c-0.2-0.47-0.48-0.88-0.83-1.23c-0.35-0.35-0.76-0.63-1.23-0.83c-0.47-0.2-0.98-0.3-1.52-0.3
			C218.5,37.33,217.86,37.5,217.26,37.84"/>
		<path class="st1" d="M360.24,97.27l-113.1-41.17l-0.68,1.88l113.11,41.17C359.79,98.53,360.01,97.9,360.24,97.27z"/>
	</g>
	<path class="st1" d="M329.85,269.44c0-0.33,0.01-0.67,0.01-1H209.35v2h120.51C329.85,270.11,329.85,269.78,329.85,269.44z"/>
</g>
</svg>
