<?xml version="1.0" encoding="UTF-8" standalone="no"?>
<!DOCTYPE svg PUBLIC "-//W3C//DTD SVG 1.1//EN" "http://www.w3.org/Graphics/SVG/1.1/DTD/svg11.dtd">
<svg width="100%" height="100%" viewBox="0 0 242 242" version="1.1" xmlns="http://www.w3.org/2000/svg" xmlns:xlink="http://www.w3.org/1999/xlink" xml:space="preserve" xmlns:serif="http://www.serif.com/" style="fill-rule:evenodd;clip-rule:evenodd;">
    <g transform="matrix(0.24,0,0,0.24,-258.498,-124.707)">
        <g transform="matrix(1,0,0,1,1580.7,523.735)">
            <path d="M0,999C275.866,999 499.5,775.366 499.5,499.5C499.5,223.634 275.866,0 0,0C-275.866,0 -499.5,223.634 -499.5,499.5C-499.5,775.366 -275.866,999 0,999" style="fill:white;fill-rule:nonzero;"/>
        </g>
        <g transform="matrix(1,0,0,1,1580.7,523.735)">
            <path d="M0,999C275.866,999 499.5,775.366 499.5,499.5C499.5,223.634 275.866,0 0,0C-275.866,0 -499.5,223.634 -499.5,499.5C-499.5,775.366 -275.866,999 0,999Z" style="fill:none;fill-rule:nonzero;stroke:white;stroke-width:2px;"/>
        </g>
        <g transform="matrix(1,0,0,1,1245.71,1279.65)">
            <path d="M0,219.02C60.384,219.02 109.51,169.894 109.51,109.51C109.51,49.126 60.384,0 0,0C-60.384,0 -109.51,49.126 -109.51,109.51C-109.51,169.894 -60.384,219.02 0,219.02" style="fill:rgb(0,118,192);fill-rule:nonzero;"/>
        </g>
        <g transform="matrix(1,0,0,1,1245.71,1279.65)">
            <path d="M0,219.02C60.384,219.02 109.51,169.894 109.51,109.51C109.51,49.126 60.384,0 0,0C-60.384,0 -109.51,49.126 -109.51,109.51C-109.51,169.894 -60.384,219.02 0,219.02Z" style="fill:none;fill-rule:nonzero;stroke:white;stroke-width:7px;"/>
        </g>
        <g transform="matrix(1,0,0,1,1293.87,1373.22)">
            <path d="M0,0.306C-1.737,0.306 -3.18,-1.225 -3.18,-3.004C-3.18,-4.773 -1.737,-6.293 0,-6.293C1.736,-6.293 3.168,-4.773 3.168,-3.004C3.168,-1.225 1.736,0.306 0,0.306M0,0.935C2.116,0.935 3.841,-0.835 3.841,-3.004C3.841,-5.152 2.116,-6.921 0,-6.921C-2.127,-6.921 -3.853,-5.152 -3.853,-3.004C-3.853,-0.835 -2.127,0.935 0,0.935M-1.53,-1.04L-0.771,-1.04L-0.771,-2.777L0.065,-2.777L1.367,-0.965L2.137,-1.148L0.76,-2.939C1.291,-3.189 1.692,-3.547 1.692,-4.155C1.692,-4.881 0.976,-5.239 0.065,-5.239L-1.53,-5.239L-1.53,-1.04ZM-0.771,-4.816L-0.087,-4.816C0.423,-4.816 0.879,-4.621 0.879,-4.111C0.879,-3.753 0.672,-3.2 -0.315,-3.2L-0.771,-3.2L-0.771,-4.816ZM-5.967,-6.027L-7.456,-6.027L-7.456,4.36L-7.493,4.36C-8.368,3.056 -13.17,-2.638 -16.037,-6.027L-17.377,-6.027L-17.377,7.002L-15.888,7.002L-15.888,-3.364L-15.85,-3.364C-15.069,-2.229 -10.21,3.615 -7.381,7.002L-5.967,7.002L-5.967,-6.027ZM-26.627,5.923C-29.997,5.923 -31.15,2.815 -31.15,0.265C-31.15,-2.174 -29.848,-4.947 -26.627,-4.947C-23.408,-4.947 -22.104,-2.174 -22.104,0.265C-22.104,2.815 -23.259,5.923 -26.627,5.923M-26.627,7.227C-22.607,7.227 -20.113,4.156 -20.113,0.265C-20.113,-3.383 -22.867,-6.25 -26.627,-6.25C-30.387,-6.25 -33.142,-3.383 -33.142,0.265C-33.142,4.156 -30.649,7.227 -26.627,7.227M-37.312,7.002L-35.506,7.002L-35.506,-6.027L-37.312,-6.027L-37.312,7.002ZM-48.312,7.002L-46.507,7.002L-46.507,1.606L-44.59,1.606L-41.574,7.227L-39.75,6.668L-42.989,1.121C-41.742,0.321 -40.811,-0.759 -40.811,-2.676C-40.811,-4.928 -42.468,-6.027 -44.59,-6.027L-48.312,-6.027L-48.312,7.002ZM-46.507,-4.724L-44.962,-4.724C-43.753,-4.724 -42.747,-4.109 -42.747,-2.508C-42.747,-1.41 -43.175,0.303 -45.483,0.303L-46.507,0.303L-46.507,-4.724ZM-51.793,-6.027L-58.215,-6.027L-58.215,7.002L-50.992,7.002L-50.992,5.701L-56.409,5.701L-56.409,0.786L-51.887,0.786L-51.887,-0.516L-56.409,-0.516L-56.409,-4.724L-51.793,-4.724L-51.793,-6.027ZM-64.339,7.002L-64.339,-4.724L-60.151,-4.724L-60.151,-6.027L-70.314,-6.027L-70.314,-4.724L-66.144,-4.724L-66.144,7.002L-64.339,7.002ZM-70.835,6.817L-75.6,-0.275L-72.026,-5.99L-73.701,-6.212L-76.474,-1.485L-79.509,-6.212L-81.426,-5.803L-77.554,-0.088L-81.798,6.855L-80.142,7.189L-76.642,1.121L-72.79,7.189L-70.835,6.817ZM-83.864,-6.027L-90.286,-6.027L-90.286,7.002L-83.064,7.002L-83.064,5.701L-88.48,5.701L-88.48,0.786L-83.957,0.786L-83.957,-0.516L-88.48,-0.516L-88.48,-4.724L-83.864,-4.724L-83.864,-6.027ZM-94.064,-6.027L-95.553,-6.027L-95.553,4.36L-95.59,4.36C-96.465,3.056 -101.268,-2.638 -104.135,-6.027L-105.475,-6.027L-105.475,7.002L-103.985,7.002L-103.985,-3.364L-103.949,-3.364C-103.167,-2.229 -98.308,3.615 -95.479,7.002L-94.064,7.002L-94.064,-6.027Z" style="fill:white;fill-rule:nonzero;"/>
        </g>
        <g transform="matrix(1,0,0,1,1323.3,1398.85)">
            <path d="M0,6.429C0,7.018 0.505,7.508 1.096,7.508C1.654,7.508 2.159,6.986 2.159,6.429C2.159,5.855 1.654,5.348 1.081,5.348C0.505,5.348 0,5.838 0,6.429M-2.513,-0.555C-2.952,-0.993 -3.762,-1.331 -4.588,-1.331C-6.073,-1.331 -7.388,-0.488 -7.388,0.844C-7.388,1.992 -6.545,2.565 -5.584,3.257C-4.791,3.831 -3.914,4.252 -3.914,5.23C-3.914,6.057 -4.638,6.429 -5.347,6.429C-6.022,6.429 -6.68,6.04 -7.169,5.585L-7.911,6.444C-7.355,7.087 -6.275,7.508 -5.313,7.508C-3.762,7.508 -2.363,6.547 -2.363,5.129C-2.363,3.949 -3.071,3.257 -4.15,2.43C-5.112,1.706 -5.887,1.351 -5.887,0.642C-5.887,-0.067 -5.196,-0.319 -4.656,-0.319C-4.2,-0.319 -3.711,-0.183 -3.104,0.221L-2.513,-0.555ZM-11.471,7.306L-9.952,7.306L-9.952,-5.093L-11.471,-5.093L-11.471,-0.082L-11.504,-0.082C-12.027,-0.892 -13.056,-1.331 -14.203,-1.331C-16.515,-1.331 -18.1,0.795 -18.1,2.987C-18.1,5.686 -16.65,7.508 -14.371,7.508C-12.987,7.508 -12.095,6.799 -11.504,5.973L-11.471,5.973L-11.471,7.306ZM-14.086,6.429C-15.686,6.429 -16.464,4.725 -16.464,2.92C-16.464,1.132 -15.738,-0.252 -13.984,-0.252C-12.33,-0.252 -11.471,1.233 -11.471,2.819C-11.471,4.691 -12.246,6.429 -14.086,6.429M-26.315,-1.129L-27.816,-1.129L-27.816,7.306L-26.298,7.306L-26.298,2.228C-26.298,0.609 -25.202,-0.218 -24.003,-0.218C-22.637,-0.218 -21.963,0.609 -21.963,2.194L-21.963,7.306L-20.445,7.306L-20.445,1.874C-20.445,-0.252 -21.49,-1.331 -23.429,-1.331C-24.308,-1.331 -25.522,-0.927 -26.315,-0.082L-26.315,-1.129ZM-32.202,2.363C-31.999,4.994 -33.383,6.328 -34.463,6.328C-35.07,6.328 -35.677,5.771 -35.677,4.893C-35.677,3.831 -34.985,3.19 -33.652,2.785L-32.202,2.363ZM-32.202,5.872C-32.202,6.412 -32.168,6.951 -31.966,7.306L-30.312,7.306C-30.599,6.698 -30.684,5.888 -30.684,5.247L-30.684,1.536C-30.684,-0.927 -32.539,-1.331 -33.804,-1.331C-34.985,-1.331 -35.845,-0.993 -36.689,-0.183L-36.098,0.575C-35.491,0.069 -34.867,-0.336 -33.889,-0.336C-33.063,-0.336 -32.27,0.322 -32.202,1.351L-34.243,1.992C-35.997,2.516 -37.246,3.442 -37.246,4.91C-37.246,6.496 -36.267,7.508 -34.851,7.508C-34.074,7.508 -33.332,6.986 -32.741,6.395L-32.202,5.872ZM-45.46,-5.093L-46.962,-5.093L-46.962,7.306L-45.444,7.306L-45.444,2.228C-45.444,0.609 -44.347,-0.218 -43.15,-0.218C-41.783,-0.218 -41.108,0.609 -41.108,2.194L-41.108,7.306L-39.59,7.306L-39.59,1.874C-39.59,-0.252 -40.636,-1.331 -42.576,-1.331C-43.453,-1.331 -44.668,-0.927 -45.46,-0.082L-45.46,-5.093ZM-57.032,-1.129L-58.516,-1.129L-58.516,7.306L-56.998,7.306L-56.998,2.767C-56.998,0.896 -56.357,0.12 -55.581,0.12C-55.194,0.12 -54.822,0.288 -54.451,0.474L-53.759,-0.505C-54.232,-1.062 -54.789,-1.331 -55.159,-1.331C-55.514,-1.331 -56.071,-1.077 -56.425,-0.725L-57.032,-0.082L-57.032,-1.129ZM-62.936,7.306L-61.435,7.306L-61.435,-1.129L-62.953,-1.129L-62.953,3.797C-62.953,5.434 -63.914,6.395 -65.079,6.395C-66.445,6.395 -67.119,5.55 -67.119,3.966L-67.119,-1.129L-68.638,-1.129L-68.638,4.304C-68.638,6.429 -67.592,7.508 -65.651,7.508C-64.555,7.508 -63.796,7.07 -62.936,6.328L-62.936,7.306ZM-75.081,-0.252C-73.175,-0.252 -72.551,1.469 -72.551,2.987C-72.551,4.573 -73.091,6.429 -75.081,6.429C-77.055,6.429 -77.595,4.573 -77.595,2.987C-77.595,1.469 -76.971,-0.252 -75.081,-0.252M-75.081,7.508C-72.585,7.508 -70.915,5.602 -70.915,2.987C-70.915,0.255 -72.956,-1.331 -75.081,-1.331C-77.206,-1.331 -79.231,0.255 -79.231,2.987C-79.231,5.602 -77.561,7.508 -75.081,7.508M-88.526,-0.875L-85.22,6.833C-86.417,10.173 -87.159,10.443 -88.205,10.443L-88.796,10.443L-88.796,11.522L-88.036,11.522C-86.585,11.522 -85.54,10.579 -84.747,8.791L-80.412,-0.976L-81.745,-1.297C-82.639,0.844 -83.516,3.004 -84.393,5.55L-84.427,5.55C-85.27,3.004 -86.147,0.844 -87.008,-1.297L-88.526,-0.875ZM-101.481,-1.129L-102.982,-1.129L-102.982,7.306L-101.464,7.306L-101.464,2.228C-101.464,0.609 -100.367,-0.218 -99.17,-0.218C-97.803,-0.218 -97.128,0.609 -97.128,2.194L-97.128,7.306L-95.61,7.306L-95.61,1.874C-95.61,-0.252 -96.656,-1.331 -98.596,-1.331C-99.473,-1.331 -100.688,-0.927 -101.481,-0.082L-101.481,-1.129ZM-106.659,-2.882C-105.916,-2.882 -105.697,-3.456 -105.697,-3.912C-105.697,-4.333 -106.052,-4.806 -106.659,-4.806C-107.266,-4.806 -107.621,-4.333 -107.621,-3.912C-107.621,-3.456 -107.401,-2.882 -106.659,-2.882M-107.418,7.306L-105.9,7.306L-105.9,-1.129L-107.418,-1.129L-107.418,7.306ZM-120.558,2.178C-120.508,1.098 -119.866,-0.252 -118.247,-0.252C-116.915,-0.252 -116.358,0.861 -116.358,2.178L-120.558,2.178ZM-114.974,3.19C-114.806,0.98 -115.666,-1.331 -118.23,-1.331C-120.136,-1.331 -122.228,0.002 -122.228,2.92C-122.228,5.888 -120.491,7.508 -117.859,7.508C-116.982,7.508 -115.936,7.153 -115.059,6.53L-115.498,5.703C-116.088,6.141 -117.033,6.429 -117.809,6.429C-119.479,6.429 -120.676,4.877 -120.659,3.19L-114.974,3.19ZM-126.462,-1.129L-127.946,-1.129L-127.946,7.306L-126.428,7.306L-126.428,2.767C-126.428,0.896 -125.788,0.12 -125.011,0.12C-124.623,0.12 -124.252,0.288 -123.882,0.474L-123.19,-0.505C-123.662,-1.062 -124.219,-1.331 -124.59,-1.331C-124.944,-1.331 -125.501,-1.077 -125.855,-0.725L-126.462,-0.082L-126.462,-1.129ZM-132.366,7.306L-130.865,7.306L-130.865,-1.129L-132.383,-1.129L-132.383,3.797C-132.383,5.434 -133.344,6.395 -134.508,6.395C-135.875,6.395 -136.55,5.55 -136.55,3.966L-136.55,-1.129L-138.068,-1.129L-138.068,4.304C-138.068,6.429 -137.022,7.508 -135.082,7.508C-133.986,7.508 -133.226,7.07 -132.366,6.328L-132.366,7.306ZM-142.369,-3.658L-143.887,-3.153L-143.887,-1.129L-145.068,-1.129L-145.068,-0.252L-143.887,-0.252L-143.887,4.809C-143.887,6.53 -143.077,7.508 -141.39,7.508C-140.818,7.508 -140.193,7.306 -139.67,6.968L-140.041,6.124C-140.328,6.277 -140.649,6.412 -141.205,6.412C-142.133,6.412 -142.369,5.703 -142.369,4.523L-142.369,-0.252L-140.159,-0.252L-140.159,-1.129L-142.369,-1.129L-142.369,-3.658ZM-148.661,7.306L-147.16,7.306L-147.16,-1.129L-148.678,-1.129L-148.678,3.797C-148.678,5.434 -149.64,6.395 -150.804,6.395C-152.169,6.395 -152.844,5.55 -152.844,3.966L-152.844,-1.129L-154.362,-1.129L-154.362,4.304C-154.362,6.429 -153.317,7.508 -151.377,7.508C-150.281,7.508 -149.522,7.07 -148.661,6.328L-148.661,7.306ZM-156.842,-4.503L-162.662,-4.503L-162.662,7.306L-161.025,7.306L-161.025,2.346L-156.926,2.346L-156.926,1.166L-161.025,1.166L-161.025,-3.321L-156.842,-3.321L-156.842,-4.503Z" style="fill:white;fill-rule:nonzero;"/>
        </g>
        <g transform="matrix(1,0,0,1,1915.69,1279.65)">
            <path d="M0,219.02C60.384,219.02 109.51,169.894 109.51,109.51C109.51,49.126 60.384,0 0,0C-60.384,0 -109.51,49.126 -109.51,109.51C-109.51,169.894 -60.384,219.02 0,219.02" style="fill-rule:nonzero;"/>
        </g>
        <g transform="matrix(1,0,0,1,1915.69,1279.65)">
            <path d="M0,219.02C60.384,219.02 109.51,169.894 109.51,109.51C109.51,49.126 60.384,0 0,0C-60.384,0 -109.51,49.126 -109.51,109.51C-109.51,169.894 -60.384,219.02 0,219.02Z" style="fill:none;fill-rule:nonzero;stroke:white;stroke-width:7px;"/>
        </g>
        <g transform="matrix(1,0,0,1,1454.5,1362.35)">
            <path d="M0,15.749L0,0L5.633,0C8.26,0 10.108,1.215 10.108,3.352C10.108,5.872 8.082,6.906 6.991,7.2L6.991,7.244C8.928,7.334 11.087,8.684 11.087,11.092C11.087,13.813 8.839,15.749 5.165,15.749L0,15.749ZM3.139,6.57L4.119,6.57C5.923,6.57 7.147,5.399 7.147,3.937C7.147,2.542 6.123,1.934 4.765,1.934L3.139,1.934L3.139,6.57ZM3.139,13.813L4.742,13.813C6.479,13.813 7.792,12.891 7.792,11.137C7.792,9.292 6.435,8.504 4.72,8.504L3.139,8.504L3.139,13.813Z" style="fill-rule:nonzero;"/>
        </g>
        <g transform="matrix(1,0,0,1,1468.27,1376.37)">
            <path d="M0,-12.893C0,-13.748 0.712,-14.625 1.715,-14.625C2.739,-14.625 3.54,-13.77 3.54,-12.893C3.54,-11.925 2.85,-11.003 1.759,-11.003C0.712,-11.003 0,-11.925 0,-12.893M3.251,1.732L0.29,1.732L0.29,-9.517L3.251,-9.517L3.251,1.732Z" style="fill-rule:nonzero;"/>
        </g>
        <g transform="matrix(1,0,0,1,1474.35,1372.61)">
            <path d="M0,-0.27C0,-3.915 2.85,-6.03 5.833,-6.03C8.839,-6.03 11.689,-3.915 11.689,-0.27C11.689,3.218 9.329,5.76 5.833,5.76C2.36,5.76 0,3.218 0,-0.27M8.549,-0.27C8.549,-2.137 7.904,-4.365 5.833,-4.365C3.807,-4.365 3.139,-2.137 3.139,-0.27C3.139,1.709 3.719,4.095 5.833,4.095C7.993,4.095 8.549,1.709 8.549,-0.27" style="fill-rule:nonzero;"/>
        </g>
        <g transform="matrix(1,0,0,1,1080.2,1221.76)">
            <rect x="408.113" y="150.019" width="5.544" height="1.936"/>
        </g>
        <g transform="matrix(1,0,0,1,1499.67,1375.85)">
            <path d="M0,-7.02L0.044,-7.02L0.645,-7.897C1.001,-8.369 1.647,-9.27 2.56,-9.27C3.228,-9.27 3.94,-8.91 4.564,-8.257L3.45,-6.187C2.961,-6.435 2.649,-6.57 2.048,-6.57C1.024,-6.57 0.022,-5.738 0.022,-3.307L0.022,2.25L-2.939,2.25L-2.939,-8.999L0,-8.999L0,-7.02Z" style="fill-rule:nonzero;"/>
        </g>
        <g transform="matrix(1,0,0,1,1508.64,1372.21)">
            <path d="M0,0.54C-0.067,2.655 1.402,4.23 3.251,4.23C4.341,4.23 5.499,3.847 6.233,3.329L7.08,4.905C5.565,5.804 3.985,6.165 2.716,6.165C-0.646,6.165 -3.161,3.758 -3.161,0.044C-3.161,-3.42 -0.669,-5.625 2.515,-5.625C5.988,-5.625 7.436,-2.812 7.213,0.54L0,0.54ZM4.43,-1.08C4.541,-2.79 3.94,-3.96 2.471,-3.96C0.779,-3.96 0.022,-2.587 0.044,-1.08L4.43,-1.08Z" style="fill-rule:nonzero;"/>
        </g>
        <g transform="matrix(1,0,0,1,1524.21,1367.93)">
            <path d="M0,9.088C-0.824,9.741 -1.826,10.439 -2.85,10.439C-4.586,10.439 -6.033,9.088 -6.033,7.018C-6.033,4.881 -4.497,3.666 -1.914,2.923L0.712,2.137C0.557,1.102 -0.356,0.448 -1.313,0.448C-2.582,0.448 -3.473,0.92 -4.252,1.596L-5.209,0.179C-3.829,-0.968 -2.471,-1.351 -0.935,-1.351C1.113,-1.351 3.629,-0.676 3.629,2.834L3.629,7.423C3.629,8.323 3.741,9.38 4.097,10.168L0.957,10.168C0.735,9.785 0.669,9.133 0.669,8.525L0,9.088ZM-0.935,4.183C-2.382,4.634 -3.117,5.489 -3.117,6.771C-3.117,7.761 -2.493,8.436 -1.781,8.436C-0.6,8.436 0.935,6.951 0.712,3.644L-0.935,4.183Z" style="fill-rule:nonzero;"/>
        </g>
        <g transform="matrix(1,0,0,1,1539.04,1363.46)">
            <path d="M0,13.027L-0.045,13.027C-0.779,13.971 -1.937,14.917 -3.673,14.917C-6.59,14.917 -8.527,12.486 -8.527,8.887C-8.527,5.962 -6.434,3.127 -3.451,3.127C-2.003,3.127 -0.712,3.712 -0.045,4.702L0,4.702L0,-1.89L2.961,-1.89L2.961,14.647L0,14.647L0,13.027ZM-5.388,8.82C-5.388,11.002 -4.542,13.116 -2.828,13.116C-0.846,13.116 0,10.957 0,8.707C0,6.75 -0.913,4.927 -2.694,4.927C-4.608,4.927 -5.388,6.637 -5.388,8.82" style="fill-rule:nonzero;"/>
        </g>
        <g transform="matrix(1,0,0,1,1546.97,1383.73)">
            <path d="M0,-17.1C0.957,-14.512 1.937,-11.903 2.872,-8.776L2.916,-8.776C3.918,-11.903 4.942,-14.512 5.966,-17.1L8.482,-16.628L2.983,-4.118C2.382,-2.746 1.002,0 -1.892,0L-3.139,0L-3.139,-2.003L-2.36,-2.003C-1.002,-2.003 0.089,-2.588 1.269,-6.323L-2.961,-16.561L0,-17.1Z" style="fill-rule:nonzero;"/>
        </g>
        <g transform="matrix(1,0,0,1,1573,1367.46)">
            <path d="M0,10.033C-0.935,10.596 -2.159,10.912 -3.161,10.912C-7.792,10.912 -9.306,7.356 -9.306,5.061C-9.306,1.911 -6.946,-0.879 -3.006,-0.879C-2.115,-0.879 -1.024,-0.653 -0.111,-0.114L-0.824,1.618C-1.135,1.484 -1.469,1.371 -1.803,1.282C-2.137,1.191 -2.471,1.146 -2.805,1.146C-4.475,1.146 -6.167,2.294 -6.167,4.903C-6.167,7.153 -4.898,8.887 -2.783,8.887C-2.093,8.887 -1.336,8.729 -0.6,8.324L0,10.033Z" style="fill-rule:nonzero;"/>
        </g>
        <g transform="matrix(1,0,0,1,1574.76,1372.61)">
            <path d="M0,-0.27C0,-3.915 2.85,-6.03 5.833,-6.03C8.838,-6.03 11.688,-3.915 11.688,-0.27C11.688,3.218 9.328,5.76 5.833,5.76C2.36,5.76 0,3.218 0,-0.27M8.549,-0.27C8.549,-2.137 7.903,-4.365 5.833,-4.365C3.806,-4.365 3.139,-2.137 3.139,-0.27C3.139,1.709 3.718,4.095 5.833,4.095C7.992,4.095 8.549,1.709 8.549,-0.27" style="fill-rule:nonzero;"/>
        </g>
        <g transform="matrix(1,0,0,1,1592.22,1376.5)">
            <path d="M0,-8.324C1.002,-9.404 2.405,-9.922 3.807,-9.922C6.412,-9.922 7.793,-8.482 7.793,-5.647L7.793,1.598L4.831,1.598L4.831,-5.31C4.831,-6.884 4.141,-7.919 2.605,-7.919C1.158,-7.919 0.023,-6.951 0.023,-5.106L0.023,1.598L-2.938,1.598L-2.938,-9.651L0,-9.651L0,-8.324Z" style="fill-rule:nonzero;"/>
        </g>
        <g transform="matrix(1,0,0,1,1609.52,1375.99)">
            <path d="M0,-7.022C-0.668,-7.516 -1.358,-7.741 -1.892,-7.741C-2.56,-7.741 -3.228,-7.358 -3.228,-6.594C-3.228,-5.695 -2.159,-5.177 -0.913,-4.255C0.668,-3.062 1.136,-1.892 1.136,-0.857C1.136,0.719 -0.578,2.384 -3.027,2.384C-4.564,2.384 -5.699,1.843 -6.745,1.1L-5.811,-0.452C-5.143,0.089 -4.185,0.628 -3.384,0.628C-2.538,0.628 -1.781,0.178 -1.781,-0.767C-1.781,-1.824 -2.938,-2.41 -4.007,-3.174C-5.276,-4.051 -6.144,-4.907 -6.144,-6.301C-6.144,-8.079 -4.452,-9.406 -2.27,-9.406C-1.046,-9.406 0.156,-9.092 0.958,-8.371L0,-7.022Z" style="fill-rule:nonzero;"/>
        </g>
        <g transform="matrix(1,0,0,1,1620.59,1368.52)">
            <path d="M0,8.19C-1.046,9.247 -2.137,9.855 -3.54,9.855C-5.922,9.855 -7.302,8.415 -7.302,5.579L-7.302,-1.665L-4.341,-1.665L-4.341,5.152C-4.341,6.727 -3.651,7.762 -2.248,7.762C-1.224,7.762 -0.022,6.885 -0.022,4.838L-0.022,-1.665L2.939,-1.665L2.939,9.585L0,9.585L0,8.19Z" style="fill-rule:nonzero;"/>
        </g>
        <g transform="matrix(1,0,0,1,1629.95,1376.48)">
            <path d="M0,-8.302L0.045,-8.302C0.802,-9.315 2.249,-9.9 3.562,-9.9C4.965,-9.9 6.168,-9.337 6.835,-8.302C7.77,-9.202 9.218,-9.878 10.531,-9.9C13.047,-9.922 14.36,-8.369 14.405,-5.783L14.405,1.598L11.443,1.598L11.443,-5.242C11.443,-6.548 10.999,-7.897 9.529,-7.897C8.104,-7.897 7.214,-7.042 7.214,-5.084L7.214,1.62L4.253,1.62L4.253,-5.242C4.253,-6.817 3.562,-7.897 2.294,-7.897C0.891,-7.897 0.023,-6.929 0.023,-5.017L0.023,1.62L-2.938,1.62L-2.938,-9.629L0,-9.629L0,-8.302Z" style="fill-rule:nonzero;"/>
        </g>
        <g transform="matrix(1,0,0,1,1653.31,1367.93)">
            <path d="M0,9.088C-0.824,9.741 -1.826,10.439 -2.85,10.439C-4.586,10.439 -6.033,9.088 -6.033,7.018C-6.033,4.881 -4.497,3.666 -1.915,2.923L0.713,2.137C0.556,1.102 -0.357,0.448 -1.314,0.448C-2.582,0.448 -3.473,0.92 -4.253,1.596L-5.209,0.179C-3.83,-0.968 -2.471,-1.351 -0.935,-1.351C1.113,-1.351 3.63,-0.676 3.63,2.834L3.63,7.423C3.63,8.323 3.741,9.38 4.096,10.168L0.957,10.168C0.734,9.785 0.669,9.133 0.669,8.525L0,9.088ZM-0.935,4.183C-2.382,4.634 -3.117,5.489 -3.117,6.771C-3.117,7.761 -2.494,8.436 -1.782,8.436C-0.601,8.436 0.935,6.951 0.713,3.644L-0.935,4.183Z" style="fill-rule:nonzero;"/>
        </g>
        <g transform="matrix(1,0,0,1,1660.26,1378.37)">
            <path d="M0,-16.807L2.961,-16.807L2.961,-9.967L3.005,-9.967C3.784,-11.114 5.209,-11.79 6.545,-11.79C10.063,-11.79 11.465,-8.617 11.465,-6.143C11.465,-2.925 9.462,0 6.301,0C4.92,0 3.784,-0.675 2.961,-1.665L2.961,-0.27L0,-0.27L0,-16.807ZM2.961,-5.759C2.961,-3.713 3.762,-1.801 5.765,-1.801C7.658,-1.801 8.325,-4.14 8.325,-6.121C8.325,-8.055 7.48,-9.99 5.811,-9.99C3.94,-9.99 2.961,-8.347 2.961,-5.759" style="fill-rule:nonzero;"/>
        </g>
        <g transform="matrix(1,0,0,1,1080.2,1215.93)">
            <rect x="594.381" y="145.632" width="2.961" height="16.537"/>
        </g>
        <g transform="matrix(1,0,0,1,1683.55,1372.21)">
            <path d="M0,0.54C-0.067,2.655 1.403,4.23 3.251,4.23C4.342,4.23 5.499,3.847 6.233,3.329L7.08,4.905C5.566,5.804 3.985,6.165 2.717,6.165C-0.645,6.165 -3.161,3.758 -3.161,0.044C-3.161,-3.42 -0.667,-5.625 2.516,-5.625C5.989,-5.625 7.436,-2.812 7.214,0.54L0,0.54ZM4.431,-1.08C4.542,-2.79 3.941,-3.96 2.471,-3.96C0.78,-3.96 0.022,-2.587 0.045,-1.08L4.431,-1.08Z" style="fill-rule:nonzero;"/>
        </g>
        <g transform="matrix(1,0,0,1,1699.67,1375.99)">
            <path d="M0,-7.022C-0.667,-7.516 -1.358,-7.741 -1.892,-7.741C-2.56,-7.741 -3.227,-7.358 -3.227,-6.594C-3.227,-5.695 -2.159,-5.177 -0.913,-4.255C0.669,-3.062 1.137,-1.892 1.137,-0.857C1.137,0.719 -0.578,2.384 -3.027,2.384C-4.563,2.384 -5.699,1.843 -6.745,1.1L-5.811,-0.452C-5.142,0.089 -4.185,0.628 -3.384,0.628C-2.538,0.628 -1.78,0.178 -1.78,-0.767C-1.78,-1.824 -2.938,-2.41 -4.007,-3.174C-5.275,-4.051 -6.144,-4.907 -6.144,-6.301C-6.144,-8.079 -4.452,-9.406 -2.27,-9.406C-1.046,-9.406 0.156,-9.092 0.958,-8.371L0,-7.022Z" style="fill-rule:nonzero;"/>
        </g>
        <g transform="matrix(-0.999979,0.00651838,0.00651838,0.999979,1705.21,1378.37)">
            <path d="M-0.055,-3.375C-0.924,-3.369 -1.697,-2.576 -1.691,-1.677C-1.685,-0.798 -0.902,0.006 -0.055,0C0.88,-0.006 1.653,-0.777 1.647,-1.699C1.641,-2.621 0.858,-3.381 -0.055,-3.375" style="fill-rule:nonzero;"/>
        </g>
        <g transform="matrix(1,0,0,1,1461.51,1404.35)">
            <path d="M0,-10.396C-0.734,-11.004 -2.404,-11.769 -4.074,-11.769C-7.926,-11.769 -10.196,-8.978 -10.196,-5.288C-10.196,-1.306 -7.481,1.371 -4.074,1.371C-2.382,1.371 -1.046,0.831 -0.133,0.201L0.712,1.507C-0.334,2.226 -2.182,2.947 -4.185,2.947C-9.751,2.947 -12.579,-0.901 -12.579,-5.244C-12.579,-9.203 -9.507,-13.343 -3.918,-13.343C-1.692,-13.343 -0.133,-12.555 0.891,-11.745L0,-10.396Z" style="fill-rule:nonzero;"/>
        </g>
        <g transform="matrix(1,0,0,1,1472.63,1397.35)">
            <path d="M0,8.368C-1.135,9.359 -2.137,9.944 -3.584,9.944C-6.144,9.944 -7.524,8.504 -7.524,5.668L-7.524,-1.576L-5.521,-1.576L-5.521,5.219C-5.521,7.333 -4.63,8.459 -2.827,8.459C-1.291,8.459 -0.022,7.177 -0.022,4.994L-0.022,-1.576L1.982,-1.576L1.982,9.673L0,9.673L0,8.368Z" style="fill-rule:nonzero;"/>
        </g>
        <g transform="matrix(1,0,0,1,1483.56,1405.22)">
            <path d="M0,-7.65C-0.802,-8.189 -1.447,-8.371 -2.048,-8.371C-2.761,-8.371 -3.673,-8.033 -3.673,-7.087C-3.673,-6.143 -2.649,-5.671 -1.38,-4.703C0.045,-3.601 0.979,-2.678 0.979,-1.102C0.979,0.787 -0.868,2.07 -2.916,2.07C-4.185,2.07 -5.61,1.507 -6.345,0.652L-5.365,-0.496C-4.72,0.113 -3.851,0.63 -2.961,0.63C-2.026,0.63 -1.069,0.135 -1.069,-0.968C-1.069,-2.273 -2.227,-2.835 -3.272,-3.601C-4.542,-4.523 -5.655,-5.288 -5.655,-6.818C-5.655,-8.594 -3.918,-9.72 -1.959,-9.72C-0.868,-9.72 0.2,-9.27 0.779,-8.685L0,-7.65Z" style="fill-rule:nonzero;"/>
        </g>
        <g transform="matrix(1,0,0,1,1489.91,1403.92)">
            <path d="M0,-8.145L2.916,-8.145L2.916,-6.975L0,-6.975L0,-0.608C0,0.967 0.312,1.911 1.536,1.911C2.271,1.911 2.694,1.732 3.072,1.53L3.562,2.654C2.872,3.104 2.048,3.375 1.291,3.375C-0.935,3.375 -2.003,2.069 -2.003,-0.226L-2.003,-6.975L-3.562,-6.975L-3.562,-8.145L-2.003,-8.145L-2.003,-10.845L0,-11.52L0,-8.145Z" style="fill-rule:nonzero;"/>
        </g>
        <g transform="matrix(1,0,0,1,1494.81,1401.53)">
            <path d="M0,-0.27C0,-3.915 2.671,-6.03 5.476,-6.03C8.281,-6.03 10.975,-3.915 10.975,-0.27C10.975,3.218 8.772,5.76 5.476,5.76C2.204,5.76 0,3.218 0,-0.27M2.159,-0.27C2.159,1.845 2.872,4.32 5.476,4.32C8.104,4.32 8.816,1.845 8.816,-0.27C8.816,-2.295 7.993,-4.59 5.476,-4.59C2.983,-4.59 2.159,-2.295 2.159,-0.27" style="fill-rule:nonzero;"/>
        </g>
        <g transform="matrix(1,0,0,1,1510.73,1405.36)">
            <path d="M0,-8.19C0.913,-9.27 2.248,-9.855 3.474,-9.855C5.232,-9.855 6.323,-9.112 7.013,-8.19C8.082,-9.18 9.596,-9.855 10.842,-9.855C13.314,-9.855 14.56,-8.235 14.627,-5.85L14.627,1.665L12.623,1.665L12.623,-5.04C12.623,-6.661 12.222,-8.281 10.174,-8.281C8.482,-8.281 7.325,-7.38 7.325,-5.108L7.325,1.665L5.321,1.665L5.321,-5.04C5.321,-7.155 4.43,-8.281 2.805,-8.281C1.113,-8.281 0.023,-7.178 0.023,-5.018L0.023,1.665L-1.982,1.665L-1.982,-9.585L0,-9.585L0,-8.19Z" style="fill-rule:nonzero;"/>
        </g>
        <g transform="matrix(1,0,0,1,1528.82,1405.83)">
            <path d="M0,-13.77C0,-14.333 0.467,-14.962 1.269,-14.962C2.071,-14.962 2.538,-14.333 2.538,-13.77C2.538,-13.162 2.248,-12.397 1.269,-12.397C0.29,-12.397 0,-13.162 0,-13.77M2.271,1.192L0.267,1.192L0.267,-10.057L2.271,-10.057L2.271,1.192Z" style="fill-rule:nonzero;"/>
        </g>
        <g transform="matrix(1,0,0,1,1542.76,1406.14)">
            <path d="M0,-9.495L-6.568,-0.45L0,-0.45L0,0.877L-9.351,0.877L-9.351,0.225L-2.449,-9.068L-8.059,-9.068L-8.059,-10.372L0,-10.372L0,-9.495Z" style="fill-rule:nonzero;"/>
        </g>
        <g transform="matrix(1,0,0,1,1546.59,1401.26)">
            <path d="M0,0.27C-0.022,2.52 1.559,4.59 3.762,4.59C4.787,4.59 6.034,4.207 6.813,3.622L7.391,4.724C6.234,5.556 4.854,6.03 3.696,6.03C0.223,6.03 -2.07,3.869 -2.07,-0.091C-2.07,-3.983 0.69,-5.76 3.206,-5.76C6.59,-5.76 7.726,-2.677 7.503,0.27L0,0.27ZM5.678,-1.081C5.678,-2.835 4.942,-4.32 3.184,-4.32C1.047,-4.32 0.2,-2.521 0.134,-1.081L5.678,-1.081Z" style="fill-rule:nonzero;"/>
        </g>
        <g transform="matrix(1,0,0,1,1564.41,1412.65)">
            <path d="M0,-17.1C1.136,-14.243 2.293,-11.364 3.406,-7.966L3.451,-7.966C4.609,-11.364 5.767,-14.243 6.947,-17.1L8.705,-16.673L2.984,-3.646C1.937,-1.26 0.557,0 -1.358,0L-2.36,0L-2.36,-1.44L-1.581,-1.44C-0.2,-1.44 0.78,-1.801 2.36,-6.256L-2.003,-16.537L0,-17.1Z" style="fill-rule:nonzero;"/>
        </g>
        <g transform="matrix(1,0,0,1,1574.56,1401.53)">
            <path d="M0,-0.27C0,-3.915 2.671,-6.03 5.476,-6.03C8.281,-6.03 10.975,-3.915 10.975,-0.27C10.975,3.218 8.771,5.76 5.476,5.76C2.204,5.76 0,3.218 0,-0.27M2.159,-0.27C2.159,1.845 2.872,4.32 5.476,4.32C8.104,4.32 8.816,1.845 8.816,-0.27C8.816,-2.295 7.992,-4.59 5.476,-4.59C2.983,-4.59 2.159,-2.295 2.159,-0.27" style="fill-rule:nonzero;"/>
        </g>
        <g transform="matrix(1,0,0,1,1595.94,1397.35)">
            <path d="M0,8.368C-1.136,9.359 -2.137,9.944 -3.585,9.944C-6.145,9.944 -7.525,8.504 -7.525,5.668L-7.525,-1.576L-5.522,-1.576L-5.522,5.219C-5.522,7.333 -4.631,8.459 -2.828,8.459C-1.292,8.459 -0.023,7.177 -0.023,4.994L-0.023,-1.576L1.981,-1.576L1.981,9.673L0,9.673L0,8.368Z" style="fill-rule:nonzero;"/>
        </g>
        <g transform="matrix(1,0,0,1,1603.62,1405.36)">
            <path d="M0,-8.19L0.802,-9.045C1.269,-9.517 2.003,-9.855 2.471,-9.855C2.961,-9.855 3.695,-9.495 4.319,-8.753L3.406,-7.447C2.916,-7.694 2.427,-7.92 1.915,-7.92C0.89,-7.92 0.045,-6.885 0.045,-4.388L0.045,1.665L-1.96,1.665L-1.96,-9.585L0,-9.585L0,-8.19Z" style="fill-rule:nonzero;"/>
        </g>
        <g transform="matrix(1,0,0,1,1621.93,1405.22)">
            <path d="M0,-7.65C-0.802,-8.189 -1.447,-8.371 -2.048,-8.371C-2.76,-8.371 -3.673,-8.033 -3.673,-7.087C-3.673,-6.143 -2.649,-5.671 -1.38,-4.703C0.045,-3.601 0.979,-2.678 0.979,-1.102C0.979,0.787 -0.868,2.07 -2.916,2.07C-4.185,2.07 -5.61,1.507 -6.345,0.652L-5.365,-0.496C-4.72,0.113 -3.852,0.63 -2.961,0.63C-2.026,0.63 -1.069,0.135 -1.069,-0.968C-1.069,-2.273 -2.226,-2.835 -3.273,-3.601C-4.542,-4.523 -5.655,-5.288 -5.655,-6.818C-5.655,-8.594 -3.918,-9.72 -1.959,-9.72C-0.868,-9.72 0.2,-9.27 0.78,-8.685L0,-7.65Z" style="fill-rule:nonzero;"/>
        </g>
        <g transform="matrix(1,0,0,1,1633.24,1397.35)">
            <path d="M0,8.368C-1.135,9.359 -2.137,9.944 -3.584,9.944C-6.144,9.944 -7.524,8.504 -7.524,5.668L-7.524,-1.576L-5.521,-1.576L-5.521,5.219C-5.521,7.333 -4.63,8.459 -2.827,8.459C-1.291,8.459 -0.022,7.177 -0.022,4.994L-0.022,-1.576L1.982,-1.576L1.982,9.673L0,9.673L0,8.368Z" style="fill-rule:nonzero;"/>
        </g>
        <g transform="matrix(1,0,0,1,1638.9,1407.29)">
            <path d="M0,-16.807L2.003,-16.807L2.003,-9.765L2.048,-9.765C2.872,-11.115 4.452,-11.79 5.699,-11.79C10.04,-11.79 10.752,-7.853 10.752,-6.233C10.752,-2.812 8.748,0 5.476,0C4.074,0 2.872,-0.675 2.048,-1.755L2.003,-1.755L2.003,-0.27L0,-0.27L0,-16.807ZM8.593,-6.21C8.593,-8.258 7.569,-10.35 5.499,-10.35C3.227,-10.35 2.003,-8.572 2.003,-5.67C2.003,-3.51 2.983,-1.44 5.476,-1.44C7.881,-1.44 8.593,-4.163 8.593,-6.21" style="fill-rule:nonzero;"/>
        </g>
        <g transform="matrix(1,0,0,1,1657.87,1405.22)">
            <path d="M0,-7.65C-0.802,-8.189 -1.447,-8.371 -2.048,-8.371C-2.76,-8.371 -3.673,-8.033 -3.673,-7.087C-3.673,-6.143 -2.649,-5.671 -1.381,-4.703C0.044,-3.601 0.979,-2.678 0.979,-1.102C0.979,0.787 -0.869,2.07 -2.917,2.07C-4.185,2.07 -5.61,1.507 -6.345,0.652L-5.366,-0.496C-4.721,0.113 -3.852,0.63 -2.961,0.63C-2.026,0.63 -1.069,0.135 -1.069,-0.968C-1.069,-2.273 -2.226,-2.835 -3.272,-3.601C-4.542,-4.523 -5.655,-5.288 -5.655,-6.818C-5.655,-8.594 -3.919,-9.72 -1.959,-9.72C-0.869,-9.72 0.2,-9.27 0.78,-8.685L0,-7.65Z" style="fill-rule:nonzero;"/>
        </g>
        <g transform="matrix(1,0,0,1,1664.22,1403.92)">
            <path d="M0,-8.145L2.917,-8.145L2.917,-6.975L0,-6.975L0,-0.608C0,0.967 0.312,1.911 1.536,1.911C2.272,1.911 2.695,1.732 3.072,1.53L3.562,2.654C2.872,3.104 2.048,3.375 1.292,3.375C-0.935,3.375 -2.003,2.069 -2.003,-0.226L-2.003,-6.975L-3.562,-6.975L-3.562,-8.145L-2.003,-8.145L-2.003,-10.845L0,-11.52L0,-8.145Z" style="fill-rule:nonzero;"/>
        </g>
        <g transform="matrix(1,0,0,1,1671.84,1405.36)">
            <path d="M0,-8.19L0.802,-9.045C1.268,-9.517 2.003,-9.855 2.471,-9.855C2.961,-9.855 3.695,-9.495 4.319,-8.753L3.406,-7.447C2.916,-7.694 2.427,-7.92 1.915,-7.92C0.889,-7.92 0.044,-6.885 0.044,-4.388L0.044,1.665L-1.96,1.665L-1.96,-9.585L0,-9.585L0,-8.19Z" style="fill-rule:nonzero;"/>
        </g>
        <g transform="matrix(1,0,0,1,1683.26,1396.99)">
            <path d="M0,8.82C-0.778,9.608 -1.758,10.305 -2.782,10.305C-4.652,10.305 -5.944,8.955 -5.944,6.841C-5.944,4.883 -4.297,3.645 -1.981,2.948L0.712,2.092C0.625,0.72 -0.423,-0.157 -1.513,-0.157C-2.804,-0.157 -3.628,0.382 -4.43,1.057L-5.209,0.046C-4.096,-1.035 -2.961,-1.485 -1.402,-1.485C0.268,-1.485 2.717,-0.945 2.717,2.34L2.717,7.289C2.717,8.145 2.828,9.225 3.207,10.035L1.024,10.035C0.758,9.563 0.712,8.842 0.712,8.123L0,8.82ZM-1.201,4.005C-2.961,4.545 -3.874,5.401 -3.874,6.817C-3.874,7.987 -3.072,8.729 -2.271,8.729C-0.846,8.729 0.98,6.952 0.712,3.443L-1.201,4.005Z" style="fill-rule:nonzero;"/>
        </g>
        <g transform="matrix(1,0,0,1,1692.1,1403.92)">
            <path d="M0,-8.145L2.917,-8.145L2.917,-6.975L0,-6.975L0,-0.608C0,0.967 0.312,1.911 1.536,1.911C2.272,1.911 2.695,1.732 3.072,1.53L3.562,2.654C2.872,3.104 2.048,3.375 1.292,3.375C-0.935,3.375 -2.003,2.069 -2.003,-0.226L-2.003,-6.975L-3.562,-6.975L-3.562,-8.145L-2.003,-8.145L-2.003,-10.845L0,-11.52L0,-8.145Z" style="fill-rule:nonzero;"/>
        </g>
        <g transform="matrix(1,0,0,1,1699.07,1401.26)">
            <path d="M0,0.27C-0.022,2.52 1.558,4.59 3.762,4.59C4.787,4.59 6.033,4.207 6.813,3.622L7.391,4.724C6.233,5.556 4.854,6.03 3.695,6.03C0.222,6.03 -2.07,3.869 -2.07,-0.091C-2.07,-3.983 0.69,-5.76 3.205,-5.76C6.59,-5.76 7.726,-2.677 7.503,0.27L0,0.27ZM5.677,-1.081C5.677,-2.835 4.942,-4.32 3.183,-4.32C1.046,-4.32 0.2,-2.521 0.133,-1.081L5.677,-1.081Z" style="fill-rule:nonzero;"/>
        </g>
        <g transform="matrix(-0.999971,0.00763867,0.00763867,0.999971,1711.04,1407.29)">
            <path d="M-0.011,-2.88C-0.767,-2.874 -1.431,-2.195 -1.425,-1.429C-1.419,-0.687 -0.745,0.006 -0.011,0C0.767,-0.006 1.431,-0.665 1.425,-1.451C1.419,-2.239 0.745,-2.886 -0.011,-2.88" style="fill-rule:nonzero;"/>
        </g>
        <g transform="matrix(1,0,0,1,1854.2,1411.29)">
            <path d="M0,8.83L-6.24,1.386L-6.18,3.412L-6.18,11.438L-9.19,11.438L-9.19,-2.608L-6.18,-2.608L0.923,5.86L8.026,-2.608L11.036,-2.608L11.036,11.438L8.026,11.438L8.026,3.412L8.086,1.386L1.826,8.83L0,8.83Z" style="fill:white;fill-rule:nonzero;"/>
        </g>
        <g transform="matrix(1,0,0,1,1080.2,1307.67)">
            <rect x="795.472" y="101.008" width="3.01" height="14.046" style="fill:white;"/>
        </g>
        <g transform="matrix(1,0,0,1,1901.95,1422.73)">
            <path d="M0,-14.046L3.01,-14.046L3.01,0L0,0L-10.795,-10.253L-10.735,-8.026L-10.735,0L-13.745,0L-13.745,-14.046L-10.735,-14.046L0.06,-3.772L0,-6.02L0,-14.046Z" style="fill:white;fill-rule:nonzero;"/>
        </g>
        <g transform="matrix(1,0,0,1,1080.2,1307.67)">
            <rect x="835.201" y="101.008" width="3.01" height="14.046" style="fill:white;"/>
        </g>
        <g transform="matrix(1,0,0,1,1931.85,1414.5)">
            <path d="M0,2.408L0,8.227L-3.01,8.227L-3.01,-5.819L12.22,-5.819L12.22,-3.01L0,-3.01L0,-0.401L11.016,-0.401L11.016,2.408L0,2.408Z" style="fill:white;fill-rule:nonzero;"/>
        </g>
        <g transform="matrix(1,0,0,1,1968.7,1408.68)">
            <path d="M0,14.046L-3.472,14.046L-5.097,11.237L-14.488,11.237L-16.093,14.046L-19.564,14.046L-11.518,0L-8.046,0L0,14.046ZM-12.641,8.026L-12.882,8.428L-6.702,8.428L-6.923,8.026L-9.792,2.629L-12.641,8.026Z" style="fill:white;fill-rule:nonzero;"/>
        </g>
        <g transform="matrix(1,0,0,1,1975.39,1408.68)">
            <path d="M0,14.046L0,0L11.116,0C14.206,0 16.233,0.943 16.233,3.572C16.233,5.016 15.631,5.94 14.648,6.562C16.193,7.123 17.236,8.207 17.236,10.153C17.236,12.461 15.792,14.046 12.18,14.046L0,14.046ZM3.01,2.809L3.01,5.418L11.116,5.418C12.802,5.418 13.424,5.057 13.424,4.113C13.424,3.17 12.802,2.809 11.116,2.809L3.01,2.809ZM3.01,8.227L3.01,11.237L12.18,11.237C13.785,11.237 14.427,10.755 14.427,9.712C14.427,8.689 13.785,8.227 12.18,8.227L3.01,8.227Z" style="fill:white;fill-rule:nonzero;"/>
        </g>
        <g transform="matrix(1,0,0,1,1876.88,1435.77)">
            <path d="M0,-3.823L0,1.275L-1.366,1.275L-1.366,-3.823L-4.37,-3.823L-4.37,-5.098L3.004,-5.098L3.004,-3.823L0,-3.823Z" style="fill:white;fill-rule:nonzero;"/>
        </g>
        <g transform="matrix(1,0,0,1,1890.36,1430.68)">
            <path d="M0,6.373L0,3.732L-4.734,3.732L-4.734,6.373L-6.1,6.373L-6.1,0L-4.734,0L-4.734,2.458L0,2.458L0,0L1.366,0L1.366,6.373L0,6.373Z" style="fill:white;fill-rule:nonzero;"/>
        </g>
        <g transform="matrix(1,0,0,1,1080.2,1343.99)">
            <rect x="816.262" y="86.687" width="1.365" height="6.373" style="fill:white;"/>
        </g>
        <g transform="matrix(1,0,0,1,1908.79,1437.05)">
            <path d="M0,-6.373L1.365,-6.373L1.365,0L0,0L-4.898,-4.652L-4.871,-3.642L-4.871,0L-6.237,0L-6.237,-6.373L-4.871,-6.373L0.027,-1.712L0,-2.731L0,-6.373Z" style="fill:white;fill-rule:nonzero;"/>
        </g>
        <g transform="matrix(1,0,0,1,1922.81,1430.68)">
            <path d="M0,6.373L-2.085,6.373L-5.545,3.732L-6.546,3.732L-6.546,6.373L-7.911,6.373L-7.911,0L-6.546,0L-6.546,2.458L-5.526,2.458L-2.203,0L-0.21,0L-2.403,1.593L-4.516,3.095L-2.167,4.78L0,6.373Z" style="fill:white;fill-rule:nonzero;"/>
        </g>
        <g transform="matrix(1,0,0,1,1930.25,1430.68)">
            <path d="M0,6.373L0,0L5.044,0C6.446,0 7.365,0.428 7.365,1.62C7.365,2.276 7.092,2.695 6.646,2.977C7.347,3.232 7.82,3.724 7.82,4.607C7.82,5.654 7.164,6.373 5.526,6.373L0,6.373ZM1.365,1.275L1.365,2.458L5.044,2.458C5.808,2.458 6.091,2.294 6.091,1.866C6.091,1.439 5.808,1.275 5.044,1.275L1.365,1.275ZM1.365,3.732L1.365,5.098L5.526,5.098C6.254,5.098 6.546,4.88 6.546,4.407C6.546,3.942 6.254,3.732 5.526,3.732L1.365,3.732Z" style="fill:white;fill-rule:nonzero;"/>
        </g>
        <g transform="matrix(1,0,0,1,1080.2,1343.99)">
            <rect x="862.426" y="86.687" width="1.365" height="6.373" style="fill:white;"/>
        </g>
        <g transform="matrix(1,0,0,1,1952.86,1433.23)">
            <path d="M0,1.274L0,0L4.343,0L4.343,0.828C4.343,3.177 2.376,3.96 0,3.96C-2.868,3.96 -4.325,2.531 -4.325,0.637C-4.325,-1.257 -2.94,-2.686 0.373,-2.686C2.067,-2.686 3.205,-2.295 3.614,-2.176L3.305,-0.966C2.385,-1.229 1.439,-1.412 0.373,-1.412C-2.03,-1.412 -2.932,-0.565 -2.932,0.637C-2.932,1.839 -1.958,2.685 0,2.685C1.921,2.685 2.977,2.039 2.977,1.292L2.977,1.274L0,1.274Z" style="fill:white;fill-rule:nonzero;"/>
        </g>
        <g transform="matrix(1,0,0,1,1993.49,1408.24)">
            <path d="M0,-3.08L2.493,-3.08L2.493,-2.614L1.514,-2.614L1.514,0L0.974,0L0.974,-2.614L0,-2.614L0,-3.08Z" style="fill:white;fill-rule:nonzero;"/>
        </g>
        <g transform="matrix(1,0,0,1,1996.59,1408.24)">
            <path d="M0,-3.08L0.76,-3.08L1.609,-0.669L1.618,-0.669L2.446,-3.08L3.197,-3.08L3.197,0L2.683,0L2.683,-2.376L2.674,-2.376L1.821,0L1.376,0L0.522,-2.376L0.513,-2.376L0.513,0L0,0L0,-3.08Z" style="fill:white;fill-rule:nonzero;"/>
        </g>
        <g transform="matrix(1,0,0,1,1941.68,1366.2)">
            <path d="M0,-24.517C-0.57,-24.446 -1.454,-24.627 -2.17,-25.434C-2.636,-26.06 -3.134,-26.664 -3.713,-27.201C-6.102,-29.458 -8.319,-31.095 -11.606,-31.573C-15.271,-32.106 -18.713,-30.48 -20.195,-27.382C-21.309,-25.053 -21.23,-22.641 -20.466,-20.227C-20.237,-19.503 -19.895,-18.814 -19.703,-18.082C-18.851,-14.817 -20.551,-11.261 -23.779,-9.767C-24.81,-9.29 -25.981,-9.073 -27.112,-8.868C-31.475,-8.076 -34.351,-4.067 -33.656,0.325C-32.98,4.6 -28.925,7.589 -24.666,6.953C-20.301,6.301 -17.244,2.219 -17.903,-2.161C-18.109,-3.525 -17.95,-4.814 -17.485,-6.076C-16.064,-9.93 -12.28,-11.367 -9.58,-10.822C-6.724,-10.246 -4.046,-10.785 -1.665,-12.619C-0.037,-13.873 1.75,-13.656 3.263,-12.179C4.318,-11.148 4.853,-9.849 5.258,-8.462C5.614,-7.241 6.152,-6.099 7.133,-5.244C8.213,-4.302 9.205,-4.582 9.599,-5.949C9.749,-6.466 9.967,-7.507 9.984,-8.047C10.033,-9.635 10.212,-12.091 8.074,-14.178C7.353,-14.795 6.748,-14.879 6.06,-14.802C5.597,-14.751 5.028,-14.833 4.646,-15.075C3.937,-15.526 3.264,-16.076 2.693,-16.694C1.756,-17.708 0.955,-19.873 -0.19,-22.157C-0.299,-22.46 -0.35,-22.883 0.144,-22.993C1.117,-23.211 2.307,-21.941 2.992,-21.216C3.677,-20.49 4.985,-18.949 5.479,-19.148C6.56,-19.583 5.37,-21.651 4.613,-22.703C3.857,-23.755 0.796,-28.3 -0.252,-28.036C-0.973,-27.855 -0.324,-26.948 0.252,-25.895C0.434,-25.564 0.577,-24.59 0,-24.517" style="fill:rgb(243,111,33);fill-rule:nonzero;"/>
        </g>
        <g transform="matrix(1,0,0,1,1952.45,1382.61)">
            <path d="M0,-17.455C-0.072,-18.181 -1.154,-18.616 -1.603,-16.994C-1.915,-16.077 -2.224,-15.152 -2.431,-14.207C-2.752,-12.746 -3.223,-11.37 -4.238,-10.243C-5.226,-9.146 -6.149,-9.005 -7.561,-9.393C-8.249,-9.582 -9.11,-9.619 -9.762,-9.373C-12.396,-8.38 -13.759,-6.267 -14.235,-3.587C-14.386,-2.737 -14.283,-1.771 -14.039,-0.934C-13.62,0.496 -12.29,1.161 -10.881,0.669C-10.1,0.396 -9.346,-0.076 -8.706,-0.61C-7.516,-1.604 -6.809,-2.952 -6.291,-4.407C-5.735,-5.968 -5.388,-7.198 -4.181,-8.349C-3.064,-9.365 -1.784,-8.387 -1.045,-10.49C0.193,-13.629 0.098,-16.469 0,-17.455" style="fill:rgb(243,111,33);fill-rule:nonzero;"/>
        </g>
        <g transform="matrix(1,0,0,1,1935.3,1400.82)">
            <path d="M0,-19.3C-1.506,-19.301 -5.601,-15.672 -5.231,-11.831C-4.939,-10.346 -5.408,-9.126 -6.535,-8.31C-7.631,-7.518 -8.885,-6.894 -10.149,-6.399C-11.882,-5.721 -13.622,-5.081 -14.954,-3.731C-15.303,-3.378 -15.612,-2.729 -15.533,-2.289C-15.13,0.001 -7.283,-2.501 -4.439,-3.815C-3.759,-4.129 -3.116,-4.58 -2.554,-5.08C-1.913,-5.649 -2.021,-6.185 -2.738,-6.651C-3.714,-7.283 -3.972,-7.844 -3.373,-8.846C-2.812,-9.783 -1.993,-10.566 -1.267,-11.399C-0.826,-11.904 -0.24,-12.31 0.096,-12.873C2.739,-16.253 1.437,-19.299 0,-19.3" style="fill:rgb(243,111,33);fill-rule:nonzero;"/>
        </g>
        <g transform="matrix(1,0,0,1,1947.18,1372.92)">
            <path d="M0,-8.465C0,-14.669 -6.647,-18.075 -7.983,-11.203C-8.732,-8.195 -11.699,-4.865 -16.579,-5.353C-20.628,-5.757 -24.456,-2.61 -25.117,1.422C-25.755,5.315 -23.285,8.587 -19.377,9.025C-14.171,9.61 -9.612,4.749 -10.521,-0.415C-10.998,-9.317 0,3.357 0,-8.465" style="fill:rgb(243,111,33);fill-rule:nonzero;"/>
        </g>
        <g transform="matrix(-0.0197313,-0.999805,-0.999805,0.0197313,1931.2,1357.4)">
            <path d="M-3.773,-3.877C-1.823,-3.918 -0.22,-2.349 -0.152,-0.334C-0.08,1.801 -1.711,3.607 -3.773,3.674C-5.776,3.741 -7.395,2.164 -7.444,0.096C-7.495,-2.016 -5.814,-3.834 -3.773,-3.877" style="fill:rgb(243,111,33);fill-rule:nonzero;"/>
        </g>
        <g transform="matrix(-0.925294,-0.379251,-0.379251,0.925294,1939.23,1391.65)">
            <path d="M0.993,-6.327C3.221,-4.16 3.675,-1.001 2.008,0.729C1.715,1.032 1.364,1.248 0.993,1.425C-0.726,-1.582 -2.012,-4.815 -2.835,-8.187C-1.531,-8.065 -0.148,-7.438 0.993,-6.327" style="fill:rgb(243,111,33);fill-rule:nonzero;"/>
        </g>
        <g transform="matrix(1,0,0,1,1921.06,1383.37)">
            <path d="M0,6.852C-0.741,6.855 -1.479,6.543 -1.873,6.301C-3.145,5.484 -3.61,4.069 -2.891,2.723C-1.827,0.73 1.187,-0.003 3.043,1.281C4.251,2.116 4.582,3.605 3.789,4.866C2.945,6.208 2.068,6.844 0,6.852" style="fill:rgb(243,111,33);fill-rule:nonzero;"/>
        </g>
        <g transform="matrix(1,0,0,1,1886.07,1398.24)">
            <path d="M0,-14.086C-0.062,-14.377 -0.142,-14.814 0.008,-15.047C0.247,-15.417 0.714,-15.254 1.043,-15.097C1.524,-14.87 2.005,-14.605 2.411,-14.267C2.99,-13.784 3.52,-13.238 4.039,-12.688C5.805,-10.814 7.844,-9.373 10.361,-8.708C12.109,-8.246 13.836,-8.241 15.556,-8.942C17.593,-9.772 19.737,-9.864 21.893,-9.594C24.498,-9.269 26.93,-8.44 29.105,-6.936C30.047,-6.285 30.887,-5.525 31.533,-4.569C33.168,-2.146 32.404,0.016 29.618,0.86C28.428,1.221 26.761,1.331 25.021,1.167C24.884,1.153 24.744,1.151 24.603,1.154C15.31,-0.125 7.119,-4.848 1.361,-11.693C1.361,-11.693 0.256,-12.891 0,-14.086" style="fill:rgb(243,111,33);fill-rule:nonzero;"/>
        </g>
        <g transform="matrix(1,0,0,1,1904.7,1331.46)">
            <path d="M0,1.348C-2.091,2.727 -1.038,7.365 3.677,5.629C6.632,4.54 5.19,1.42 9.227,2.146C10.164,2.315 13.087,4.128 15.354,3.162C19.103,1.566 15.823,0.223 16.58,-0.974C17.337,-2.171 21.626,-2.207 24.726,-1.445C26.459,-1.02 28.027,-0.411 30.024,1.203C35.323,5.484 35.359,3.561 35.359,3.561C35.359,3.561 31.106,-0.938 23.573,-3.477C16.039,-6.017 9.732,-5.436 9.732,-5.436C8.687,-4.892 9.047,-4.275 10.164,-4.239C12.904,-3.876 12.255,-0.684 7.533,0.477C4.037,1.203 3.239,-0.787 0,1.348" style="fill:rgb(243,111,33);fill-rule:nonzero;"/>
        </g>
        <g transform="matrix(1,0,0,1,1918.49,1349.43)">
            <path d="M0,-9.234C-0.074,-10.346 -0.937,-11.321 -2.186,-11.666C-3.483,-12.026 -4.657,-11.749 -5.742,-10.961C-8.347,-9.068 -12.685,-8.954 -14.904,-11.164C-16.03,-12.285 -17.598,-12.505 -19.159,-12.338C-23.341,-11.891 -27.306,-8.282 -28.182,-4.16C-29.058,-0.038 -26.387,3.271 -22.122,3.06C-21.873,3.027 -21.396,3.004 -20.937,2.9C-17.684,2.162 -15.341,0.228 -13.793,-2.696C-11.953,-6.169 -8.467,-7.643 -4.755,-6.478C-3.802,-6.179 -2.848,-6.125 -1.904,-6.508C-0.661,-7.012 0.077,-8.078 0,-9.234" style="fill:rgb(243,111,33);fill-rule:nonzero;"/>
        </g>
        <g transform="matrix(1,0,0,1,1884.58,1326.58)">
            <path d="M0,18.768C1.107,19.179 5.796,14.857 6.875,12.556C7.955,10.255 9.613,7.425 11.632,6.482C13.65,5.538 18.336,4.45 20.354,3.942C22.373,3.434 25.977,1.911 25.688,0.75C25.4,-0.411 21.15,0.471 21.15,0.471C12.605,2.849 5.309,8.252 0.47,15.463C0.47,15.463 -1.107,18.357 0,18.768" style="fill:rgb(243,111,33);fill-rule:nonzero;"/>
        </g>
        <g transform="matrix(1,0,0,1,1890.75,1362.64)">
            <path d="M0,10.957C0,10.233 -0.082,8.882 0.011,8.17C0.254,6.316 1.645,4.921 3.449,4.818C4.173,4.777 4.937,5.015 5.648,5.239C7.948,5.963 9.961,5.529 11.639,3.798C13.713,1.657 13.926,-1.828 12.177,-4.223C10.324,-6.764 6.859,-7.248 4.387,-5.308C3.334,-4.481 2.627,-3.413 2.291,-2.123C2.133,-1.516 2.076,-0.882 1.98,-0.26C1.798,0.934 1.32,1.976 0.402,2.784C-0.927,3.954 -2.596,3.831 -3.614,3.085C-4.166,2.68 -4.797,2.342 -5.442,2.113C-7.196,1.491 -8.914,2.073 -9.882,3.664C-10.298,4.349 -10.631,5.146 -10.765,5.932C-11.345,9.317 -10.466,12.371 -8.424,15.097C-8.052,15.595 -7.577,16.041 -7.08,16.419C-4.729,18.205 -2.086,17.584 -0.768,14.941C-0.517,14.438 -0.288,13.896 -0.195,13.346C-0.195,13.346 0.008,12.503 0,10.957" style="fill:rgb(243,111,33);fill-rule:nonzero;"/>
        </g>
        <g transform="matrix(1,0,0,1,1899.49,1386.88)">
            <path d="M0,-14.079C2.11,-14.01 3.981,-13.22 5.579,-11.768C5.911,-11.466 6.216,-11.132 6.551,-10.832C8.699,-8.911 11.895,-8.758 14.193,-10.499C15.104,-11.189 16.059,-11.526 17.192,-11.244C18.522,-10.912 19.423,-9.73 19.327,-8.432C19.231,-7.14 18.152,-6.074 16.77,-6.032C16.164,-6.013 15.531,-6.142 14.948,-6.322C13.36,-6.814 11.815,-6.797 10.293,-6.11C9.248,-5.638 8.384,-4.934 7.944,-3.866C6.793,-1.068 3.86,0 1.063,-0.622C-2.308,-1.372 -5.206,-4.329 -5.678,-7.59C-6.207,-11.244 -3.76,-14.069 0,-14.079" style="fill:rgb(243,111,33);fill-rule:nonzero;"/>
        </g>
        <g transform="matrix(1,0,0,1,1879.33,1354.41)">
            <path d="M0,0.327C0.344,-1.211 1.193,-2.704 2.269,-3.905C2.866,-4.572 3.597,-5.192 4.388,-5.596C5.789,-6.31 7.071,-5.786 7.765,-4.369C8.411,-3.053 8.373,-1.657 8.088,-0.276C7.719,1.512 6.932,3.116 5.628,4.417C5.182,4.861 4.668,5.27 4.118,5.569C2.149,6.637 0.371,5.831 0.017,3.631C-0.155,2.557 -0.278,1.567 0,0.327" style="fill:rgb(243,111,33);fill-rule:nonzero;"/>
        </g>
        <g transform="matrix(0.999969,0.007872,0.007872,-0.999969,1911.6,1355.21)">
            <path d="M0.035,0C-2.59,-0.025 -4.689,1.951 -4.673,4.43C-4.656,6.915 -2.553,8.908 0.035,8.892C2.566,8.876 4.61,6.946 4.663,4.525C4.715,2.047 2.648,0.026 0.035,0" style="fill:rgb(243,111,33);fill-rule:nonzero;"/>
        </g>
    </g>
</svg>
