<?xml version="1.0" encoding="UTF-8" standalone="no"?>
<!DOCTYPE svg PUBLIC "-//W3C//DTD SVG 1.1//EN" "http://www.w3.org/Graphics/SVG/1.1/DTD/svg11.dtd">
<svg width="100%" height="100%" viewBox="0 0 1919 199" version="1.1" xmlns="http://www.w3.org/2000/svg" xmlns:xlink="http://www.w3.org/1999/xlink" xml:space="preserve" xmlns:serif="http://www.serif.com/" style="fill-rule:evenodd;clip-rule:evenodd;">
    <g transform="matrix(1,0,0,1,-0.5,-440.5)">
        <g transform="matrix(1,0,0,1,-9,430.748)">
            <text x="121.081px" y="104.946px" style="font-family:'StoneSansStd-Medium', 'ITC Stone Sans Std', sans-serif;font-weight:450;font-size:24px;fill:rgb(0,174,239);">P<tspan x="134.569px 148.513px 168.217px 186.481px 203.641px 220.657px " y="104.946px 104.946px 104.946px 104.946px 104.946px 104.946px ">RODUCT</tspan></text>
        </g>
        <g transform="matrix(1,0,0,1,-9,430.748)">
            <text x="62.425px" y="134.946px" style="font-family:'StoneSansStd-Medium', 'ITC Stone Sans Std', sans-serif;font-weight:450;font-size:24px;fill:rgb(0,174,239);">D<tspan x="80.689px 93.217px 108.049px 120.577px 132.721px 152.425px 165.913px 188.785px 201.313px 220.657px " y="134.946px 134.946px 134.946px 134.946px 134.946px 134.946px 134.946px 134.946px 134.946px 134.946px ">EVELOPMENT</tspan></text>
        </g>
        <g transform="matrix(1,0,0,1,-9,430.748)">
            <text x="1704px" y="119.946px" style="font-family:'StoneSansStd-Medium', 'ITC Stone Sans Std', sans-serif;font-weight:450;font-size:24px;fill:rgb(0,174,239);">M<tspan x="1726.87px 1742.16px 1761.51px 1778.66px 1790.09px 1805.38px 1822.39px 1836.34px 1853.5px 1867.44px " y="119.946px 119.946px 119.946px 119.946px 119.946px 119.946px 119.946px 119.946px 119.946px 119.946px ">ANUFACTURE</tspan></text>
        </g>
        <g transform="matrix(1,0,0,1,296.5,498.5)">
            <path d="M0,83C22.92,83 41.5,64.42 41.5,41.5C41.5,18.58 22.92,0 0,0C-22.92,0 -41.5,18.58 -41.5,41.5C-41.5,64.42 -22.92,83 0,83Z" style="fill:none;fill-rule:nonzero;stroke:white;stroke-width:2px;"/>
        </g>
        <g transform="matrix(1,0,0,1,339,540)">
            <path d="M0,0L120.5,0" style="fill:none;fill-rule:nonzero;stroke:white;stroke-width:2px;"/>
        </g>
        <g transform="matrix(1,0,0,1,1624.18,498.5)">
            <path d="M0,83C-22.92,83 -41.5,64.42 -41.5,41.5C-41.5,18.58 -22.92,0 0,0C22.92,0 41.5,18.58 41.5,41.5C41.5,64.42 22.92,83 0,83Z" style="fill:none;fill-rule:nonzero;stroke:white;stroke-width:2px;"/>
        </g>
        <g transform="matrix(-1,0,0,1,1460,540)">
            <path d="M-121.684,0L0,0" style="fill:none;fill-rule:nonzero;stroke:white;stroke-width:2px;"/>
        </g>
        <g transform="matrix(1,0,0,1,1634.58,544.673)">
            <path d="M0,-9.345C-0.351,-9.911 -0.816,-10.353 -1.396,-10.67C-1.976,-10.987 -2.603,-11.145 -3.277,-11.145C-3.938,-11.145 -4.571,-10.976 -5.178,-10.64C-5.529,-11.206 -5.994,-11.647 -6.574,-11.964C-7.154,-12.281 -7.781,-12.44 -8.455,-12.44C-8.873,-12.44 -9.304,-12.365 -9.749,-12.217L-9.749,-21.501C-9.749,-22.041 -9.851,-22.546 -10.053,-23.018C-10.255,-23.49 -10.532,-23.901 -10.882,-24.252C-11.233,-24.603 -11.644,-24.879 -12.116,-25.082C-12.588,-25.284 -13.094,-25.385 -13.633,-25.385C-14.172,-25.385 -14.678,-25.284 -15.15,-25.082C-15.622,-24.879 -16.033,-24.603 -16.384,-24.252C-16.735,-23.901 -17.011,-23.49 -17.213,-23.018C-17.415,-22.546 -17.517,-22.041 -17.517,-21.501L-17.517,-1.335L-19.681,-3.479C-20.072,-3.857 -20.51,-4.15 -20.996,-4.359C-21.481,-4.568 -21.994,-4.673 -22.533,-4.673C-23.086,-4.673 -23.608,-4.568 -24.1,-4.359C-24.593,-4.15 -25.021,-3.863 -25.385,-3.499C-25.749,-3.135 -26.039,-2.707 -26.255,-2.215C-26.47,-1.723 -26.578,-1.194 -26.578,-0.627C-26.578,-0.101 -26.477,0.411 -26.275,0.91C-26.073,1.409 -25.783,1.847 -25.405,2.225L-15.858,11.772C-14.496,13.134 -12.976,14.186 -11.297,14.927C-9.618,15.669 -7.808,16.04 -5.866,16.04C-4.261,16.04 -2.751,15.733 -1.335,15.119C0.081,14.506 1.315,13.673 2.366,12.621C3.418,11.57 4.251,10.336 4.865,8.92C5.478,7.504 5.785,5.994 5.785,4.389L5.785,-5.967C5.785,-6.506 5.684,-7.012 5.481,-7.484C5.279,-7.956 5.003,-8.367 4.652,-8.718C4.301,-9.068 3.89,-9.345 3.418,-9.547C2.946,-9.75 2.44,-9.851 1.901,-9.851C1.24,-9.851 0.607,-9.682 0,-9.345M3.196,4.389C3.196,5.643 2.956,6.82 2.478,7.919C1.999,9.018 1.352,9.975 0.536,10.791C-0.28,11.607 -1.237,12.254 -2.336,12.733C-3.435,13.212 -4.612,13.451 -5.866,13.451C-7.471,13.451 -8.947,13.151 -10.296,12.551C-11.644,11.951 -12.885,11.084 -14.017,9.951L-23.564,0.384C-23.848,0.101 -23.989,-0.236 -23.989,-0.627C-23.989,-1.032 -23.844,-1.376 -23.554,-1.659C-23.265,-1.942 -22.924,-2.084 -22.533,-2.084C-22.142,-2.084 -21.805,-1.942 -21.521,-1.659L-18.71,1.153C-18.494,1.369 -18.248,1.53 -17.972,1.638C-17.695,1.746 -17.409,1.8 -17.112,1.8C-16.816,1.8 -16.532,1.743 -16.262,1.628C-15.993,1.514 -15.76,1.355 -15.565,1.153C-15.369,0.951 -15.214,0.718 -15.099,0.455C-14.985,0.192 -14.927,-0.094 -14.927,-0.405L-14.927,-21.501C-14.927,-21.852 -14.8,-22.155 -14.543,-22.412C-14.287,-22.668 -13.984,-22.796 -13.633,-22.796C-13.282,-22.796 -12.979,-22.668 -12.723,-22.412C-12.467,-22.155 -12.339,-21.852 -12.339,-21.501L-12.339,-5.967C-12.339,-5.616 -12.21,-5.313 -11.954,-5.057C-11.698,-4.801 -11.395,-4.673 -11.044,-4.673C-10.586,-4.673 -10.265,-4.801 -10.083,-5.057C-9.901,-5.313 -9.793,-5.633 -9.76,-6.018C-9.726,-6.402 -9.723,-6.817 -9.749,-7.262C-9.777,-7.707 -9.773,-8.121 -9.739,-8.506C-9.706,-8.89 -9.598,-9.21 -9.416,-9.466C-9.234,-9.722 -8.913,-9.851 -8.455,-9.851C-7.956,-9.851 -7.615,-9.692 -7.433,-9.375C-7.251,-9.058 -7.147,-8.657 -7.12,-8.172C-7.093,-7.686 -7.107,-7.167 -7.16,-6.614C-7.214,-6.061 -7.228,-5.542 -7.201,-5.057C-7.174,-4.571 -7.069,-4.17 -6.887,-3.853C-6.705,-3.536 -6.365,-3.378 -5.866,-3.378C-5.408,-3.378 -5.087,-3.506 -4.905,-3.762C-4.723,-4.018 -4.615,-4.339 -4.581,-4.723C-4.548,-5.107 -4.544,-5.522 -4.571,-5.967C-4.599,-6.412 -4.595,-6.827 -4.561,-7.211C-4.528,-7.595 -4.42,-7.916 -4.238,-8.172C-4.056,-8.428 -3.735,-8.556 -3.277,-8.556C-2.778,-8.556 -2.437,-8.397 -2.255,-8.081C-2.073,-7.764 -1.969,-7.363 -1.942,-6.877C-1.915,-6.392 -1.929,-5.873 -1.982,-5.32C-2.036,-4.767 -2.05,-4.248 -2.023,-3.762C-1.996,-3.277 -1.891,-2.876 -1.709,-2.559C-1.527,-2.242 -1.187,-2.084 -0.688,-2.084C-0.229,-2.084 0.091,-2.212 0.273,-2.468C0.455,-2.724 0.563,-3.044 0.597,-3.429C0.63,-3.813 0.634,-4.228 0.607,-4.673C0.58,-5.118 0.583,-5.532 0.617,-5.917C0.65,-6.301 0.758,-6.621 0.941,-6.877C1.123,-7.133 1.443,-7.262 1.901,-7.262C2.252,-7.262 2.555,-7.133 2.812,-6.877C3.068,-6.621 3.196,-6.318 3.196,-5.967L3.196,4.389Z" style="fill:white;fill-rule:nonzero;"/>
        </g>
        <g transform="matrix(1,0,0,1,306.897,544.673)">
            <path d="M0,-9.345C-0.351,-9.911 -0.816,-10.353 -1.396,-10.67C-1.976,-10.987 -2.603,-11.145 -3.277,-11.145C-3.938,-11.145 -4.571,-10.976 -5.178,-10.64C-5.529,-11.206 -5.994,-11.647 -6.574,-11.964C-7.154,-12.281 -7.781,-12.44 -8.455,-12.44C-8.873,-12.44 -9.304,-12.365 -9.749,-12.217L-9.749,-21.501C-9.749,-22.041 -9.851,-22.546 -10.053,-23.018C-10.255,-23.49 -10.532,-23.901 -10.882,-24.252C-11.233,-24.603 -11.644,-24.879 -12.116,-25.082C-12.588,-25.284 -13.094,-25.385 -13.633,-25.385C-14.172,-25.385 -14.678,-25.284 -15.15,-25.082C-15.622,-24.879 -16.033,-24.603 -16.384,-24.252C-16.735,-23.901 -17.011,-23.49 -17.213,-23.018C-17.415,-22.546 -17.517,-22.041 -17.517,-21.501L-17.517,-1.335L-19.681,-3.479C-20.072,-3.857 -20.51,-4.15 -20.996,-4.359C-21.481,-4.568 -21.994,-4.673 -22.533,-4.673C-23.086,-4.673 -23.608,-4.568 -24.1,-4.359C-24.593,-4.15 -25.021,-3.863 -25.385,-3.499C-25.749,-3.135 -26.039,-2.707 -26.255,-2.215C-26.47,-1.723 -26.578,-1.194 -26.578,-0.627C-26.578,-0.101 -26.477,0.411 -26.275,0.91C-26.073,1.409 -25.783,1.847 -25.405,2.225L-15.858,11.772C-14.496,13.134 -12.976,14.186 -11.297,14.927C-9.618,15.669 -7.808,16.04 -5.866,16.04C-4.261,16.04 -2.751,15.733 -1.335,15.119C0.081,14.506 1.315,13.673 2.367,12.621C3.418,11.57 4.251,10.336 4.865,8.92C5.478,7.504 5.785,5.994 5.785,4.389L5.785,-5.967C5.785,-6.506 5.684,-7.012 5.481,-7.484C5.279,-7.956 5.003,-8.367 4.652,-8.718C4.301,-9.068 3.89,-9.345 3.418,-9.547C2.946,-9.75 2.44,-9.851 1.901,-9.851C1.24,-9.851 0.607,-9.682 0,-9.345M3.196,4.389C3.196,5.643 2.956,6.82 2.478,7.919C1.999,9.018 1.352,9.975 0.536,10.791C-0.28,11.607 -1.237,12.254 -2.336,12.733C-3.435,13.212 -4.612,13.451 -5.866,13.451C-7.471,13.451 -8.947,13.151 -10.296,12.551C-11.644,11.951 -12.885,11.084 -14.017,9.951L-23.564,0.384C-23.848,0.101 -23.989,-0.236 -23.989,-0.627C-23.989,-1.032 -23.844,-1.376 -23.554,-1.659C-23.264,-1.942 -22.924,-2.084 -22.533,-2.084C-22.142,-2.084 -21.805,-1.942 -21.521,-1.659L-18.71,1.153C-18.494,1.369 -18.248,1.53 -17.972,1.638C-17.695,1.746 -17.409,1.8 -17.112,1.8C-16.816,1.8 -16.532,1.743 -16.262,1.628C-15.993,1.514 -15.76,1.355 -15.565,1.153C-15.369,0.951 -15.214,0.718 -15.099,0.455C-14.985,0.192 -14.927,-0.094 -14.927,-0.405L-14.927,-21.501C-14.927,-21.852 -14.799,-22.155 -14.543,-22.412C-14.287,-22.668 -13.984,-22.796 -13.633,-22.796C-13.282,-22.796 -12.979,-22.668 -12.723,-22.412C-12.467,-22.155 -12.338,-21.852 -12.338,-21.501L-12.338,-5.967C-12.338,-5.616 -12.21,-5.313 -11.954,-5.057C-11.698,-4.801 -11.395,-4.673 -11.044,-4.673C-10.586,-4.673 -10.265,-4.801 -10.083,-5.057C-9.901,-5.313 -9.793,-5.633 -9.759,-6.018C-9.726,-6.402 -9.723,-6.817 -9.749,-7.262C-9.777,-7.707 -9.773,-8.121 -9.739,-8.506C-9.706,-8.89 -9.598,-9.21 -9.416,-9.466C-9.234,-9.722 -8.913,-9.851 -8.455,-9.851C-7.956,-9.851 -7.615,-9.692 -7.433,-9.375C-7.251,-9.058 -7.147,-8.657 -7.12,-8.172C-7.093,-7.686 -7.107,-7.167 -7.16,-6.614C-7.214,-6.061 -7.228,-5.542 -7.201,-5.057C-7.174,-4.571 -7.069,-4.17 -6.887,-3.853C-6.705,-3.536 -6.365,-3.378 -5.866,-3.378C-5.408,-3.378 -5.087,-3.506 -4.905,-3.762C-4.723,-4.018 -4.615,-4.339 -4.581,-4.723C-4.548,-5.107 -4.544,-5.522 -4.571,-5.967C-4.598,-6.412 -4.595,-6.827 -4.561,-7.211C-4.528,-7.595 -4.42,-7.916 -4.238,-8.172C-4.056,-8.428 -3.735,-8.556 -3.277,-8.556C-2.778,-8.556 -2.437,-8.397 -2.255,-8.081C-2.073,-7.764 -1.969,-7.363 -1.942,-6.877C-1.915,-6.392 -1.929,-5.873 -1.982,-5.32C-2.036,-4.767 -2.05,-4.248 -2.023,-3.762C-1.996,-3.277 -1.891,-2.876 -1.709,-2.559C-1.527,-2.242 -1.187,-2.084 -0.688,-2.084C-0.229,-2.084 0.091,-2.212 0.273,-2.468C0.455,-2.724 0.563,-3.044 0.597,-3.429C0.63,-3.813 0.634,-4.228 0.607,-4.673C0.58,-5.118 0.583,-5.532 0.617,-5.917C0.65,-6.301 0.759,-6.621 0.941,-6.877C1.123,-7.133 1.443,-7.262 1.901,-7.262C2.252,-7.262 2.555,-7.133 2.812,-6.877C3.068,-6.621 3.196,-6.318 3.196,-5.967L3.196,4.389Z" style="fill:white;fill-rule:nonzero;"/>
        </g>
        <g transform="matrix(1,0,0,1,-9,434)">
            <rect x="9.5" y="6.5" width="1919" height="199" style="fill:none;"/>
        </g>
    </g>
</svg>
